<svg width="64" height="64" viewBox="0 0 64 64" fill="none" xmlns="http://www.w3.org/2000/svg">
<rect width="64" height="64" rx="11" fill="#007AFF"/>
<g clip-path="url(#clip0_2207_1112)">
<path d="M52.8033 50.0654C52.8033 50.0654 48.3031 38.0595 40.672 20.6217L41.9372 11.2896L42.5441 11.3719C43.419 11.4905 44.2285 10.8774 44.3472 10.0025C44.466 9.12593 43.8514 8.31434 42.9748 8.19549L28.6119 6.24823C27.7353 6.12938 26.9232 6.74755 26.8044 7.62416C26.6858 8.49899 27.3029 9.3055 28.1795 9.42435L28.7864 9.50663L27.5214 18.837C15.5242 33.6173 7.97983 44.0245 7.97983 44.0245C5.83609 48.3601 6.95271 52.76 11.8432 53.4231L46.5756 58.132C51.4644 58.7948 53.7206 54.816 52.8033 50.0654ZM16.0509 38.436C18.5076 35.2976 27.0084 24.7273 30.1126 20.905L30.584 20.3202L37.3289 21.2346L37.6311 21.9244C39.6071 26.4372 44.848 38.885 46.3854 42.5667L16.0509 38.436ZM28.0219 36.7791C26.6626 36.5948 25.7123 35.3401 25.8966 33.9808C26.0799 32.6287 27.3297 31.6741 28.689 31.8584C30.0465 32.0424 30.9988 33.2956 30.8155 34.6477C30.6312 36.007 29.3793 36.9631 28.0219 36.7791ZM33.8211 32.4855C32.8256 32.3505 32.1317 31.4306 32.2664 30.4369C32.4009 29.4449 33.3145 28.7447 34.31 28.8797C35.309 29.0151 36.0085 29.934 35.874 30.926C35.739 31.9215 34.8219 32.6212 33.8211 32.4855ZM35.0474 39.1953C33.6545 39.0065 32.6758 37.7209 32.8652 36.3243C33.054 34.9313 34.3394 33.9545 35.7324 34.1433C37.1236 34.3319 38.1025 35.6158 37.9136 37.0088C37.7243 38.4053 36.4387 39.384 35.0474 39.1953Z" fill="white"/>
</g>
<defs>
<clipPath id="clip0_2207_1112">
<rect width="49" height="49" fill="white" transform="translate(11.5137 3.93066) rotate(7.72088)"/>
</clipPath>
</defs>
</svg>
