<svg width="20" height="17" viewBox="0 0 20 17" fill="none" xmlns="http://www.w3.org/2000/svg">
<mask id="mask0_54_838" style="mask-type:luminance" maskUnits="userSpaceOnUse" x="-1" y="0" width="22" height="17">
<rect x="-1" y="0.571289" width="22" height="16" fill="white"/>
</mask>
<g mask="url(#mask0_54_838)">
<path fill-rule="evenodd" clip-rule="evenodd" d="M-1 0.571289V16.5713H21V0.571289H-1Z" fill="#1A41FF"/>
<mask id="mask1_54_838" style="mask-type:luminance" maskUnits="userSpaceOnUse" x="-1" y="0" width="22" height="17">
<path fill-rule="evenodd" clip-rule="evenodd" d="M-1 0.571289V16.5713H21V0.571289H-1Z" fill="white"/>
</mask>
<g mask="url(#mask1_54_838)">
<mask id="mask2_54_838" style="mask-type:luminance" maskUnits="userSpaceOnUse" x="-1" y="0" width="22" height="17">
<rect x="-1" y="0.571289" width="22" height="16" fill="white"/>
</mask>
<g mask="url(#mask2_54_838)">
<path d="M-3.45123 15.4287L1.38993 17.4141L21.1083 2.73032L23.6619 -0.220005L18.485 -0.883575L10.4423 5.44407L3.96881 9.70743L-3.45123 15.4287Z" fill="white"/>
<path d="M-2.7879 16.8195L-0.321555 17.9717L22.7455 -0.494282H19.2824L-2.7879 16.8195Z" fill="#E51817"/>
<path d="M23.4492 15.4287L18.6081 17.4141L-1.11029 2.73032L-3.66389 -0.220005L1.51303 -0.883575L9.55567 5.44407L16.0292 9.70743L23.4492 15.4287Z" fill="white"/>
<path d="M23.2841 16.427L20.8177 17.5791L10.9955 9.67286L8.08347 8.78952L-3.90958 -0.209946H-0.446545L11.5398 8.57591L14.7236 9.63514L23.2841 16.427Z" fill="#E51817"/>
<mask id="path-9-inside-1_54_838" fill="white">
<path d="M12.5976 5.90527H22.3935V11.2383H12.5976V17.9053H7.40323V11.2383H-2.35654V5.90527H7.40323V-0.761719H12.5976V5.90527Z"/>
</mask>
<path d="M12.5976 5.90527H22.3935V11.2383H12.5976V17.9053H7.40323V11.2383H-2.35654V5.90527H7.40323V-0.761719H12.5976V5.90527Z" fill="#E51817"/>
<path d="M12.5976 5.90527H11.2642V7.23861H12.5976V5.90527ZM22.3935 5.90527H23.7268V4.57194H22.3935V5.90527ZM22.3935 11.2383V12.5716H23.7268V11.2383H22.3935ZM12.5976 11.2383V9.90495H11.2642V11.2383H12.5976ZM12.5976 17.9053V19.2386H13.9309V17.9053H12.5976ZM7.40323 17.9053H6.0699V19.2386H7.40323V17.9053ZM7.40323 11.2383H8.73656V9.90495H7.40323V11.2383ZM-2.35654 11.2383H-3.68987V12.5716H-2.35654V11.2383ZM-2.35654 5.90527V4.57194H-3.68987V5.90527H-2.35654ZM7.40323 5.90527V7.23861H8.73656V5.90527H7.40323ZM7.40323 -0.761719V-2.09505H6.0699V-0.761719H7.40323ZM12.5976 -0.761719H13.9309V-2.09505H12.5976V-0.761719ZM12.5976 5.90527V7.23861H22.3935V5.90527V4.57194H12.5976V5.90527ZM22.3935 5.90527H21.0601V11.2383H22.3935H23.7268V5.90527H22.3935ZM22.3935 11.2383V9.90495H12.5976V11.2383V12.5716H22.3935V11.2383ZM12.5976 11.2383H11.2642V17.9053H12.5976H13.9309V11.2383H12.5976ZM12.5976 17.9053V16.5719H7.40323V17.9053V19.2386H12.5976V17.9053ZM7.40323 17.9053H8.73656V11.2383H7.40323H6.0699V17.9053H7.40323ZM7.40323 11.2383V9.90495H-2.35654V11.2383V12.5716H7.40323V11.2383ZM-2.35654 11.2383H-1.0232V5.90527H-2.35654H-3.68987V11.2383H-2.35654ZM-2.35654 5.90527V7.23861H7.40323V5.90527V4.57194H-2.35654V5.90527ZM7.40323 5.90527H8.73656V-0.761719H7.40323H6.0699V5.90527H7.40323ZM7.40323 -0.761719V0.571615H12.5976V-0.761719V-2.09505H7.40323V-0.761719ZM12.5976 -0.761719H11.2642V5.90527H12.5976H13.9309V-0.761719H12.5976Z" fill="white" mask="url(#path-9-inside-1_54_838)"/>
</g>
</g>
</g>
</svg>
