<svg width="32" height="33" viewBox="0 0 32 33" fill="none" xmlns="http://www.w3.org/2000/svg">
<rect y="0.571289" width="32" height="32" rx="16" fill="#265AF4"/>
<path d="M27.1278 27.2373H27.1268V5.9043H27.1278V27.2373ZM13.2665 11.1211C14.5929 11.1407 15.5342 11.5255 16.0897 12.2822C16.4236 12.7462 16.5887 13.3006 16.5887 13.9453C16.5887 14.6139 16.4212 15.1464 16.0839 15.5508C15.8976 15.7791 15.6203 15.9856 15.2538 16.1719C15.8086 16.3765 16.2295 16.6941 16.5106 17.1357C16.7937 17.5733 16.9354 18.1076 16.9354 18.7314C16.9361 19.3791 16.7772 19.9595 16.452 20.4717C16.2448 20.8116 15.9886 21.0975 15.6805 21.3291C15.333 21.596 14.9222 21.7794 14.4501 21.877C13.9767 21.9758 13.4633 22.0244 12.912 22.0244H7.99988V11.1211H13.2665ZM21.0438 13.668C21.7231 13.668 22.3342 13.7888 22.8807 14.0312C23.4247 14.2765 23.8745 14.6615 24.2274 15.1885C24.5492 15.6539 24.7539 16.1912 24.8514 16.8057C24.907 17.1599 24.93 17.6775 24.9198 18.3535H19.2323C19.2641 19.1386 19.5349 19.6869 20.0497 20.002C20.3592 20.1991 20.7351 20.2949 21.1747 20.2949C21.6401 20.2949 22.0158 20.1783 22.3085 19.9385C22.4669 19.8112 22.6052 19.6298 22.7264 19.4023H24.8114C24.7572 19.8663 24.5064 20.3356 24.0546 20.8145C23.3569 21.5737 22.3765 21.9551 21.118 21.9551C20.0776 21.9551 19.1614 21.6319 18.3661 20.9932C17.5735 20.3523 17.1737 19.3092 17.1737 17.8643C17.1737 16.5102 17.5316 15.4721 18.2489 14.75C18.969 14.028 19.899 13.668 21.0438 13.668ZM10.5155 20.1309H12.8192C13.2926 20.1309 13.6589 20.0678 13.9237 19.9385C14.3999 19.7014 14.6405 19.2485 14.6405 18.5771C14.6405 18.0103 14.4093 17.6193 13.9462 17.4072C13.6874 17.288 13.3231 17.2281 12.8563 17.2227H10.5155V20.1309ZM21.0477 15.3486C20.5228 15.3486 20.1156 15.4999 19.827 15.7959C19.5379 16.0932 19.3576 16.4957 19.2831 17.0049H22.8026C22.7626 16.4639 22.5812 16.0522 22.2548 15.7725C21.9318 15.4902 21.5291 15.3487 21.0477 15.3486ZM10.5155 15.4189H12.8221C13.2955 15.4183 13.6801 15.3285 13.9755 15.1484C14.2701 14.9689 14.4169 14.6494 14.4169 14.1895C14.4169 13.6821 14.2228 13.3455 13.8319 13.1836C13.4959 13.0718 13.0657 13.0137 12.5448 13.0137H10.5155V15.4189ZM23.2245 12.6621H18.8339V11.5723H23.2245V12.6621Z" fill="white"/>
</svg>
