<svg width="32" height="33" viewBox="0 0 32 33" fill="none" xmlns="http://www.w3.org/2000/svg">
<rect y="0.571289" width="32" height="32" rx="16" fill="url(#paint0_linear_9_946)"/>
<path fill-rule="evenodd" clip-rule="evenodd" d="M13.2234 8.92028C9.42094 8.86438 6.26135 11.5905 6.26135 14.8057C6.26135 16.6616 7.15602 18.2716 8.88785 19.4537C8.88785 19.4537 8.25314 21.4974 8.26216 21.5383C8.27119 21.5794 8.40933 21.6599 8.45741 21.6336C8.50548 21.6073 10.7518 20.3003 10.7518 20.3003C12.3617 20.8394 13.3438 20.7068 13.5114 20.6841C13.523 20.6825 13.5307 20.6815 13.5344 20.6813C13.3626 20.1904 13.25 19.4262 13.3782 18.7058C14.0494 14.936 18.0055 13.7633 20.1736 13.9636C19.5749 11.2411 16.9743 8.97538 13.2234 8.92028ZM10.5804 12.0145C10.0816 12.0145 9.67735 12.4091 9.67735 12.8958C9.67735 13.3826 10.0816 13.7771 10.5804 13.7771C11.0792 13.7771 11.4836 13.3826 11.4836 12.8958C11.4836 12.4091 11.0792 12.0145 10.5804 12.0145ZM16.048 12.0145C15.5492 12.0145 15.1449 12.4091 15.1449 12.8958C15.1449 13.3826 15.5492 13.7771 16.048 13.7771C16.5468 13.7771 16.9511 13.3826 16.9511 12.8958C16.9511 12.4091 16.5469 12.0145 16.048 12.0145Z" fill="white"/>
<path fill-rule="evenodd" clip-rule="evenodd" d="M25.7396 19.2795C25.7396 16.525 23.0095 14.4153 19.8422 14.4153C16.4885 14.4153 13.8138 16.5727 13.8138 19.327C13.8138 22.0862 16.3579 24.3705 19.846 24.3892C20.5481 24.3931 21.5938 24.217 22.2989 23.9296C22.2989 23.9296 23.9845 24.9267 24.0789 24.9194C24.1732 24.912 24.2216 24.8391 24.2253 24.7765C24.2291 24.714 23.6883 23.1576 23.6883 23.1576C25.1356 22.0517 25.7396 20.8331 25.7396 19.2795ZM17.6348 16.7007C17.1935 16.7007 16.8358 17.0503 16.8358 17.4817C16.8358 17.913 17.1935 18.2627 17.6348 18.2627C18.0761 18.2627 18.4339 17.9131 18.4339 17.4817C18.4339 17.0503 18.0761 16.7007 17.6348 16.7007ZM21.9075 16.7007C21.4662 16.7007 21.1084 17.0503 21.1084 17.4817C21.1084 17.913 21.4662 18.2627 21.9075 18.2627C22.3489 18.2627 22.7066 17.9131 22.7066 17.4817C22.7066 17.0503 22.3489 16.7007 21.9075 16.7007Z" fill="white"/>
<defs>
<linearGradient id="paint0_linear_9_946" x1="16" y1="0.571289" x2="16" y2="32.5713" gradientUnits="userSpaceOnUse">
<stop stop-color="#36D474"/>
<stop offset="1" stop-color="#31CE6F"/>
</linearGradient>
</defs>
</svg>
