<svg width="32" height="33" viewBox="0 0 32 33" fill="none" xmlns="http://www.w3.org/2000/svg">
<g clip-path="url(#clip0_9_940)">
<rect x="0.00012207" y="0.570801" width="32" height="32" rx="6.85714" fill="url(#paint0_radial_9_940)"/>
<rect x="0.00012207" y="0.570801" width="32" height="32" rx="6.85714" fill="url(#paint1_radial_9_940)"/>
<rect x="0.00012207" y="0.570801" width="32" height="32" rx="6.85714" fill="url(#paint2_radial_9_940)"/>
<path d="M21.6001 12.1708C21.6001 12.8335 21.0629 13.3708 20.4001 13.3708C19.7374 13.3708 19.2001 12.8335 19.2001 12.1708C19.2001 11.5081 19.7374 10.9708 20.4001 10.9708C21.0629 10.9708 21.6001 11.5081 21.6001 12.1708Z" fill="white"/>
<path fill-rule="evenodd" clip-rule="evenodd" d="M16.0001 20.5708C18.2093 20.5708 20.0001 18.7799 20.0001 16.5708C20.0001 14.3617 18.2093 12.5708 16.0001 12.5708C13.791 12.5708 12.0001 14.3617 12.0001 16.5708C12.0001 18.7799 13.791 20.5708 16.0001 20.5708ZM16.0001 18.9708C17.3256 18.9708 18.4001 17.8963 18.4001 16.5708C18.4001 15.2453 17.3256 14.1708 16.0001 14.1708C14.6746 14.1708 13.6001 15.2453 13.6001 16.5708C13.6001 17.8963 14.6746 18.9708 16.0001 18.9708Z" fill="white"/>
<path fill-rule="evenodd" clip-rule="evenodd" d="M8.00012 16.2508C8.00012 13.5625 8.00012 12.2184 8.52329 11.1916C8.98348 10.2885 9.71779 9.55416 10.621 9.09397C11.6477 8.5708 12.9919 8.5708 15.6801 8.5708H16.3201C19.0084 8.5708 20.3525 8.5708 21.3793 9.09397C22.2825 9.55416 23.0168 10.2885 23.477 11.1916C24.0001 12.2184 24.0001 13.5625 24.0001 16.2508V16.8908C24.0001 19.5791 24.0001 20.9232 23.477 21.95C23.0168 22.8531 22.2825 23.5874 21.3793 24.0476C20.3525 24.5708 19.0084 24.5708 16.3201 24.5708H15.6801C12.9919 24.5708 11.6477 24.5708 10.621 24.0476C9.71779 23.5874 8.98348 22.8531 8.52329 21.95C8.00012 20.9232 8.00012 19.5791 8.00012 16.8908V16.2508ZM15.6801 10.1708H16.3201C17.6906 10.1708 18.6223 10.172 19.3425 10.2309C20.0439 10.2882 20.4027 10.3921 20.6529 10.5196C21.255 10.8264 21.7445 11.3159 22.0513 11.918C22.1788 12.1683 22.2827 12.527 22.34 13.2285C22.3989 13.9486 22.4001 14.8803 22.4001 16.2508V16.8908C22.4001 18.2613 22.3989 19.193 22.34 19.9131C22.2827 20.6146 22.1788 20.9733 22.0513 21.2236C21.7445 21.8257 21.255 22.3152 20.6529 22.622C20.4027 22.7495 20.0439 22.8534 19.3425 22.9107C18.6223 22.9696 17.6906 22.9708 16.3201 22.9708H15.6801C14.3096 22.9708 13.3779 22.9696 12.6578 22.9107C11.9563 22.8534 11.5976 22.7495 11.3474 22.622C10.7452 22.3152 10.2557 21.8257 9.9489 21.2236C9.8214 20.9733 9.71752 20.6146 9.6602 19.9131C9.60137 19.193 9.60012 18.2613 9.60012 16.8908V16.2508C9.60012 14.8803 9.60137 13.9486 9.6602 13.2285C9.71752 12.527 9.8214 12.1683 9.9489 11.918C10.2557 11.3159 10.7452 10.8264 11.3474 10.5196C11.5976 10.3921 11.9563 10.2882 12.6578 10.2309C13.3779 10.172 14.3096 10.1708 15.6801 10.1708Z" fill="white"/>
</g>
<defs>
<radialGradient id="paint0_radial_9_940" cx="0" cy="0" r="1" gradientUnits="userSpaceOnUse" gradientTransform="translate(11.4287 24.5708) rotate(-55.3758) scale(29.1653)">
<stop stop-color="#B13589"/>
<stop offset="0.79309" stop-color="#C62F94"/>
<stop offset="1" stop-color="#8A3AC8"/>
</radialGradient>
<radialGradient id="paint1_radial_9_940" cx="0" cy="0" r="1" gradientUnits="userSpaceOnUse" gradientTransform="translate(10.2858 33.7137) rotate(-65.1363) scale(25.822)">
<stop stop-color="#E0E8B7"/>
<stop offset="0.444662" stop-color="#FB8A2E"/>
<stop offset="0.71474" stop-color="#E2425C"/>
<stop offset="1" stop-color="#E2425C" stop-opacity="0"/>
</radialGradient>
<radialGradient id="paint2_radial_9_940" cx="0" cy="0" r="1" gradientUnits="userSpaceOnUse" gradientTransform="translate(-1.71416 1.71366) rotate(-8.1301) scale(44.4467 9.50669)">
<stop offset="0.156701" stop-color="#406ADC"/>
<stop offset="0.467799" stop-color="#6A45BE"/>
<stop offset="1" stop-color="#6A45BE" stop-opacity="0"/>
</radialGradient>
<clipPath id="clip0_9_940">
<rect y="0.571289" width="32" height="32" rx="16" fill="white"/>
</clipPath>
</defs>
</svg>
