<svg width="32" height="33" viewBox="0 0 32 33" fill="none" xmlns="http://www.w3.org/2000/svg">
<rect y="0.571289" width="32" height="32" rx="16" fill="url(#paint0_linear_9_934)"/>
<path d="M21.7012 11.8432C21.8081 11.1857 21.1516 10.6667 20.5377 10.9234L8.31111 16.0359C7.87089 16.22 7.9031 16.855 8.35967 16.9935L10.8811 17.7582C11.3623 17.9042 11.8834 17.8287 12.3037 17.5522L17.9884 13.8118C18.1598 13.699 18.3467 13.9311 18.2002 14.0749L14.1082 18.0929C13.7113 18.4827 13.7901 19.1431 14.2675 19.4283L18.849 22.1644C19.3628 22.4713 20.0239 22.163 20.12 21.5717L21.7012 11.8432Z" fill="white"/>
<defs>
<linearGradient id="paint0_linear_9_934" x1="16" y1="0.571289" x2="16" y2="32.5713" gradientUnits="userSpaceOnUse">
<stop stop-color="#3E86F5"/>
<stop offset="1" stop-color="#5998EC"/>
</linearGradient>
</defs>
</svg>
