<svg width="32" height="33" viewBox="0 0 32 33" fill="none" xmlns="http://www.w3.org/2000/svg">
<rect y="0.571289" width="32" height="32" rx="16" fill="url(#paint0_linear_9_936)"/>
<path d="M15.9996 8.5708C20.4179 8.5708 23.9996 12.1525 23.9996 16.5708C23.9996 20.9891 20.4179 24.5708 15.9996 24.5708C14.6162 24.5708 13.3145 24.2192 12.1793 23.6011L7.99963 24.5708L9.0387 20.5161C8.37739 19.3518 7.99963 18.0055 7.99963 16.5708C7.99963 12.1525 11.5814 8.5708 15.9996 8.5708ZM15.9996 9.80127C12.2611 9.80127 9.2301 12.8323 9.2301 16.5708C9.2301 18.0141 9.68201 19.352 10.4518 20.4507L9.84534 22.7251L12.1598 22.146C13.2509 22.8989 14.5737 23.3403 15.9996 23.3403C19.7382 23.3403 22.7692 20.3093 22.7692 16.5708C22.7692 12.8323 19.7382 9.80127 15.9996 9.80127ZM13.2233 12.5073C13.5179 12.5073 13.8095 12.4741 13.9996 12.856C14.1518 13.1616 14.3393 13.6862 14.5602 14.313C14.6115 14.4587 14.6972 14.6931 14.5895 14.8472C14.4817 15.0013 14.2411 15.3113 14.067 15.5122C14.0224 15.5637 13.9325 15.6816 14.0543 15.8735C14.2065 16.1134 14.2545 16.3826 15.0621 17.1655C15.7155 17.7989 16.5352 18.1643 16.8375 18.2856C16.9197 18.3322 17.1172 18.3942 17.2496 18.271C17.3821 18.1477 17.7694 17.5995 17.9645 17.4136C18.0343 17.3501 18.1465 17.2342 18.361 17.3198C18.5761 17.406 19.5221 17.8648 20.0348 18.1108C20.1176 18.1371 20.2378 18.2337 20.2379 18.4272C20.2379 18.8645 19.9279 20.1593 18.4235 20.186C16.9191 20.2127 15.1073 19.4257 13.7281 17.9048C12.2991 16.3288 11.8746 15.2754 11.8746 14.313C11.8747 13.1386 12.6965 12.5073 13.2233 12.5073Z" fill="white"/>
<defs>
<linearGradient id="paint0_linear_9_936" x1="16" y1="0.571289" x2="16" y2="32.5713" gradientUnits="userSpaceOnUse">
<stop stop-color="#60D076"/>
<stop offset="1" stop-color="#66DC7E"/>
</linearGradient>
</defs>
</svg>
