<svg width="32" height="33" viewBox="0 0 32 33" fill="none" xmlns="http://www.w3.org/2000/svg">
<path fill-rule="evenodd" clip-rule="evenodd" d="M16.3086 3.92846C16.9411 2.23918 19.232 1.60395 20.6003 2.95711L24.9557 7.2631C25.7883 8.08655 26.079 9.3105 25.681 10.4193L25.2005 11.7566C25.197 11.7666 25.1957 11.7734 25.1953 11.7761C25.1973 11.7807 25.2052 11.7939 25.224 11.81C25.2465 11.8293 25.273 11.8413 25.2969 11.8451C25.3151 11.848 25.3434 11.8485 25.3867 11.8282C26.3421 11.3817 27.4904 11.5704 28.2461 12.3178L28.7279 12.7943C30.0849 14.1366 30.0586 16.3033 28.6693 17.6121L21.1706 24.6746C21.3966 25.5085 21.1672 26.4362 20.487 27.0769L19.0886 28.3933C17.8483 29.5613 15.878 29.5366 14.6667 28.3386L13.8737 27.5548C13.5298 27.2146 12.7394 27.2189 12.3099 27.7943C11.3773 29.045 10.1098 30.3681 8.62371 31.0118C7.85867 31.343 7.0001 31.5089 6.09897 31.3529C5.19313 31.1962 4.34998 30.7323 3.59115 29.9818C2.83388 29.2329 2.36098 28.3965 2.21615 27.4897C2.0718 26.5855 2.27432 25.7363 2.64193 24.9949C3.35224 23.5627 4.75748 22.3719 6.06772 21.5079C6.34305 21.3263 6.51075 21.0463 6.5547 20.7735C6.59662 20.5129 6.52593 20.2885 6.35678 20.1212L5.56381 19.336C4.32924 18.1147 4.35296 16.1413 5.6172 14.9506L7.01563 13.6342C7.69429 12.9951 8.64748 12.807 9.48829 13.0639L12.5859 10.1459C14.2458 8.58254 15.5264 6.01905 16.3086 3.92846ZM8.7448 15.3412C8.70234 15.3408 8.67239 15.3561 8.65365 15.3738L7.25522 16.6902C6.97563 16.9537 6.97036 17.3679 7.2435 17.6381L8.03647 18.4233C9.62704 19.9964 8.99976 22.4365 7.38282 23.5027C6.18046 24.2955 5.20636 25.1989 4.78126 26.0561C4.58124 26.4595 4.52632 26.8053 4.57553 27.1134C4.62437 27.4188 4.79553 27.8138 5.27084 28.2839C5.74472 28.7526 6.16139 28.9391 6.50652 28.9988C6.8561 29.0592 7.23997 29.0073 7.67449 28.8191C8.58801 28.4234 9.54927 27.5007 10.3945 26.3673C11.5432 24.8269 14.009 24.3281 15.5534 25.8555L16.3464 26.6407C16.6432 26.9342 17.1467 26.9399 17.4505 26.6537L18.849 25.3373C18.8584 25.3283 18.8619 25.3221 18.8633 25.3191L18.8659 25.3126V25.3087C18.8659 25.3052 18.8647 25.3005 18.8633 25.297C18.862 25.2938 18.8582 25.2879 18.849 25.2787L8.83725 15.3751C8.81887 15.3569 8.78753 15.3417 8.7448 15.3412ZM18.7344 4.62508C18.6194 4.65256 18.5627 4.72018 18.5456 4.7657C17.7253 6.95813 16.2879 9.93912 14.2227 11.8842L11.3958 14.547L19.7096 22.7696L27.0313 15.8738C27.4363 15.4923 27.4438 14.8836 27.0482 14.4923L26.5664 14.0157C26.5509 14.0004 26.5259 13.9862 26.4922 13.9805C26.4587 13.9749 26.426 13.9795 26.3984 13.9923C24.4962 14.8817 22.1693 13.1323 22.9531 10.9493L23.4323 9.61206C23.5105 9.39417 23.4601 9.14451 23.2761 8.96232L18.9206 4.65503C18.8984 4.63327 18.8438 4.59908 18.7344 4.62508Z" fill="#007AFF"/>
</svg>
