<svg width="32" height="33" viewBox="0 0 32 33" fill="none" xmlns="http://www.w3.org/2000/svg">
<path fill-rule="evenodd" clip-rule="evenodd" d="M19.5662 4.50027C20.5026 3.71335 22.0374 3.39775 23.3878 4.18517C27.7939 6.7553 30.6729 11.5072 30.673 16.857C30.673 24.7772 24.281 31.5237 15.9841 31.5237C10.4192 31.5235 5.66936 28.4497 3.18858 24.0654C2.43903 22.7404 2.876 21.3243 3.74066 20.499C4.57544 19.7023 5.94313 19.3042 7.27451 19.8141C8.23652 20.1825 9.27646 20.3831 10.3657 20.3831C15.1029 20.383 19.277 16.4393 19.2771 11.1721C19.2771 9.9836 19.0598 8.85463 18.669 7.82189C18.1857 6.5441 18.6635 5.25894 19.5662 4.50027ZM21.8696 6.50678C21.5964 6.34777 21.2815 6.61847 21.3891 6.90392C21.4162 6.9755 21.4428 7.04782 21.4685 7.12006C21.7033 7.77867 21.8832 8.46426 22.0011 9.17085C22.0568 9.5047 22.0984 9.84381 22.1261 10.1865C22.1523 10.5114 22.1651 10.8404 22.1651 11.1721C22.165 17.7657 16.8826 23.1108 10.3657 23.1109C10.0436 23.1109 9.72418 23.0975 9.40863 23.0719C9.12312 23.0487 8.84038 23.015 8.56097 22.9716C7.82588 22.8575 7.11325 22.6747 6.42946 22.43C6.34892 22.4011 6.26831 22.372 6.18858 22.3414C5.89091 22.2276 5.58537 22.5127 5.73675 22.7802C5.78628 22.8678 5.83746 22.9545 5.8891 23.0406C6.26369 23.6653 6.69249 24.2531 7.17035 24.7958C7.43318 25.0943 7.7115 25.3795 8.00238 25.65C10.1032 27.6033 12.906 28.7957 15.9841 28.7958C22.5013 28.7958 27.7849 23.4508 27.7849 16.857C27.7849 13.8648 26.6971 11.1293 24.8995 9.03413C24.5882 8.6713 24.2553 8.32794 23.9034 8.00548C23.354 7.5021 22.7569 7.05038 22.1209 6.65782C22.0378 6.60659 21.9539 6.55599 21.8696 6.50678Z" fill="#007AFF"/>
<path d="M11.7003 9.98465C11.8949 9.88204 12.1281 9.88199 12.3227 9.98465L12.4477 10.0719C12.5522 10.1667 12.6011 10.2762 12.6183 10.3128C12.6515 10.3833 12.6847 10.4721 12.712 10.5458L13.1469 11.7216L14.3227 12.1565C14.3964 12.1838 14.4852 12.217 14.5558 12.2503C14.6044 12.2732 14.7826 12.3544 14.8839 12.5458L14.9412 12.6982C14.9668 12.8025 14.9667 12.9116 14.9412 13.0159L14.8839 13.1682L14.7966 13.2932C14.7019 13.3977 14.5923 13.4466 14.5558 13.4638C14.4853 13.497 14.3964 13.5303 14.3227 13.5576L13.1469 13.9912L12.712 15.1682C12.6847 15.2419 12.6515 15.3308 12.6183 15.4013C12.6011 15.4377 12.5522 15.5474 12.4477 15.6422L12.3227 15.7294L12.1703 15.7867C12.0137 15.8252 11.8462 15.8064 11.7003 15.7294C11.5087 15.6281 11.4276 15.4499 11.4047 15.4013C11.3715 15.3308 11.3383 15.242 11.311 15.1682L10.8774 13.9912L9.70029 13.5576C9.62654 13.5303 9.53778 13.4971 9.46722 13.4638C9.41861 13.4409 9.24043 13.3598 9.1391 13.1682C9.03646 12.9736 9.03643 12.7405 9.1391 12.5458C9.24044 12.3544 9.41863 12.2732 9.46722 12.2503C9.53776 12.217 9.62658 12.1838 9.70029 12.1565L10.8774 11.7216L11.311 10.5458C11.3383 10.4721 11.3715 10.3833 11.4047 10.3128C11.4277 10.2639 11.509 10.0859 11.7003 9.98465Z" fill="#007AFF"/>
<path d="M4.97113 2.25157C5.20495 2.12808 5.48472 2.12803 5.71852 2.25157L5.79404 2.29845C5.95727 2.41485 6.03828 2.58173 6.0766 2.66303C6.13083 2.77815 6.18648 2.92923 6.24457 3.08621L6.84092 4.69428L8.44899 5.29064C8.606 5.34873 8.75704 5.40436 8.87217 5.45861C8.96508 5.50239 9.17018 5.60228 9.28363 5.81668L9.32399 5.90652C9.39342 6.08933 9.39338 6.29141 9.32399 6.47423L9.28363 6.56407L9.23675 6.6396C9.12038 6.80279 8.95349 6.88382 8.87217 6.92215C8.75706 6.97638 8.60596 7.03203 8.44899 7.09012L6.84092 7.68517L6.24457 9.29454C6.18649 9.45148 6.13082 9.6026 6.0766 9.71772C6.03831 9.79897 5.95724 9.96587 5.79404 10.0823L5.71852 10.1292L5.62868 10.1695C5.41529 10.2506 5.17571 10.2373 4.97113 10.1292C4.75666 10.0157 4.65684 9.81063 4.61305 9.71772C4.55882 9.60259 4.50317 9.45152 4.44509 9.29454L3.85003 7.68517L2.24066 7.09012C2.08365 7.03202 1.93262 6.97639 1.81748 6.92215C1.72457 6.87836 1.51947 6.77854 1.40602 6.56407C1.2825 6.33024 1.28247 6.0505 1.40602 5.81668C1.51949 5.60233 1.72459 5.50238 1.81748 5.45861C1.9326 5.40438 2.08371 5.34871 2.24066 5.29064L3.85003 4.69428L4.44509 3.08621C4.50316 2.92925 4.55883 2.77813 4.61305 2.66303C4.65688 2.57004 4.75679 2.36495 4.97113 2.25157Z" fill="#007AFF"/>
</svg>
