<svg width="32" height="33" viewBox="0 0 32 33" fill="none" xmlns="http://www.w3.org/2000/svg">
<path fill-rule="evenodd" clip-rule="evenodd" d="M25.0039 2.93042C25.6596 2.0912 26.6836 2.08963 27.3424 2.351C28.0143 2.61769 28.7069 3.29646 28.707 4.30152V25.2963C28.707 26.3592 27.9301 27.0015 27.2852 27.2364C26.7054 27.4472 25.6651 27.5118 25.0143 26.6817L25.013 26.683L25.0117 26.6804C25.0099 26.6782 25.0069 26.674 25.0026 26.6687C24.9937 26.6578 24.9787 26.641 24.9596 26.6179C24.9213 26.5715 24.8635 26.5011 24.7865 26.4109C24.632 26.23 24.4025 25.9683 24.1107 25.6531C23.5255 25.021 22.6948 24.181 21.7109 23.3445C19.6768 21.6149 17.2489 20.1285 15.0807 20.1283H14.1107C14.1932 22.9082 14.561 24.5354 14.944 25.614C15.1628 26.23 15.3961 26.6945 15.6263 27.1414C15.7917 27.4624 15.9815 27.821 16.1393 28.2143L16.2852 28.6192V28.6218L16.3477 28.8757C16.3952 29.1326 16.3979 29.3968 16.3542 29.6557C16.2957 30.0007 16.1569 30.3284 15.9492 30.6101C15.7416 30.8916 15.4697 31.1203 15.1575 31.2781C14.9231 31.3964 14.6696 31.4729 14.4102 31.5033L14.1497 31.519H9.38671C8.93122 31.519 8.494 31.3371 8.17187 31.0151C7.84973 30.6929 7.66796 30.2558 7.66796 29.8002V20.1244C4.79354 20.0377 2.48965 17.6813 2.48958 14.7859C2.48979 11.8358 4.88192 9.44355 7.83203 9.44345H15.0807C17.7114 9.44331 20.1485 7.93654 22.0195 6.26246C22.9376 5.44094 23.6794 4.61543 24.1901 3.99553C24.4444 3.68687 24.6394 3.43047 24.7695 3.25464C24.8344 3.16692 24.8841 3.09833 24.9154 3.05412C24.9307 3.03242 24.9424 3.01575 24.9492 3.00595C24.9523 3.00138 24.9557 2.99553 24.9557 2.99553L24.957 2.99423C24.9718 2.97253 24.9878 2.95111 25.0039 2.93042ZM10.069 29.1179H13.9154C13.8191 28.8753 13.6867 28.6153 13.4935 28.2403C13.252 27.7715 12.9569 27.1907 12.6823 26.4174C12.1927 25.0386 11.7946 23.1344 11.7109 20.1283H10.069V29.1179ZM26.0417 5.52157C25.4751 6.20927 24.6512 7.12834 23.6211 8.05022C22.0398 9.46521 19.8652 10.9769 17.3164 11.575V18.0567C19.5856 18.6986 21.6894 20.1762 23.2656 21.5164C24.3411 22.4308 25.2418 23.3417 25.8724 24.0229C26.0355 24.1991 26.1809 24.3607 26.3073 24.5033V5.18954C26.2257 5.29245 26.1379 5.40479 26.0417 5.52157ZM7.83203 11.8445C6.20741 11.8446 4.89083 13.1613 4.89062 14.7859C4.89066 16.4106 6.20731 17.7285 7.83203 17.7286H8.84374C8.85176 17.7284 8.86043 17.7273 8.86848 17.7273C8.87676 17.7273 8.88499 17.7284 8.89322 17.7286H12.8698C12.8778 17.7284 12.8865 17.7273 12.8945 17.7273C12.9028 17.7273 12.911 17.7284 12.9193 17.7286H14.9167V11.8445H7.83203Z" fill="#007AFF"/>
</svg>
