<svg width="92" height="30" viewBox="0 0 92 30" fill="none" xmlns="http://www.w3.org/2000/svg">
<path d="M67.0876 18.4175C63.6579 14.9524 58.8562 11.8043 59.4642 5.86638C59.9007 1.58571 63.5747 -0.596195 67.5969 0.141494C70.334 0.643695 72.092 2.47405 72.8715 5.63261C72.8897 5.70404 72.8964 5.7776 72.8917 5.84872C72.8871 5.91989 72.8709 5.98706 72.8444 6.04603C72.8185 6.10504 72.7821 6.1546 72.7384 6.19164C72.6948 6.22863 72.6449 6.25232 72.5908 6.2612L69.4729 6.79629C69.4495 6.79982 69.424 6.7939 69.3996 6.77878C69.3747 6.76371 69.3508 6.73976 69.3294 6.70833C69.3076 6.67691 69.2884 6.63867 69.2728 6.59581C69.2572 6.55295 69.2458 6.5063 69.239 6.45861C68.4959 1.31556 62.1976 3.00913 63.398 8.0275C64.4426 12.3809 69.8314 14.729 72.1647 18.9889C74.5915 23.4203 72.4817 29.5867 67.0253 29.9764C62.3847 30.3088 59.2875 27.0983 59.0589 22.5423C59.0563 22.5006 59.0609 22.4587 59.0729 22.419C59.0854 22.3794 59.1046 22.3428 59.1306 22.3115C59.156 22.2801 59.1872 22.2545 59.222 22.2361C59.2574 22.2178 59.2953 22.2071 59.3343 22.2047L62.3535 21.9969C62.4096 21.9922 62.4673 22.0242 62.5151 22.0862C62.5624 22.1481 62.5957 22.2352 62.6082 22.3293C63.7098 30.6569 73.6717 25.0619 67.0876 18.4175Z" fill="#3C3C43" fill-opacity="0.25"/>
<path d="M9.57585 19.872C9.49618 19.5187 9.35239 19.4997 9.14453 19.8149L3.27236 28.7555C3.21401 28.8462 3.13478 28.918 3.0514 28.9558C2.96801 28.9936 2.88699 28.9944 2.82545 28.9581C1.68219 28.3104 0.885374 27.365 0.435002 26.1216C0.419427 26.0792 0.430476 26.0078 0.46668 25.9169C0.502883 25.8259 0.562525 25.7198 0.63767 25.6125L7.90773 15.0822C7.94624 15.026 7.96869 14.947 7.97321 14.8519C7.97773 14.7569 7.96417 14.6487 7.93371 14.5367L4.32207 0.759611C4.31015 0.715817 4.30575 0.669945 4.30921 0.62558C4.31266 0.581215 4.32388 0.539551 4.34198 0.503861C4.36009 0.468119 4.38459 0.439339 4.41359 0.419754C4.44258 0.400169 4.47529 0.390247 4.50915 0.390766H8.53652C8.62185 0.391026 8.70442 0.420014 8.77058 0.472899C8.83673 0.525836 8.88251 0.599502 8.90028 0.681687L11.0465 10.2509C11.1296 10.6284 11.2734 10.6596 11.4778 10.3444L17.4123 1.21158C17.452 1.14893 17.5154 1.10466 17.5891 1.08819C17.6628 1.07173 17.741 1.0843 17.8073 1.12326C18.9401 1.79518 19.7058 2.76145 20.1042 4.02207C20.1252 4.08883 20.1235 4.17117 20.099 4.26182C20.0745 4.35247 20.0281 4.44858 19.9639 4.54157L12.7666 15.0199C12.7209 15.0869 12.6894 15.161 12.6742 15.2371C12.6589 15.3132 12.6603 15.3897 12.6782 15.4615L16.0872 28.9581C16.1068 29.0363 16.1115 29.118 16.1009 29.1968C16.0903 29.2755 16.0647 29.3493 16.026 29.4125C15.9874 29.4757 15.9368 29.5266 15.878 29.5613C15.8193 29.596 15.7539 29.6136 15.6871 29.6126H12.0442C11.9683 29.6131 11.891 29.5741 11.8257 29.5021C11.7603 29.4302 11.7109 29.3297 11.6857 29.2178L9.57585 19.872Z" fill="#3C3C43" fill-opacity="0.25"/>
<path d="M28.6894 25.8462H35.923C35.9989 25.8462 36.0716 25.8763 36.1251 25.9299C36.1788 25.9835 36.2089 26.0562 36.2089 26.132V29.3269C36.2089 29.4027 36.1788 29.4754 36.1251 29.5289C36.0716 29.5825 35.9989 29.6126 35.923 29.6126H24.8023C24.7648 29.6126 24.7276 29.6052 24.6929 29.5908C24.6582 29.5765 24.6268 29.5555 24.6002 29.5289C24.5466 29.4754 24.5165 29.4027 24.5165 29.3269V0.676472C24.5165 0.638964 24.5239 0.60182 24.5383 0.567117C24.5526 0.532467 24.5736 0.500985 24.6002 0.474439C24.6268 0.447892 24.6582 0.426853 24.6929 0.412514C24.7276 0.398124 24.7648 0.390747 24.8023 0.390747H28.1333C28.2091 0.390747 28.2818 0.420826 28.3354 0.474439C28.389 0.527999 28.4191 0.600677 28.4191 0.676472L28.4035 25.5605C28.4035 25.6363 28.4336 25.709 28.4873 25.7625C28.5408 25.8162 28.6135 25.8462 28.6894 25.8462Z" fill="#3C3C43" fill-opacity="0.25"/>
<path d="M45.178 22.9319L44.1543 29.41C44.1457 29.466 44.1174 29.5172 44.0746 29.5542C44.0318 29.5913 43.9771 29.6121 43.9204 29.6126H40.4387C40.4035 29.6132 40.3686 29.6059 40.3365 29.5914C40.3044 29.5768 40.2759 29.5554 40.2531 29.5286C40.2302 29.5018 40.2136 29.4703 40.2043 29.4363C40.1951 29.4023 40.1935 29.3668 40.1997 29.3321L45.1053 0.588186C45.1151 0.532236 45.1446 0.481637 45.1884 0.44548C45.2322 0.409271 45.2875 0.389893 45.3443 0.390776H50.5357C50.5916 0.39114 50.6456 0.411089 50.6884 0.447142C50.7311 0.483196 50.7599 0.533119 50.7696 0.588186L55.5973 29.3321C55.6035 29.3663 55.602 29.4015 55.5926 29.4351C55.5838 29.4687 55.5677 29.4999 55.5453 29.5266C55.523 29.5534 55.4954 29.5749 55.4637 29.5897C55.4326 29.6046 55.3983 29.6124 55.3634 29.6126H51.8505C51.7929 29.6133 51.737 29.5932 51.6931 29.556C51.6492 29.5187 51.6202 29.4669 51.6114 29.41L50.6656 22.9319C50.6569 22.8749 50.6279 22.8231 50.584 22.7859C50.54 22.7487 50.4842 22.7286 50.4266 22.7293H45.4119C45.3552 22.7298 45.3006 22.7505 45.2577 22.7876C45.2149 22.8247 45.1867 22.8758 45.178 22.9319ZM48.0725 5.07666C47.9616 4.29741 47.8543 4.29222 47.7503 5.06108L45.8536 18.7083C45.8471 18.7568 45.8481 18.806 45.8565 18.8526C45.8649 18.8992 45.8804 18.9421 45.902 18.9785C45.9237 19.0149 45.951 19.0439 45.982 19.0636C46.0131 19.0834 46.0473 19.0933 46.0822 19.0928H49.7199C49.7585 19.0927 49.7964 19.0822 49.8309 19.0619C49.8654 19.0415 49.8957 19.0119 49.9198 18.975C49.944 18.9381 49.9613 18.8947 49.9708 18.8478C49.9802 18.8009 49.9815 18.7516 49.9745 18.7031L48.0725 5.07666Z" fill="#3C3C43" fill-opacity="0.25"/>
<path d="M87.8685 0.390747H91.2514C91.2987 0.390747 91.3434 0.409345 91.3767 0.442489C91.4099 0.475581 91.4281 0.520518 91.4281 0.567377L91.4177 29.436C91.4177 29.4592 91.4136 29.4822 91.4047 29.5036C91.3959 29.525 91.3824 29.5445 91.3663 29.5609C91.3497 29.5773 91.3304 29.5903 91.3091 29.5992C91.2873 29.608 91.2644 29.6126 91.2411 29.6126L87.884 29.6178C87.8373 29.6178 87.7926 29.5992 87.7593 29.5661C87.7261 29.533 87.7074 29.488 87.7074 29.4412L87.7905 17.0563C87.7905 17.0094 87.7723 16.9645 87.7391 16.9314C87.7224 16.915 87.7032 16.902 87.6819 16.8931C87.6601 16.8842 87.6372 16.8797 87.6138 16.8797L81.5961 16.8901C81.5733 16.8901 81.5504 16.8946 81.5286 16.9035C81.5073 16.9124 81.488 16.9254 81.4714 16.9418C81.4548 16.9582 81.4418 16.9776 81.433 16.9991C81.4241 17.0205 81.4195 17.0435 81.4195 17.0667V29.436C81.4195 29.4592 81.4153 29.4822 81.4065 29.5036C81.3976 29.525 81.3841 29.5445 81.368 29.5609C81.3514 29.5773 81.3321 29.5903 81.3108 29.5992C81.289 29.608 81.2662 29.6126 81.2428 29.6126H77.9481C77.9013 29.6126 77.8567 29.594 77.8234 29.5609C77.7901 29.5278 77.7714 29.4828 77.7714 29.436L77.7766 0.567377C77.7766 0.520518 77.7953 0.475581 77.8286 0.442489C77.8618 0.409345 77.9065 0.390747 77.9533 0.390747H81.2584C81.3056 0.390747 81.3503 0.409345 81.3836 0.442489C81.4169 0.475581 81.435 0.520518 81.435 0.567377L81.4091 12.9834C81.4091 13.0066 81.4137 13.0296 81.4226 13.051C81.4314 13.0725 81.4444 13.0919 81.461 13.1083C81.4777 13.1247 81.4969 13.1377 81.5182 13.1466C81.54 13.1555 81.5629 13.1601 81.5857 13.1601L87.4839 13.1029C87.5312 13.1029 87.5759 13.0843 87.6091 13.0512C87.6424 13.0181 87.6606 12.9731 87.6606 12.9263L87.6918 0.567377C87.6918 0.520518 87.7105 0.475581 87.7437 0.442489C87.777 0.409345 87.8217 0.390747 87.8685 0.390747Z" fill="#3C3C43" fill-opacity="0.25"/>
</svg>
