<svg width="41" height="40" viewBox="0 0 41 40" fill="none" xmlns="http://www.w3.org/2000/svg">
<g clip-path="url(#clip0_80_8722)">
<path d="M21.5352 0.0114746C22.5421 0.0406935 24.0159 0.201412 24.8184 0.362061C25.621 0.522724 26.8759 0.857981 27.5909 1.12085C28.3058 1.36911 29.3272 1.79252 29.8526 2.05542C30.3779 2.31831 31.4288 2.94659 32.1876 3.45776C33.0193 4.01276 34.1863 4.99179 35.1202 5.91187C36.0395 6.84656 37.0178 8.00035 37.5723 8.84741C38.083 9.60687 38.7396 10.7606 39.046 11.4031C39.3524 12.0457 39.7753 13.0975 39.9796 13.74C40.1984 14.3826 40.4762 15.4344 40.6221 16.0769C40.8117 16.9823 40.8701 17.9172 40.8555 20.239C40.8409 23.1161 40.8255 23.3063 40.3878 24.9128C40.1397 25.8329 39.702 27.1474 39.4102 27.8337C39.1184 28.5201 38.6229 29.4984 38.3165 30.0242C38.01 30.5499 37.3673 31.4997 36.8858 32.1423C36.4189 32.7848 35.4709 33.8357 34.7999 34.4783C34.1141 35.1209 32.9464 36.0706 32.1876 36.5818C31.4288 37.093 30.3779 37.7212 29.8526 37.9841C29.3272 38.247 28.3058 38.6704 27.5909 38.9187C26.8759 39.1816 25.621 39.5179 24.8184 39.6931C23.6657 39.9414 22.8482 39.9998 20.9512 39.9998C19.0544 39.9998 18.2368 39.9414 17.084 39.6931C16.2815 39.5178 15.0265 39.1816 14.3116 38.9187C13.5967 38.6704 12.5467 38.2323 11.9776 37.9548C11.4086 37.6774 10.4017 37.0785 9.71588 36.6257C9.03005 36.173 7.80349 35.1506 6.97174 34.3328C6.14001 33.5295 5.07527 32.317 4.57916 31.6306C4.09762 30.9442 3.39698 29.7612 3.00299 29.0017C2.62361 28.2423 2.17125 27.1905 1.99615 26.6648C1.80648 26.139 1.54343 25.1901 1.39752 24.5476C1.23701 23.905 1.04758 22.6925 0.960022 21.8455C0.857883 20.9838 0.828425 19.7132 0.88678 18.9246C0.930556 18.1651 1.10609 16.9086 1.25201 16.1492C1.41254 15.3897 1.70406 14.236 1.92291 13.5935C2.14179 12.9509 2.62361 11.7973 3.00299 11.0378C3.38239 10.2784 4.09762 9.09537 4.57916 8.40894C5.07529 7.72252 6.14002 6.51004 6.97174 5.70679C7.80349 4.88891 9.03005 3.86657 9.71588 3.41382C10.4017 2.9611 11.4086 2.36216 11.9776 2.08472C12.5468 1.80722 13.5536 1.38373 14.2393 1.1355C14.925 0.901885 15.975 0.595098 16.5733 0.463623C17.1716 0.31758 18.1204 0.15677 18.6895 0.0837402C19.2586 0.0107156 20.5284 -0.0177353 21.5352 0.0114746ZM20.7325 1.58862C19.9302 1.58864 18.8801 1.64747 18.3985 1.72046C17.917 1.79348 17.0261 1.96801 16.4278 2.12866C15.8295 2.27474 14.8081 2.61088 14.1661 2.85913C13.524 3.10744 12.4731 3.60439 11.8311 3.96948C11.189 4.33467 10.1822 5.02074 9.58405 5.47339C8.98577 5.92616 8.00845 6.8318 7.41022 7.47437C6.81194 8.11698 5.97987 9.16866 5.5567 9.81128C5.13363 10.4538 4.57917 11.4027 4.31647 11.9285C4.05382 12.4542 3.63083 13.5354 3.35358 14.3386C3.09092 15.1419 2.77012 16.4857 2.65338 17.3328C2.52205 18.1798 2.41998 19.3923 2.41998 20.0349C2.42001 20.6776 2.52207 21.8901 2.65338 22.7371C2.77018 23.5842 3.10568 24.9565 3.38287 25.8035C3.67472 26.6506 4.18506 27.8924 4.54987 28.5789C4.90008 29.2653 5.6007 30.3749 6.11139 31.0613C6.63671 31.7477 7.60031 32.8142 8.27155 33.4568C8.94279 34.0848 10.0222 34.9464 10.6641 35.3699C11.3061 35.7934 12.2255 36.3335 12.7071 36.5818C13.1886 36.8154 14.0785 37.1957 14.6768 37.4148C15.2751 37.6193 16.3259 37.926 17.0118 38.0867C17.6976 38.2473 19.1135 38.4081 20.1495 38.4519C21.5355 38.5103 22.4693 38.4807 23.5782 38.3054C24.4245 38.174 25.6648 37.8966 26.3506 37.6921C27.0364 37.4731 28.0873 37.079 28.6856 36.8015C29.2839 36.524 30.4368 35.8664 31.2393 35.3406C32.1002 34.7564 33.2384 33.8216 34.0118 33.033C34.7268 32.3173 35.6902 31.1931 36.128 30.5505C36.5658 29.9079 37.1928 28.8268 37.5284 28.1404C37.8639 27.4541 38.2721 26.4758 38.4327 25.95C38.6078 25.4242 38.8413 24.6057 38.9581 24.1238C39.0748 23.6417 39.2504 22.4881 39.338 21.5681C39.4401 20.3706 39.4401 19.4505 39.338 18.3552C39.2504 17.5081 39.0748 16.427 38.9581 15.9451C38.8413 15.4631 38.6077 14.6455 38.4327 14.1199C38.2722 13.5941 37.8346 12.5864 37.4844 11.8562C37.1197 11.1261 36.5073 10.0744 36.1133 9.51929C35.7339 8.9643 34.9894 8.044 34.4932 7.48901C33.9825 6.93403 33.0484 6.07249 32.4063 5.57593C31.7643 5.07937 30.8449 4.43637 30.3633 4.14429C29.8818 3.86679 29.0358 3.41401 28.4669 3.16577C27.8978 2.91749 26.9195 2.5529 26.2774 2.36304C25.6353 2.1586 24.4539 1.90955 23.6514 1.79272C22.8489 1.67589 21.5351 1.58862 20.7325 1.58862Z" fill="#3C3C43" fill-opacity="0.25"/>
<path d="M21.4473 12.0017C21.5203 7.57639 21.6078 3.91055 21.6516 3.85213C21.71 3.77911 21.7975 3.77911 21.8559 3.85213C21.9143 3.91055 22.4834 7.18206 24.2782 18.2818L23.9718 18.5009C23.8112 18.6177 23.1546 19.0121 21.3452 20.0344L21.4473 12.0017Z" fill="#3C3C43" fill-opacity="0.25"/>
<path d="M19.2877 12.2938C19.8276 9.32898 20.3237 6.80233 20.3967 6.7147V6.70009C20.4842 6.61247 20.5864 6.52484 20.6447 6.52484C20.6885 6.52484 20.4405 9.29977 20.0902 12.7027C19.74 16.0911 19.419 18.8806 19.3898 18.9098C19.3606 18.9244 19.0834 18.8076 18.7624 18.6469C18.2808 18.4133 18.1933 18.2964 18.2516 18.0335C18.2808 17.8437 18.7624 15.2586 19.2877 12.2938Z" fill="#3C3C43" fill-opacity="0.25"/>
<path d="M20.3821 16.2517C20.528 14.4845 20.6447 12.9218 20.6447 12.7757C20.6593 12.6443 20.7177 12.5275 20.8053 12.5275C20.8928 12.5275 20.9512 13.8419 20.9512 16.1787C20.9512 18.9975 20.9074 19.8299 20.7615 19.8299C20.6739 19.8299 20.4842 19.7569 20.3529 19.6547C20.134 19.4794 20.134 19.2019 20.3821 16.2517Z" fill="#3C3C43" fill-opacity="0.25"/>
<path d="M11.2036 24.1822C12.9109 22.7947 15.0997 21.0275 16.0628 20.2389C17.0259 19.4502 17.8576 18.8076 17.916 18.8076C17.989 18.8076 18.237 18.9244 18.4705 19.0559C18.7186 19.2019 18.9083 19.3772 18.9083 19.4648C18.9083 19.5524 16.5589 21.232 13.6843 23.2037C10.8242 25.1899 8.38733 26.7819 8.28519 26.7527C8.19763 26.7235 9.51093 25.5697 11.2036 24.1822Z" fill="#3C3C43" fill-opacity="0.25"/>
<path d="M23.3005 19.5378C23.2859 19.494 23.5048 19.3188 23.7675 19.1435C24.0155 18.9682 24.249 18.8222 24.2636 18.8222C24.2928 18.8076 26.4378 20.604 29.0498 22.7801C31.6618 24.9709 33.7923 26.8695 33.7923 26.9864C33.7777 27.1762 33.7631 27.1762 33.6026 26.9718C33.5004 26.8403 33.3545 26.7089 33.2524 26.6797C33.1648 26.6504 30.8884 25.0439 28.1889 23.116C25.5039 21.1882 23.3005 19.5817 23.3005 19.5378Z" fill="#3C3C43" fill-opacity="0.25"/>
<path d="M17.8139 21.7724C17.7701 21.6994 18.2079 21.2466 18.777 20.7647C19.7692 19.903 19.8276 19.8738 20.1632 20.0782C20.3675 20.2097 20.528 20.3411 20.5134 20.3995C20.5134 20.4433 20.2945 20.6186 20.0319 20.7647C19.7838 20.9253 19.1855 21.232 18.7186 21.4657C18.2662 21.6848 17.8576 21.8308 17.8139 21.7724Z" fill="#3C3C43" fill-opacity="0.25"/>
<path d="M21.8267 20.5894C21.7829 20.5602 21.9143 20.4141 22.0894 20.2535C22.2937 20.0928 22.5125 20.0198 22.6293 20.0928C22.7422 20.1493 24.2335 21.1484 26.0078 22.3369L26.1898 22.4588C28.043 23.7002 29.5606 24.7664 29.5606 24.8394C29.5606 24.8979 29.4438 24.9125 29.2979 24.8832C29.1666 24.854 27.4447 23.8901 25.4748 22.7363C23.5048 21.5971 21.8705 20.6332 21.8267 20.5894Z" fill="#3C3C43" fill-opacity="0.25"/>
<path d="M13.086 25.0147C16.7049 22.9262 19.8714 21.1006 20.1194 20.9691C20.3821 20.8377 20.6302 20.7208 20.6885 20.7062C20.7615 20.7062 20.8053 21.4803 20.8053 24.1384L15.0122 26.1685C11.8165 27.2931 8.59162 28.4176 7.84742 28.6951C6.94271 29.0164 6.50494 29.1187 6.50494 29.0018C6.50494 28.8996 9.46715 27.1032 13.086 25.0147Z" fill="#3C3C43" fill-opacity="0.25"/>
<path d="M21.3889 23.9923V22.4296C21.3889 21.2612 21.4327 20.8523 21.5641 20.8523C21.6662 20.8523 24.9203 22.7509 28.8018 25.0585C32.6833 27.3661 35.8498 29.2939 35.8352 29.367C35.8352 29.4254 35.6163 29.3816 35.3536 29.2793C35.1056 29.1625 31.8515 27.9357 21.3889 23.9923Z" fill="#3C3C43" fill-opacity="0.25"/>
</g>
<defs>
<clipPath id="clip0_80_8722">
<rect width="40" height="40" fill="white" transform="translate(0.857178)"/>
</clipPath>
</defs>
</svg>
