<svg width="136" height="36" viewBox="0 0 136 36" fill="none" xmlns="http://www.w3.org/2000/svg">
<path d="M12.9255 8.73074C12.9123 12.8941 12.9123 17.0575 12.9255 21.221C12.9503 29.1264 20.4114 30.3972 26.6011 30.1134C26.8326 30.1025 26.8552 30.1663 26.669 30.3048C22.6516 33.2772 17.3165 34.0644 12.5585 32.4718C3.47565 29.4335 -0.657434 18.8081 3.89392 10.353C9.29503 0.320242 23.1492 -0.528052 30.0019 8.50293C30.0716 8.595 30.1093 8.70683 30.1093 8.82143C30.1093 13.6088 30.1081 18.4158 30.106 23.2428C30.1044 25.7976 29.4711 27.892 26.6457 28.4118C24.781 28.7551 22.8383 28.6098 21.162 27.7731C18.3597 26.3752 17.5265 23.6834 17.51 20.6796C17.4868 16.7065 17.5022 12.7324 17.5563 8.7571C17.5565 8.7414 17.5531 8.7258 17.5464 8.71113C17.5396 8.69654 17.5297 8.68325 17.5172 8.67213C17.5045 8.66086 17.4896 8.652 17.4729 8.64591C17.4565 8.63982 17.4387 8.63668 17.4207 8.63668H12.9983C12.979 8.63668 12.9605 8.64656 12.9468 8.66414C12.9332 8.68186 12.9255 8.70582 12.9255 8.73074Z" fill="#3C3C43" fill-opacity="0.25"/>
<path d="M37.8576 26.9102L48.8531 26.9679C48.8614 26.9679 48.8693 26.9694 48.8767 26.9726C48.8841 26.9756 48.891 26.9801 48.8965 26.9858C48.9021 26.9915 48.9067 26.9982 48.9099 27.0057C48.9127 27.013 48.9146 27.021 48.9146 27.029V28.3395C48.9146 28.3555 48.9081 28.3711 48.8965 28.3826C48.885 28.394 48.8693 28.4005 48.8531 28.4005H36.244C36.236 28.4005 36.228 28.3989 36.2206 28.3958C36.2131 28.3928 36.2064 28.3882 36.2008 28.3826C36.195 28.3769 36.1906 28.3702 36.1875 28.3628C36.1844 28.3554 36.1829 28.3474 36.1829 28.3395L36.1845 8.41068C36.1845 8.39448 36.191 8.37893 36.2024 8.36753C36.2139 8.35613 36.2294 8.34967 36.2456 8.34967L37.7352 8.34473C37.7515 8.34473 37.767 8.35105 37.7785 8.36259C37.79 8.37399 37.7965 8.38954 37.7965 8.40574V26.849C37.7965 26.8652 37.8028 26.8808 37.8144 26.8922C37.8257 26.9037 37.8414 26.9102 37.8576 26.9102Z" fill="#3C3C43" fill-opacity="0.25"/>
<path d="M116.349 10.779C117.021 10.779 117.565 10.2351 117.565 9.56424C117.565 8.89349 117.021 8.34961 116.349 8.34961C115.677 8.34961 115.132 8.89349 115.132 9.56424C115.132 10.2351 115.677 10.779 116.349 10.779Z" fill="#3C3C43" fill-opacity="0.25"/>
<path d="M131.563 10.4933L131.568 10.0806C131.568 10.0604 131.573 10.0402 131.58 10.0216C131.588 10.003 131.598 9.98641 131.61 9.97284C131.623 9.95932 131.638 9.94908 131.655 9.94285C131.671 9.93675 131.687 9.93472 131.704 9.93717L132.354 10.0262C132.371 10.0288 132.389 10.0458 132.404 10.0744C132.419 10.1029 132.432 10.1413 132.439 10.1831C132.516 10.6764 131.931 10.5741 131.655 10.5775C131.643 10.5776 131.631 10.5756 131.62 10.5716C131.609 10.5674 131.599 10.5612 131.59 10.5535C131.582 10.5456 131.575 10.5362 131.571 10.5259C131.566 10.5156 131.563 10.5044 131.563 10.4933Z" fill="white"/>
<path d="M66.0305 15.7334C66.0273 15.8599 66.0629 15.8692 66.1378 15.7613C67.3204 14.0692 68.9677 13.3358 71.0796 13.5614C72.7241 13.7374 73.8827 14.5604 74.5563 16.0304C74.5794 16.0799 74.6058 16.0826 74.6354 16.0387C75.5711 14.6688 76.5369 13.7247 78.2679 13.5663C81.065 13.3111 82.7895 14.3497 83.4409 16.6823C83.5962 17.239 83.6739 18.078 83.6739 19.1992C83.6739 22.2359 83.673 25.2721 83.6721 28.3078C83.6721 28.3322 83.6637 28.3558 83.6485 28.3731C83.6332 28.3905 83.6124 28.4001 83.5911 28.4001H82.2684C82.2481 28.4001 82.2291 28.3885 82.2148 28.3678C82.2005 28.3471 82.1926 28.319 82.1926 28.2896C82.1847 25.024 82.1847 21.7605 82.1926 18.4994C82.1991 16.2119 81.0451 14.7331 78.653 14.88C76.1897 15.0302 74.9447 17.1824 74.9183 19.4979C74.8832 22.4356 74.867 25.3723 74.8702 28.3078C74.8702 28.3322 74.8615 28.3558 74.8462 28.3731C74.8305 28.3905 74.8097 28.4001 74.7875 28.4001H73.4652C73.444 28.4001 73.4236 28.3904 73.4084 28.3731C73.3931 28.3558 73.3843 28.3324 73.3839 28.3078C73.3806 25.106 73.3792 21.9048 73.3792 18.7041C73.3792 16.4843 72.4814 14.7248 70.0001 14.8767C67.6505 15.0219 66.0883 17.245 66.0536 19.4897C66.0097 22.4164 66.0125 25.3442 66.062 28.2731C66.062 28.2898 66.0601 28.3064 66.0564 28.3219C66.0527 28.3373 66.0472 28.3514 66.0398 28.3633C66.0324 28.3751 66.024 28.3844 66.0143 28.3908C66.0046 28.3971 65.9945 28.4004 65.9843 28.4001H64.6616C64.65 28.4001 64.638 28.3981 64.6273 28.3939C64.6167 28.3898 64.6065 28.3837 64.5987 28.3761C64.5899 28.3683 64.5834 28.3592 64.5793 28.3492C64.5746 28.3392 64.5723 28.3285 64.5723 28.3177V13.9592C64.5723 13.9384 64.5816 13.9185 64.5987 13.9037C64.6153 13.8889 64.638 13.8804 64.6616 13.8799L65.9843 13.8452C65.9968 13.8449 66.0092 13.8476 66.0208 13.8533C66.0324 13.8589 66.043 13.8672 66.0518 13.878C66.0606 13.8886 66.0675 13.9013 66.0721 13.9152C66.0767 13.9291 66.0786 13.9441 66.0786 13.9592L66.0305 15.7334Z" fill="#3C3C43" fill-opacity="0.25"/>
<path d="M90.7991 28.6313C84.5152 27.6774 84.2211 18.2931 88.144 14.8406C88.9521 14.1287 89.978 13.7095 91.2226 13.5829C96.1871 13.0762 98.723 16.8673 98.3993 21.3746C98.3975 21.3984 98.3869 21.4205 98.3693 21.4369C98.3517 21.4531 98.3286 21.4621 98.305 21.4619L87.1869 21.5082C87.1615 21.5085 87.1375 21.5166 87.1199 21.5308C87.1019 21.545 87.0917 21.5641 87.0912 21.5841C87.0547 24.8519 89.156 27.7781 92.7386 27.3506C95.0428 27.0751 96.4631 25.428 96.8797 23.2411C96.8834 23.2202 96.8959 23.2013 96.9143 23.1879C96.9333 23.1745 96.9573 23.1676 96.9823 23.1685L98.2204 23.2131C98.2329 23.2135 98.2459 23.2156 98.2574 23.2194C98.269 23.2233 98.2791 23.2287 98.2879 23.2354C98.2962 23.2421 98.3027 23.2498 98.3069 23.2582C98.311 23.2667 98.3124 23.2754 98.3115 23.284C97.7891 27.2715 94.6018 29.209 90.7991 28.6313ZM87.1902 20.1516C90.5495 20.0509 93.7848 20.2044 96.8552 20.1201C96.8658 20.1201 96.8764 20.1177 96.8861 20.1132C96.8963 20.1087 96.9051 20.1024 96.9125 20.0946C96.9199 20.0866 96.9254 20.0774 96.9287 20.0673C96.9324 20.0572 96.9338 20.0466 96.9328 20.0361C96.397 13.0483 87.7011 13.3156 87.1139 20.0707C87.1134 20.0811 87.1144 20.0917 87.1181 20.1015C87.1213 20.1114 87.1268 20.1206 87.1342 20.1281C87.1412 20.1357 87.15 20.1418 87.1597 20.1459C87.1694 20.1499 87.1796 20.1518 87.1902 20.1516Z" fill="#3C3C43" fill-opacity="0.25"/>
<path d="M102.303 16.095C102.303 16.1565 102.32 16.1616 102.354 16.1098C103.853 13.8125 106.391 13.1177 109.028 13.7646C111.589 14.3951 112.389 16.5389 112.394 18.9419C112.402 22.0634 112.402 25.1854 112.396 28.308C112.396 28.3325 112.387 28.356 112.373 28.3734C112.357 28.3907 112.337 28.4003 112.316 28.4003H111.035C111.014 28.4003 110.994 28.389 110.98 28.3685C110.965 28.3481 110.957 28.3203 110.957 28.2915C110.952 25.2305 110.951 22.1728 110.955 19.1185C110.959 17.1232 110.284 15.2714 108.064 14.943C104.63 14.4329 102.377 16.8921 102.324 20.1583C102.309 21.0869 102.305 23.8034 102.314 28.308C102.314 28.3201 102.312 28.3321 102.308 28.3433C102.304 28.3545 102.298 28.3646 102.291 28.3733C102.283 28.3819 102.273 28.3887 102.263 28.3934C102.253 28.3981 102.242 28.4005 102.231 28.4003H100.95C100.928 28.4003 100.907 28.3918 100.891 28.3763C100.876 28.3607 100.867 28.3398 100.867 28.3179V13.9181C100.867 13.8962 100.876 13.8751 100.891 13.8597C100.907 13.8443 100.928 13.8355 100.95 13.8355H102.231C102.243 13.8354 102.254 13.8385 102.265 13.8448C102.276 13.8509 102.286 13.8601 102.294 13.8716C102.302 13.8831 102.309 13.8968 102.313 13.9119C102.317 13.927 102.319 13.9432 102.319 13.9594L102.303 16.095Z" fill="#3C3C43" fill-opacity="0.25"/>
<path d="M123.337 21.1666C121.183 20.5956 119.726 18.9699 120.166 16.6412C120.677 13.9378 123.82 13.3734 126.061 13.5417C128.95 13.758 130.916 15.2516 130.791 18.3692C130.789 18.3926 130.78 18.4148 130.765 18.4311C130.75 18.4475 130.73 18.4566 130.709 18.4567H129.51C129.467 18.4567 129.427 18.4398 129.396 18.4095C129.366 18.3792 129.349 18.338 129.348 18.2949C129.283 14.7482 125.478 14.2398 122.95 15.3325C121.5 15.9579 121.021 18.0027 122.375 19.0211C122.815 19.3522 123.378 19.5993 124.06 19.7621C125.406 20.0845 126.755 20.402 128.109 20.7144C130.137 21.1815 131.321 22.7577 131.227 24.8223C131.076 28.0999 127.373 28.978 124.678 28.6875C121.659 28.3625 119.654 26.5437 119.602 23.3716C119.602 23.3531 119.604 23.3349 119.607 23.3178C119.611 23.3007 119.616 23.2852 119.623 23.2721C119.629 23.259 119.637 23.2488 119.646 23.2416C119.654 23.2347 119.664 23.2312 119.673 23.2313L120.997 23.2808C121.013 23.2817 121.029 23.2944 121.042 23.3162C121.055 23.3383 121.064 23.3679 121.065 23.3996C121.286 27.0207 124.863 28.0439 127.809 27.0388C130.351 26.1706 130.509 23.1207 127.804 22.2675C126.262 21.7823 124.83 21.561 123.337 21.1666Z" fill="#3C3C43" fill-opacity="0.25"/>
<path d="M60.0408 26.1407C60.0427 26.0318 60.0122 26.0274 59.9479 26.1275C58.7579 28.0073 56.6631 28.9233 54.4494 28.717C51.0092 28.3984 49.8932 26.1539 49.8765 22.9422C49.8613 19.9505 49.8585 16.9584 49.8682 13.9656C49.8687 13.9474 49.8705 13.9293 49.8747 13.9125C49.8788 13.8956 49.8849 13.8803 49.8923 13.8674C49.8997 13.8545 49.9084 13.8443 49.9177 13.8374C49.9274 13.8304 49.9376 13.8269 49.9477 13.827L51.2603 13.8584C51.2853 13.8587 51.3088 13.8695 51.3259 13.8884C51.343 13.9073 51.3532 13.9326 51.3532 13.959C51.3532 16.9023 51.3541 19.8455 51.3564 22.7887C51.3578 25.0811 51.8719 27.0385 54.5072 27.3257C57.9992 27.7069 59.9595 25.0811 59.9798 21.8711C59.9937 19.2348 59.9974 16.5997 59.9895 13.9656C59.9895 13.947 59.9918 13.9287 59.996 13.9115C60.0002 13.8943 60.0066 13.8788 60.0145 13.8657C60.0223 13.8527 60.0316 13.8424 60.0418 13.8355C60.0519 13.8285 60.063 13.8251 60.0737 13.8253L61.3548 13.8617C61.3807 13.8622 61.4052 13.8776 61.4232 13.9049C61.4408 13.9319 61.4509 13.9687 61.4509 14.0069C61.4431 16.872 61.4505 19.7349 61.4727 22.5956C61.4856 24.2839 61.4029 26.4047 61.4445 28.311C61.4445 28.3225 61.4426 28.3342 61.438 28.345C61.4338 28.3557 61.4269 28.3656 61.4186 28.3739C61.4103 28.3822 61.4005 28.3888 61.3894 28.3933C61.3788 28.3978 61.3668 28.4001 61.3548 28.4001H60.1153C60.1005 28.4002 60.0861 28.3969 60.0727 28.3907C60.0598 28.3845 60.0473 28.3754 60.0371 28.3638C60.027 28.3523 60.0191 28.3386 60.014 28.3235C60.0085 28.3086 60.0057 28.2925 60.0062 28.2763L60.0408 26.1407Z" fill="#3C3C43" fill-opacity="0.25"/>
<path d="M117.008 13.837H115.725C115.691 13.837 115.664 13.8644 115.664 13.8981V28.3392C115.664 28.3729 115.691 28.4002 115.725 28.4002H117.008C117.042 28.4002 117.069 28.3729 117.069 28.3392V13.8981C117.069 13.8644 117.042 13.837 117.008 13.837Z" fill="#3C3C43" fill-opacity="0.25"/>
</svg>
