<svg width="82" height="40" viewBox="0 0 82 40" fill="none" xmlns="http://www.w3.org/2000/svg">
<path d="M4.304 20C4.304 15.8697 5.89929 11.9086 8.73892 8.98799C11.5786 6.06742 15.4299 4.42667 19.4458 4.42667V0C8.70549 0 0 8.96 0 20C0 31.04 8.70549 40 19.4458 40V35.5733C15.4299 35.5733 11.5786 33.9326 8.73892 31.012C5.89929 28.0914 4.304 24.1303 4.304 20ZM19.4458 25.5467C18.3792 25.5467 17.3365 25.2214 16.4496 24.6119C15.5627 24.0024 14.8715 23.1361 14.4633 22.1226C14.0552 21.1091 13.9484 19.9938 14.1564 18.9179C14.3645 17.842 14.8782 16.8536 15.6324 16.0779C16.3866 15.3022 17.3475 14.7739 18.3937 14.5599C19.4398 14.3459 20.5241 14.4557 21.5096 14.8755C22.495 15.2954 23.3373 16.0063 23.9299 16.9184C24.5225 17.8306 24.8387 18.903 24.8387 20H29.1427C29.1427 18.0275 28.574 16.0992 27.5085 14.4591C26.443 12.819 24.9285 11.5407 23.1566 10.7858C21.3848 10.031 19.435 9.83348 17.554 10.2183C15.673 10.6031 13.9451 11.553 12.589 12.9478C11.2328 14.3426 10.3093 16.1197 9.93514 18.0543C9.56098 19.9889 9.75301 21.9942 10.487 23.8166C11.2209 25.639 12.4638 27.1966 14.0584 28.2925C15.6531 29.3884 17.5279 29.9733 19.4458 29.9733V25.5467ZM19.4458 4.42667V8.85333C22.3201 8.85333 25.0768 10.0277 27.1092 12.1181C29.1417 14.2085 30.2836 17.0437 30.2836 20C30.2836 22.9563 29.1417 25.7915 27.1092 27.8819C25.0768 29.9723 22.3201 31.1467 19.4458 31.1467V35.5733C23.4616 35.5733 27.313 33.9326 30.1526 31.012C32.9923 28.0914 34.5876 24.1303 34.5876 20C34.5876 15.8697 32.9923 11.9086 30.1526 8.98799C27.313 6.06742 23.4616 4.42667 19.4458 4.42667ZM19.4458 15.6267C18.6048 15.6267 17.7827 15.8832 17.0834 16.3637C16.3842 16.8443 15.8391 17.5273 15.5173 18.3264C15.1955 19.1255 15.1113 20.0049 15.2753 20.8532C15.4394 21.7015 15.8444 22.4808 16.4391 23.0924C17.0337 23.704 17.7914 24.1206 18.6162 24.2893C19.4411 24.4581 20.296 24.3714 21.073 24.0404C21.85 23.7094 22.5141 23.1489 22.9813 22.4297C23.4485 21.7105 23.6979 20.865 23.6979 20C23.6979 18.8401 23.2499 17.7277 22.4525 16.9076C21.6551 16.0874 20.5735 15.6267 19.4458 15.6267ZM44.493 27.2107C44.4952 27.5585 44.3643 27.8932 44.1285 28.1425C43.8927 28.3918 43.571 28.5357 43.2329 28.5429C42.5173 28.5429 41.9718 27.9819 41.9718 27.2107V24.2667H41.2219V27.2107C41.2219 28.4021 42.0402 29.2437 43.2329 29.2437C44.4256 29.2437 45.2428 28.4021 45.2428 27.2107V24.2667H44.493V27.2107ZM49.8859 27.8507H49.8652L47.2621 24.2688H46.5745V29.1755H47.3243V25.5915H47.344L49.9482 29.1733H50.6296V24.2667H49.8797L49.8859 27.8507ZM52.0504 29.1755H52.7971V24.2688H52.0473L52.0504 29.1755ZM55.8877 28.2507H55.8742L54.4223 24.2688H53.6247L55.4645 29.1755H56.2828L58.1227 24.2688H57.3521L55.8877 28.2507ZM59.7094 26.9813H61.7837V26.2805H59.7094V24.9675H62.3333V24.2667H58.9544V29.1733H62.3955V28.4725H59.7042L59.7094 26.9813ZM66.9754 25.808C66.9754 24.9312 66.3283 24.2656 65.4083 24.2656H63.4264V29.1723H64.1763V27.3504H65.3005L66.2888 29.1733H67.1413L66.0638 27.2245C66.3359 27.1099 66.568 26.9134 66.7297 26.6609C66.8914 26.4083 66.9753 26.1114 66.9702 25.8091L66.9754 25.808ZM65.4083 26.6485H64.1763V24.9675H65.4032C65.615 24.9752 65.8157 25.0672 65.9629 25.2241C66.11 25.381 66.1923 25.5905 66.1923 25.8085C66.1923 26.0266 66.11 26.2361 65.9629 26.393C65.8157 26.5498 65.615 26.6418 65.4032 26.6496L65.4083 26.6485ZM68.6949 25.5627C68.6949 25.2117 69.0061 24.896 69.5806 24.896C69.9538 24.9061 70.3094 25.0616 70.5752 25.3312L71.0803 24.8267C70.8831 24.625 70.6491 24.4654 70.3917 24.357C70.1344 24.2486 69.8587 24.1936 69.5806 24.1952C68.558 24.1952 67.9451 24.8267 67.9451 25.5627C67.9451 27.3845 70.4663 26.7189 70.4663 27.8027C70.4663 28.1877 70.1262 28.5387 69.5122 28.5387C69.2865 28.5414 69.0629 28.4946 68.8562 28.4016C68.6495 28.3085 68.4644 28.1713 68.3133 27.9989L67.803 28.5109C68.083 28.8608 68.6618 29.2469 69.507 29.2469C70.5638 29.2469 71.211 28.5803 71.211 27.8101C71.211 25.984 68.6898 26.6496 68.6898 25.5637L68.6949 25.5627ZM72.3072 29.1723H73.057V24.2656H72.3072V29.1723ZM73.8815 24.9664H75.3127V29.1723H76.0626V24.9675H77.4938V24.2667H73.8763L73.8815 24.9664ZM81.1537 24.2656L79.8449 26.6123H79.8179L78.4956 24.2656H77.6369L79.4425 27.4197V29.1723H80.1923V27.4208L81.9979 24.2667L81.1537 24.2656ZM47.0578 14.7723L42.0112 9.20427H41.2199V20H43.432V13.92L46.7435 17.4955H47.3658L50.6773 13.92V20H52.8863V9.20427H52.095L47.0578 14.7723ZM55.6969 19.9989H57.9069V9.33227H55.6917L55.6969 19.9989ZM64.9271 13.7344C63.666 13.2011 62.5231 12.7669 62.5231 12.0928C62.5231 11.4411 63.3694 11.2011 63.7853 11.2011C65.0837 11.2011 65.7672 11.7664 66.2007 12.2059L67.6278 10.6976C67.1922 10.1856 66.2411 9.0976 63.8444 9.0976C61.9154 9.0976 60.2705 10.3915 60.2705 12.1803C60.2705 14.4011 62.5107 15.0848 63.4461 15.4795C64.6761 15.9989 65.5878 16.3328 65.5878 17.0656C65.5878 17.4709 65.1988 18.1323 63.9128 18.1323C62.4142 18.1323 61.4653 17.1371 61.1344 16.7157L59.7032 18.2219C60.1554 18.8075 61.4912 20.2357 63.9128 20.2357C66.3345 20.2357 67.8352 18.8811 67.8352 16.9792C67.8352 15.1072 66.3998 14.3595 64.9168 13.7355L64.9271 13.7344ZM69.8721 19.9989H72.0821V9.33227H69.8617L69.8721 19.9989ZM79.1023 13.7344C77.8412 13.2011 76.6983 12.7669 76.6983 12.0928C76.6983 11.4411 77.5446 11.2011 77.9605 11.2011C79.2589 11.2011 79.9424 11.7664 80.3759 12.2059L81.7926 10.6976C81.357 10.1856 80.406 9.0976 78.0092 9.0976C76.0802 9.0976 74.4353 10.3915 74.4353 12.1803C74.4353 14.4011 76.6755 15.0848 77.611 15.4795C78.841 15.9989 79.7526 16.3328 79.7526 17.0656C79.7526 17.4709 79.3637 18.1323 78.0777 18.1323C76.579 18.1323 75.6301 17.1371 75.2992 16.7157L73.868 18.2219C74.3202 18.8075 75.656 20.2357 78.0777 20.2357C80.4993 20.2357 82 18.8811 82 16.9792C82 15.1072 80.5698 14.3595 79.0868 13.7355L79.1023 13.7344Z" fill="#3C3C43" fill-opacity="0.25"/>
</svg>
