<svg width="124" height="40" viewBox="0 0 124 40" fill="none" xmlns="http://www.w3.org/2000/svg">
<g clip-path="url(#clip0_80_8744)">
<path d="M23.6413 0V2.93447H3.15812V30.687C3.19831 31.6773 3.62605 32.6118 4.34837 33.285C5.07059 33.958 6.02822 34.3153 7.01157 34.2792H10.1454C12.3175 34.276 14.4431 34.9126 16.2605 36.1106L16.3527 36.1882L16.4511 36.1106C18.2687 34.9141 20.3938 34.2775 22.5654 34.2792H25.6921C26.6754 34.3153 27.6331 33.958 28.3553 33.285C29.0776 32.6118 29.5053 31.6773 29.5455 30.687H29.4977V9.05777H32.3053V30.687C32.2774 32.4423 31.559 34.1153 30.3086 35.3386C29.0582 36.5617 27.3775 37.2363 25.6345 37.2137H22.5024C21.3319 37.2138 20.1746 37.462 19.1054 37.9419C18.0362 38.422 17.0786 39.1233 16.296 40C15.5115 39.1233 14.5528 38.4219 13.4821 37.9419C12.4117 37.4621 11.2532 37.2141 10.0816 37.2137H6.95662C6.09307 37.2267 5.23526 37.0678 4.43256 36.7469C3.62985 36.4259 2.89756 35.9491 2.27807 35.343C1.65853 34.7369 1.16377 34.0133 0.821952 33.2145C0.480195 32.4157 0.297744 31.5567 0.285767 30.687V0H23.6413Z" fill="#3C3C43" fill-opacity="0.25"/>
<path d="M17.7486 32.1935H14.9409V18.8724H17.7486V32.1935Z" fill="#3C3C43" fill-opacity="0.25"/>
<path d="M10.4316 15.8103V29.1323H7.62486V15.8103H10.4316Z" fill="#3C3C43" fill-opacity="0.25"/>
<path d="M25.0451 15.8103V29.1323H22.2375V15.8103H25.0451Z" fill="#3C3C43" fill-opacity="0.25"/>
<path fill-rule="evenodd" clip-rule="evenodd" d="M61.3816 19.2829C62.4637 19.2829 63.5058 19.6974 64.2956 20.4422C64.6742 20.7961 64.9762 21.2247 65.1828 21.7015C65.3894 22.1784 65.4965 22.6931 65.4965 23.2134C65.4965 23.7336 65.3894 24.2484 65.1828 24.7252C64.9762 25.202 64.6742 25.6307 64.2956 25.9845C63.5058 26.7294 62.4637 27.1438 61.3816 27.1438C60.2996 27.1438 59.2583 26.7293 58.4685 25.9845C58.0899 25.6307 57.7879 25.202 57.5814 24.7252C57.3748 24.2484 57.2676 23.7336 57.2676 23.2134C57.2676 22.6931 57.3748 22.1784 57.5814 21.7015C57.7879 21.2247 58.0899 20.7961 58.4685 20.4422C59.2583 19.6974 60.2996 19.283 61.3816 19.2829ZM61.3816 21.0714C60.8336 21.0715 60.307 21.2874 59.914 21.6721C59.5354 22.0849 59.3255 22.6264 59.3255 23.1884C59.3256 23.7504 59.5354 24.2919 59.914 24.7047C60.307 25.0893 60.8336 25.3044 61.3816 25.3044C61.9297 25.3044 62.4562 25.0893 62.8493 24.7047C63.228 24.2918 63.4386 23.7504 63.4386 23.1884C63.4386 22.6263 63.228 22.085 62.8493 21.6721C62.4562 21.2874 61.9297 21.0714 61.3816 21.0714Z" fill="#3C3C43" fill-opacity="0.25"/>
<path d="M70.433 19.2606C70.8127 19.2575 71.191 19.3097 71.5559 19.4159C71.8658 19.4968 72.1644 19.6217 72.4412 19.7836C72.6518 19.9185 72.8566 20.0663 73.0519 20.2218C73.1884 20.3349 73.3131 20.46 73.4241 20.5975L73.5428 20.7448L72.3278 22.0255L72.2436 21.9121C72.1683 21.8323 72.0888 21.7563 72.0052 21.6854C71.8845 21.5791 71.7554 21.4823 71.6197 21.3963C71.4551 21.2972 71.2774 21.2214 71.0923 21.1705C70.8792 21.1025 70.6566 21.0689 70.433 21.0714C70.1541 21.0627 69.8763 21.1119 69.6167 21.2151C69.3571 21.3183 69.1206 21.4738 68.9228 21.6721L68.8067 21.8309C68.5063 22.2165 68.3414 22.6943 68.3414 23.1884C68.3414 23.7529 68.5566 24.2959 68.9432 24.7047C69.1395 24.9055 69.3755 25.0631 69.6353 25.1679C69.8951 25.2727 70.1736 25.323 70.4534 25.3143C71.112 25.3163 71.7455 25.0572 72.2161 24.5931L72.4341 24.3593L73.5925 25.6311L73.4728 25.7944C73.3591 25.9243 73.2347 26.0446 73.1015 26.1541C72.9077 26.3248 72.698 26.4773 72.4758 26.6084C72.1952 26.7625 71.8954 26.8808 71.5842 26.9618C71.2098 27.069 70.8222 27.1231 70.433 27.1233C69.8941 27.134 69.3586 27.0367 68.8572 26.8377C68.3558 26.6388 67.8986 26.3419 67.5119 25.964C67.1348 25.609 66.8338 25.1798 66.6283 24.7029C66.4228 24.2261 66.3172 23.7117 66.3172 23.1919C66.3172 22.6722 66.4228 22.1578 66.6283 21.681C66.8338 21.2042 67.1348 20.7749 67.5119 20.4199C67.8977 20.0408 68.3548 19.7425 68.8563 19.5435C69.3579 19.3445 69.894 19.2484 70.433 19.2606Z" fill="#3C3C43" fill-opacity="0.25"/>
<path fill-rule="evenodd" clip-rule="evenodd" d="M85.712 19.473C86.3732 19.4386 87.0241 19.6473 87.5439 20.0602C87.763 20.2237 87.9413 20.4367 88.0633 20.6823C88.1852 20.9279 88.2474 21.1993 88.2458 21.4739C88.2496 21.6717 88.2168 21.8682 88.1492 22.0531C88.0982 22.2138 88.0191 22.3657 87.917 22.4994C87.8277 22.6009 87.7344 22.6973 87.6361 22.7885C87.5634 22.8546 87.4835 22.9124 87.3977 22.9599L87.2993 23.0161L87.4455 23.0724C87.554 23.1276 87.6607 23.1881 87.7628 23.2562C87.9095 23.3461 88.0435 23.4552 88.1634 23.5811C88.2936 23.7276 88.3989 23.8952 88.478 24.0764C88.575 24.2987 88.6228 24.5391 88.6189 24.7832C88.616 25.0781 88.5469 25.3686 88.4169 25.6329C88.2867 25.8973 88.0988 26.1292 87.8674 26.3103C87.3241 26.7621 86.6341 26.9961 85.9301 26.968L82.3912 26.9118V19.473H85.712ZM84.3702 25.3143H85.7741C85.8793 25.3193 85.9844 25.3024 86.0834 25.2661C86.1824 25.2297 86.2737 25.174 86.351 25.1019C86.4202 25.0322 86.4749 24.9493 86.5123 24.8582C86.5498 24.7671 86.569 24.6694 86.569 24.5708C86.569 24.4723 86.5498 24.3744 86.5123 24.2835C86.4749 24.1926 86.42 24.1102 86.351 24.0407C86.2738 23.9687 86.1831 23.9129 86.0843 23.8765C86.0101 23.8491 85.9324 23.8325 85.8538 23.8283H84.372L84.3702 25.3143ZM84.3702 22.3361H85.4807C85.662 22.3465 85.8401 22.2856 85.9779 22.1665C86.0988 22.0434 86.1675 21.8773 86.1676 21.7042C86.1676 21.531 86.0989 21.3642 85.9779 21.241C85.8403 21.1214 85.6622 21.0604 85.4807 21.0705H84.3702V22.3361Z" fill="#3C3C43" fill-opacity="0.25"/>
<path d="M76.6749 22.3441L79.097 19.473H81.4226L78.7886 22.5556L81.6326 26.9127H79.3079L77.469 24.0969L76.6749 24.9948V26.9118H74.6737V19.473H76.6749V22.3441Z" fill="#3C3C43" fill-opacity="0.25"/>
<path d="M51.9448 22.4003L54.2118 19.473H56.01V26.9118H54.0018V22.4994L51.9448 25.1081L49.8869 22.4994V26.9118H47.8857V19.473H49.6768L51.9448 22.4003Z" fill="#3C3C43" fill-opacity="0.25"/>
<path fill-rule="evenodd" clip-rule="evenodd" d="M91.8644 21.6997H93.0715C93.4342 21.6839 93.7966 21.7417 94.1368 21.8693C94.4769 21.9969 94.7883 22.1923 95.0523 22.4432C95.3034 22.6807 95.5017 22.9696 95.6337 23.2901C95.7656 23.6105 95.8285 23.9555 95.818 24.3022C95.8278 24.65 95.7647 24.9963 95.6328 25.3178C95.5009 25.6393 95.3029 25.929 95.0523 26.1684C94.7852 26.4127 94.4724 26.6012 94.1324 26.7226C93.7923 26.8439 93.4317 26.8956 93.0715 26.8752L89.8633 26.9118V19.473H91.8644V21.6997ZM91.8627 25.1019H92.9652C93.189 25.1062 93.4064 25.0223 93.5696 24.868C93.6463 24.7968 93.7072 24.7098 93.7495 24.6137C93.7917 24.5177 93.815 24.4143 93.816 24.3093C93.8157 24.2042 93.7928 24.1001 93.7504 24.0041C93.708 23.9082 93.6467 23.8221 93.5696 23.7515C93.4903 23.6727 93.3958 23.6099 93.2922 23.5686C93.1885 23.5273 93.0767 23.5076 92.9652 23.5106H91.8627V25.1019Z" fill="#3C3C43" fill-opacity="0.25"/>
<path d="M98.5539 26.9118H96.5527V19.473H98.5557L98.5539 26.9118Z" fill="#3C3C43" fill-opacity="0.25"/>
<path d="M32.3346 0V7.60035H29.5251V5.04072L16.3323 15.8103L9.01539 9.86367L4.53625 13.4978V9.75836L9.01539 6.12419L16.3306 12.0699L27.5311 2.93447H25.0451V0H32.3346Z" fill="#3C3C43" fill-opacity="0.25"/>
<path fill-rule="evenodd" clip-rule="evenodd" d="M67.3958 6.94259C68.479 6.94267 69.5216 7.35741 70.3124 8.10281C70.6892 8.45804 70.9898 8.88795 71.1952 9.36478C71.4003 9.84144 71.5062 10.3553 71.5062 10.8749C71.5062 11.3946 71.4005 11.909 71.1952 12.3858C70.9898 12.8626 70.6892 13.2917 70.3124 13.6469C69.5215 14.3924 68.4791 14.8079 67.3958 14.808C66.3123 14.808 65.2692 14.3926 64.4782 13.6469C64.1015 13.2917 63.8008 12.8626 63.5955 12.3858C63.3902 11.909 63.2844 11.3945 63.2844 10.8749C63.2845 10.3554 63.3904 9.84141 63.5955 9.36478C63.8008 8.88795 64.1015 8.45804 64.4782 8.10281C65.2692 7.35725 66.3124 6.94259 67.3958 6.94259ZM67.3993 8.76146C66.8512 8.76146 66.3247 8.97652 65.9317 9.36121C65.5527 9.77394 65.3423 10.3154 65.3423 10.8775C65.3423 11.4397 65.5527 11.9811 65.9317 12.3939C66.3247 12.7785 66.8512 12.9945 67.3993 12.9945C67.9474 12.9945 68.4739 12.7785 68.867 12.3939C69.2459 11.9811 69.4563 11.4397 69.4563 10.8775C69.4563 10.3154 69.2459 9.77394 68.867 9.36121C68.4739 8.97652 67.9474 8.76147 67.3993 8.76146Z" fill="#3C3C43" fill-opacity="0.25"/>
<path fill-rule="evenodd" clip-rule="evenodd" d="M84.8515 6.94259C85.935 6.9426 86.9781 7.35716 87.769 8.10281C88.1458 8.45804 88.4456 8.88795 88.6509 9.36478C88.8561 9.84147 88.9628 10.3553 88.9628 10.8749C88.9628 11.3946 88.8562 11.909 88.6509 12.3858C88.4456 12.8625 88.1456 13.2917 87.769 13.6469C86.9781 14.3925 85.935 14.808 84.8515 14.808C83.768 14.808 82.7249 14.3926 81.9339 13.6469C81.5573 13.2917 81.2574 12.8625 81.0521 12.3858C80.8468 11.909 80.7401 11.3946 80.7401 10.8749C80.7402 10.3553 80.8469 9.84147 81.0521 9.36478C81.2574 8.88795 81.5572 8.45804 81.9339 8.10281C82.7249 7.35716 83.768 6.94259 84.8515 6.94259ZM84.8515 8.76503C84.3052 8.76503 83.7801 8.97881 83.3874 9.36121C83.004 9.77165 82.791 10.314 82.7909 10.8775C82.7909 11.441 83.004 11.9834 83.3874 12.3939C83.7801 12.7762 84.3052 12.99 84.8515 12.99C85.3977 12.99 85.9229 12.7762 86.3156 12.3939C86.6944 11.9811 86.9049 11.4396 86.9049 10.8775C86.9049 10.3155 86.6945 9.77392 86.3156 9.36121C85.9229 8.97882 85.3977 8.76504 84.8515 8.76503Z" fill="#3C3C43" fill-opacity="0.25"/>
<path d="M51.2278 6.94438C51.6981 6.95744 52.1629 7.05317 52.6015 7.22729C53.1029 7.42634 53.5603 7.72369 53.9459 8.10281C54.3225 8.45792 54.6225 8.88727 54.8278 9.36389C55.033 9.84066 55.1388 10.3552 55.1388 10.8749C55.1388 11.3946 55.0331 11.909 54.8278 12.3858C54.6225 12.8625 54.3225 13.2917 53.9459 13.6469C53.5576 14.0208 53.099 14.3138 52.5979 14.509C52.0969 14.7041 51.5627 14.7982 51.0257 14.7848C50.6393 14.7872 50.254 14.7371 49.8807 14.6366C49.5635 14.553 49.2588 14.427 48.9749 14.2618C48.758 14.1333 48.5499 13.9864 48.3572 13.8245C48.2155 13.7156 48.0879 13.589 47.9779 13.4479L47.8662 13.2997L49.0237 12.0199L49.115 12.127C49.194 12.2104 49.2784 12.2872 49.3675 12.359C49.4964 12.4682 49.6356 12.5652 49.7823 12.65C50.163 12.8681 50.594 12.9819 51.0319 12.9811C51.4726 12.9989 51.907 12.8703 52.2674 12.6143C52.5806 12.3813 52.8236 12.0649 52.9693 11.7013H50.0712V10.0047H52.9719C52.827 9.64288 52.5836 9.32977 52.27 9.1006C51.909 8.84363 51.4752 8.71499 51.0337 8.7329C50.6127 8.73438 50.1995 8.85155 49.8399 9.07205C49.6118 9.21264 49.4037 9.38379 49.2213 9.58076L49.1371 9.68786L47.9371 8.42143L48.0559 8.2581C48.3405 7.9405 48.6722 7.66854 49.0387 7.4522C49.3152 7.29566 49.6106 7.17485 49.917 7.09253C50.2843 6.9834 50.6644 6.92796 51.047 6.9292L51.2278 6.94438Z" fill="#3C3C43" fill-opacity="0.25"/>
<path d="M58.4331 10.027L60.8552 7.16214H63.179L60.5459 10.2385L63.3899 14.5947H61.067L59.2263 11.7798L58.4331 12.6848V14.5947H56.4319V7.16214H58.4331V10.027Z" fill="#3C3C43" fill-opacity="0.25"/>
<path d="M74.7792 9.92793H77.469V7.16214H79.4701V14.5947H77.469V11.7307H74.7792V14.5947H72.7789V7.16214H74.7792V9.92793Z" fill="#3C3C43" fill-opacity="0.25"/>
<path d="M94.2866 10.0832L96.5616 7.16214H98.3527V14.5947H96.3515V10.1885L94.2848 12.791L92.2367 10.1885V14.5947H90.2284V7.16214H92.0266L94.2866 10.0832Z" fill="#3C3C43" fill-opacity="0.25"/>
<path d="M102.037 11.3068L105.204 7.16214H106.945V14.5947H104.938V10.4509L101.764 14.5947H100.035L100.036 7.16214H102.037V11.3068Z" fill="#3C3C43" fill-opacity="0.25"/>
<path fill-rule="evenodd" clip-rule="evenodd" d="M123.286 14.5947H121.122L120.595 13.0034H118.167L117.639 14.5947H113.273L111.426 11.7798L110.632 12.6848V14.5947H108.632V7.16214H110.632V10.027L113.062 7.16214H115.385L112.746 10.2385L115.521 14.4796L118.286 7.15589H120.477L123.286 14.5947ZM118.686 11.4121H120.09L119.388 9.23358L118.686 11.4121Z" fill="#3C3C43" fill-opacity="0.25"/>
</g>
<defs>
<clipPath id="clip0_80_8744">
<rect width="123" height="40" fill="white" transform="translate(0.285767)"/>
</clipPath>
</defs>
</svg>
