<svg width="40" height="40" viewBox="0 0 40 40" fill="none" xmlns="http://www.w3.org/2000/svg">
<path d="M20.131 0.00012207C26.0256 0.0616112 30.9661 3.03219 33.8751 6.9259C36.5987 10.6196 38.0604 15.2674 36.9982 20.7618L31.6886 24.671L30.9034 31.0265H22.4855C21.9622 31.4423 21.2547 31.8275 20.131 31.8585C19.0229 31.8276 18.3302 31.4424 17.7608 31.0265H9.40343L8.61925 24.671C6.54153 23.1936 4.94045 21.9777 3.01671 20.5773C2.10847 13.8824 3.78589 10.2502 6.24815 6.80286C9.31089 2.90908 14.2365 0.00012207 20.131 0.00012207ZM19.1925 3.10852C18.5615 2.95455 17.6685 3.00112 16.9298 3.12415C16.1911 3.3551 15.6526 3.55534 15.0216 3.9093C16.1759 9.54212 17.5144 16.7142 18.6534 22.3009C17.099 16.8681 15.0213 10.0651 13.4825 4.64758C12.7438 4.80156 12.0203 5.21757 11.4972 5.64856C10.9434 6.07942 10.6203 6.4028 10.1124 7.172C12.3438 11.9431 15.0214 18.0227 17.2687 22.7628C14.6674 18.4534 11.512 12.7737 8.89561 8.49524C8.38788 8.94158 8.0032 9.26534 7.49522 10.1271C7.06432 10.8196 6.8493 11.6352 6.75694 12.42C9.61965 15.9138 13.0361 20.1004 15.9142 23.5782C12.9133 20.6849 9.21928 16.9599 6.24913 14.0665C5.95679 14.6512 5.77214 15.1441 5.67979 16.1134C5.57213 17.052 5.75618 18.1753 5.95616 18.8527L11.7589 23.1622L12.3741 27.9493L18.7618 27.9952C19.2232 28.5336 19.377 28.8105 20.131 28.8566C20.854 28.8105 21.2705 28.3646 21.4552 27.9952H27.8263L28.4718 23.1935L34.2286 18.9142C34.4437 18.2064 34.5825 17.1136 34.506 16.1749C34.4136 15.1592 34.2288 14.6511 33.9825 14.1124C30.9971 16.9904 27.2876 20.7154 24.3175 23.6085C27.2106 20.1611 30.5962 15.9588 33.4894 12.4347C33.3357 11.6501 33.1514 10.8496 32.6896 10.1573C32.151 9.29556 31.8429 8.97239 31.3507 8.51086C28.7192 12.774 25.5172 18.4992 22.9161 22.7775C25.225 18.022 27.841 11.9427 30.1036 7.23352C29.6113 6.47937 29.2571 6.09447 28.7648 5.69446C28.1801 5.2482 27.457 4.83253 26.7491 4.66321C25.1332 10.0649 23.1482 16.9291 21.5782 22.3156C22.6707 16.7289 24.0403 9.6191 25.1329 4.00208C24.5791 3.60178 24.0404 3.40104 23.3165 3.18567C22.4858 3.03172 21.6701 3.00182 21.0235 3.1095C20.5928 9.01896 20.577 16.3138 20.131 22.2081C19.6846 16.2827 19.5618 8.97202 19.1925 3.10852Z" fill="#3C3C43" fill-opacity="0.25"/>
<path fill-rule="evenodd" clip-rule="evenodd" d="M2.49384 37.7991H5.47959C5.43354 38.461 5.75684 38.6148 5.91082 38.7227C6.0799 38.7841 7.32683 38.8455 7.94225 38.7378C8.18857 38.6917 8.41929 38.5994 8.41929 37.8451C8.41929 37.522 8.3423 37.168 7.97295 37.0908C6.66463 36.9834 5.38725 37.1218 4.07917 36.9985C2.77085 36.7064 2.57107 36.3675 2.49384 35.3364C2.58617 33.905 3.09415 33.4896 4.55621 33.4433C6.07956 33.3973 7.60395 33.3973 9.12729 33.4433C10.6817 33.4433 11.1587 34.0439 11.1587 35.352H8.41929C8.41929 34.7054 8.29625 34.4593 7.97295 34.4284C7.30683 34.3823 6.63833 34.3823 5.97222 34.4284C5.7259 34.4284 5.40284 34.5516 5.40284 35.1364C5.40284 35.6902 5.54123 35.8288 5.91082 35.8753C7.03422 35.9211 8.17322 35.9367 9.28127 36.0132C11.128 36.1211 11.1897 36.9368 11.2511 37.7986C11.2818 39.0302 10.8354 39.4607 10.5124 39.6612C10.2046 39.7995 8.71165 39.9691 8.41929 39.9691H5.46448C4.80252 39.9691 3.97148 39.8921 3.24813 39.6765C2.57082 39.4921 2.49384 38.5841 2.49384 37.7991ZM30.5509 39.9998H33.167V33.4745H30.5509V39.9998ZM34.9214 39.9998H37.5071V33.4745H34.9214V39.9998ZM29.0272 36.5831C28.9795 36.379 28.9177 36.1785 28.842 35.983C28.3957 35.2596 26.8569 35.2597 25.3641 35.2287C24.2407 35.2287 22.5633 35.2597 22.0707 35.7364C21.8704 35.9521 21.7627 36.2598 21.7013 36.5831C21.6243 36.968 21.6394 37.3678 21.6394 37.5527C21.6394 37.8912 21.6704 39.1992 22.3014 39.5379C22.8861 39.9228 24.6559 39.9691 25.3329 39.9691C26.0563 39.9691 28.0573 39.8921 28.3499 39.5532C28.8727 39.3686 28.996 38.7224 29.1037 38.2147H26.5336C26.5336 38.7224 26.1333 39.0304 25.3329 38.9836C24.6096 39.0302 24.1942 38.8608 24.1942 37.953L29.1034 37.9681C29.1037 37.522 29.1195 37.0448 29.0272 36.5831ZM26.5336 37.0294H24.1942C24.1942 36.8447 24.2251 36.6905 24.2712 36.5831C24.44 36.1677 24.8713 36.1523 25.3327 36.1214C26.0407 36.1214 26.3487 36.2907 26.4719 36.5831C26.5336 36.7064 26.5489 36.8601 26.5336 37.0294ZM12.7901 39.9998H15.3449V37.2294C15.4065 36.845 15.4988 36.537 16.4376 36.537C17.33 36.5219 17.5763 36.7678 17.5763 37.2294V39.9998H20.1311V37.2294C20.1311 36.3214 20.116 35.829 19.531 35.5678C19.0077 35.229 18.2534 35.2752 17.5456 35.2752C16.8069 35.2752 15.9759 35.3676 15.3449 35.6755V33.4748H12.7901V39.9998Z" fill="#3C3C43" fill-opacity="0.25"/>
</svg>
