<svg width="41" height="40" viewBox="0 0 41 40" fill="none" xmlns="http://www.w3.org/2000/svg">
<g clip-path="url(#clip0_80_8714)">
<path d="M40.1419 40H0.142883V0H40.1419V40ZM20.1419 10.3213C17.6242 10.3213 15.3203 10.6783 13.4632 11.2676C8.53484 12.8569 5.14191 16.1614 5.14191 19.9648C5.1423 25.3216 11.8567 29.661 20.1419 29.6611C28.4273 29.6611 35.1415 25.3217 35.1419 19.9648C35.1419 16.1435 31.7491 12.8568 26.8206 11.2676C24.9635 10.6783 22.6418 10.3213 20.1419 10.3213ZM9.05304 15.1074C9.03522 15.2144 9.03448 15.3035 9.03448 15.3926C9.03448 17.4461 12.1419 19.2146 16.4632 19.8574V20.3213C16.4632 24.1605 17.5351 27.4111 18.9993 28.5361C12.4638 28.1433 7.32074 24.2859 7.32062 19.6074C7.32062 17.9646 7.94591 16.4288 9.05304 15.1074ZM31.2151 15.0898C32.3221 16.4112 32.9466 17.9471 32.9466 19.5898C32.9464 24.2681 27.822 28.1246 21.2689 28.5176C22.7329 27.3922 23.804 24.1425 23.804 20.3037V19.8398C28.1254 19.197 31.2327 17.4464 31.2327 15.375C31.2327 15.2859 31.2329 15.1967 31.2151 15.0898ZM22.4476 20C22.394 23.0535 21.376 25.4824 20.1439 25.4824C18.9118 25.4821 17.8937 23.0533 17.8401 20C18.5901 20.0714 19.3582 20.1074 20.1439 20.1074C20.9295 20.1074 21.6976 20.0714 22.4476 20ZM20.1429 13.9463C21.107 13.9466 21.9462 15.4827 22.2855 17.6074C21.607 17.661 20.8928 17.6963 20.1429 17.6963C19.4107 17.6963 18.6957 17.661 17.9993 17.6074C18.3386 15.4646 19.1608 13.9463 20.1429 13.9463ZM20.1429 11.5713C24.9106 11.5713 28.7855 12.9472 28.7855 14.6436C28.785 15.9112 26.66 16.9828 23.6068 17.4648C23.1068 14.09 21.75 11.6788 20.1429 11.6787C18.5358 11.6787 17.178 14.1077 16.678 17.4648C13.6251 16.9827 11.5008 15.8933 11.5003 14.6436C11.5003 12.9471 15.3751 11.5713 20.1429 11.5713Z" fill="#3C3C43" fill-opacity="0.25"/>
</g>
<defs>
<clipPath id="clip0_80_8714">
<rect width="40" height="40" fill="white" transform="translate(0.142883)"/>
</clipPath>
</defs>
</svg>
