<svg width="37" height="37" viewBox="0 0 37 37" fill="none" xmlns="http://www.w3.org/2000/svg">
<rect x="0.5" y="0.714355" width="36" height="36" rx="18" fill="#3C3C43" fill-opacity="0.32"/>
<path d="M15.1307 12.082C16.7448 12.1059 17.8911 12.5744 18.5672 13.4951C18.9737 14.0599 19.1736 14.7356 19.1736 15.5205C19.1736 16.3342 18.97 16.9824 18.5594 17.4746C18.3327 17.7523 17.9955 18.0028 17.5496 18.2295C18.2249 18.4785 18.7368 18.8658 19.0789 19.4033C19.4235 19.9359 19.5965 20.5865 19.5965 21.3457C19.5972 22.1335 19.4041 22.8398 19.0086 23.4629C18.7563 23.8768 18.4433 24.2249 18.0682 24.5068C17.6452 24.8317 17.1457 25.0541 16.5711 25.1729C15.9949 25.2932 15.3701 25.3525 14.699 25.3525H8.72052V12.082H15.1307ZM24.5955 15.1826C25.4225 15.1826 26.1665 15.3298 26.8318 15.625C27.4938 15.9234 28.041 16.3919 28.4705 17.0332C28.8621 17.5995 29.1115 18.2533 29.2303 19.001C29.2979 19.4321 29.3266 20.0622 29.3143 20.8848H22.3914C22.4302 21.8403 22.7599 22.5082 23.3865 22.8916C23.7633 23.1315 24.2206 23.248 24.7557 23.248C25.322 23.248 25.7785 23.1053 26.1346 22.8135C26.3275 22.6585 26.4968 22.4382 26.6443 22.1611H29.1815C29.1155 22.7259 28.8105 23.297 28.2606 23.8799C27.4114 24.8041 26.2182 25.2676 24.6863 25.2676C23.4201 25.2676 22.3055 24.8749 21.3377 24.0977C20.3731 23.3177 19.8866 22.0486 19.8865 20.29C19.8865 18.6419 20.322 17.3789 21.1951 16.5C22.0715 15.6213 23.2023 15.1826 24.5955 15.1826ZM11.783 23.0479H14.5867C15.1628 23.0478 15.6092 22.9719 15.9315 22.8145C16.5108 22.5258 16.8026 21.9741 16.8026 21.1572C16.8025 20.4674 16.5215 19.9914 15.9578 19.7334C15.6429 19.5883 15.1997 19.5164 14.6317 19.5098H11.783V23.0479ZM24.6004 17.2275C23.9614 17.2275 23.4663 17.4122 23.1151 17.7725C22.7631 18.1344 22.5436 18.6242 22.4529 19.2441H26.7361C26.6875 18.5854 26.4675 18.0837 26.0701 17.7432C25.677 17.3996 25.1864 17.2276 24.6004 17.2275ZM11.783 17.3135H14.5906C15.1669 17.3126 15.6345 17.2027 15.994 16.9834C16.3525 16.7649 16.5301 16.3761 16.5301 15.8164C16.53 15.1993 16.2946 14.7898 15.8192 14.5928C15.4103 14.4568 14.8866 14.3858 14.2527 14.3857H11.783V17.3135ZM27.2498 13.959H21.9061V12.6318H27.2498V13.959Z" fill="white"/>
</svg>
