<svg width="23" height="37" viewBox="0 0 23 37" fill="none" xmlns="http://www.w3.org/2000/svg">
<path d="M4.47559 34.021H6.23145L4.80078 35.0063L5.32129 36.7144L3.88965 35.6636L2.45898 36.7144L3.04492 35.0063L1.61328 34.021H3.37012L3.95508 32.2476L4.47559 34.021ZM11.8906 34.021H13.6465L12.2158 35.0063L12.7363 36.7144L11.3047 35.6636L9.80859 36.7144L10.459 35.0063L9.02832 34.021H10.7842L11.3701 32.2476L11.8906 34.021ZM19.3701 34.021H21.127L19.6953 35.0063L20.2158 36.7144L18.7852 35.6636L17.2891 36.7144L17.9395 35.0063L16.5088 34.021H18.2646L18.8496 32.2476L19.3701 34.021ZM20.2158 16.8745L11.4883 23.1421C11.495 23.1514 11.4999 23.1638 11.5 23.1812L11.8252 22.9185L22.167 15.561L11.7607 30.2769L11.6953 30.3423L11.4355 30.8022L11.1104 30.2769L11.0449 30.2104L0.897461 15.6528L0.767578 15.561L0.839844 15.5718L0.833008 15.561L0.849609 15.5728L5.12598 16.2183C5.32098 16.2183 5.38613 16.2835 5.58105 16.3491C5.6461 16.3491 5.77637 16.4155 5.77637 16.4155C5.97139 16.4812 6.03694 16.5461 6.16699 16.6118C6.29698 16.6775 6.36215 16.7434 6.49219 16.8091C6.55726 16.8747 6.68651 16.9407 6.68652 17.0063C6.75157 17.072 6.81679 17.0725 6.88184 17.1382C7.01169 17.2038 7.07692 17.2689 7.07715 17.3345C7.27228 17.5316 7.40252 17.7295 7.59766 17.8608L11.0449 22.7876L11.1104 22.853L11.1748 22.9185L11.4355 23.1157C11.4382 23.1158 11.4553 23.1183 11.4717 23.1284L11.7607 22.7212L11.8252 22.6558L15.2725 17.6636C15.8578 16.8096 16.7685 16.2833 17.7441 16.1519L18.9805 15.9556L22.2324 15.4956L20.2158 16.8745ZM11.7607 20.1597V20.2251L11.4355 20.6851L11.1104 20.1597L11.0449 20.0942L8.50781 16.5464L11.0449 17.0718H11.1104L11.4355 17.1382L11.7607 17.0718L14.2324 16.481L11.7607 20.1597ZM3.24121 17.27L3.10938 17.1382H3.04492L3.24121 17.27ZM13.582 4.59033C13.7129 4.78842 14.9471 6.49586 14.9473 8.33447C14.9473 10.6337 12.8008 11.2255 12.8008 12.3423C12.8642 12.7902 13.113 13.112 13.667 13.1284C13.7252 13.1278 13.7836 13.1237 13.8418 13.0649C15.0776 12.5394 15.9232 11.3566 15.9883 9.97705C15.9883 10.0427 16.6386 15.6265 11.6953 15.6265C10.1343 15.6264 8.96387 14.3786 8.96387 12.8677V12.8022C8.96387 9.45189 13.582 9.12315 13.582 4.59033ZM11.4463 0.808105C12.5021 2.10004 13.0615 3.57617 13.0615 5.11572C13.0615 8.00623 8.11816 9.51739 8.11816 12.605C8.05314 13.3276 8.24804 14.0506 8.57324 14.7075C8.57324 14.7075 6.68758 12.8677 6.6875 10.897C6.6875 8.94047 8.48177 6.01259 8.50781 5.97021C8.50791 7.2837 9.02856 7.67793 9.54883 7.74365H9.61426C10.1995 7.74351 10.5244 7.2833 10.5244 6.62646C10.5242 5.96971 9.80974 5.31286 9.80957 3.99951C9.80957 2.75346 11.3648 0.721251 11.3701 0.714355C11.3934 0.742026 11.4157 0.770496 11.4385 0.79834C11.4771 0.745868 11.4987 0.715997 11.5 0.714355C11.4812 0.745198 11.4644 0.777094 11.4463 0.808105Z" fill="#3C3C43" fill-opacity="0.32"/>
</svg>
