<svg width="36" height="37" viewBox="0 0 36 37" fill="none" xmlns="http://www.w3.org/2000/svg">
<path d="M18.2861 4.71436C22.143 4.71436 25.3657 6.09865 27.8418 8.354L23.8105 12.2124C22.7788 11.2634 20.9686 10.1274 18.2861 10.1274C14.5094 10.1277 11.303 12.5686 10.1436 15.9429L10.1445 15.9458C9.85887 16.8168 9.68458 17.75 9.68457 18.7144C9.68457 19.6786 9.85867 20.6119 10.1602 21.4829H10.1592C11.3021 24.8584 14.5086 27.3001 18.2861 27.3003C20.4131 27.3003 22.0329 26.7253 23.2393 25.9009C25.1441 24.5943 26.0015 22.65 26.1602 21.3589H18.2871V16.1636H31.7002C31.9065 17.0347 32.002 17.8748 32.002 19.0259C32.0019 23.288 30.4463 26.8815 27.748 29.3237L27.7461 29.3228C25.381 31.4692 22.1431 32.7144 18.2861 32.7144C12.699 32.7142 7.87353 29.5718 5.52441 24.9985V24.9966C4.5569 23.0993 4.00195 20.969 4.00195 18.7144C4.00196 16.4591 4.55641 14.3278 5.52441 12.4302L5.75195 12.0054C8.17595 7.66334 12.8736 4.71453 18.2861 4.71436Z" fill="#3C3C43" fill-opacity="0.32"/>
</svg>
