<svg width="37" height="37" viewBox="0 0 37 37" fill="none" xmlns="http://www.w3.org/2000/svg">
<rect x="0.5" y="0.714355" width="36" height="36" rx="18" fill="#3C3C43" fill-opacity="0.32"/>
<path d="M14.9861 17.9964C16.4874 17.9964 17.9474 17.5368 18.8427 16.8729V12.9659H14.7657V14.5108H16.9558V15.8387C16.3359 16.1962 15.6886 16.3622 14.9861 16.3622C13.1542 16.3622 12.0247 15.0598 12.0247 13.3873C12.0247 11.5359 13.2919 10.4251 14.9035 10.4251C15.9778 10.4251 16.818 10.8082 17.4241 11.3699L18.7876 10.2719C17.7822 9.23772 16.2946 8.72701 14.9035 8.72701C11.8457 8.72701 10 10.7316 10 13.3873C10 16.2983 12.1625 17.9964 14.9861 17.9964Z" fill="white"/>
<path d="M23.5288 18.0093C25.1128 18.0093 26.9998 17.1922 26.9998 15.2004C26.9998 13.4512 25.65 13.0426 23.9558 12.4298C22.8264 12.0212 22.303 11.7914 22.303 11.2296C22.3167 10.6551 22.8126 10.3231 23.4875 10.3231C24.0936 10.3231 24.8098 10.604 25.6225 11.2168L26.7519 9.86346C25.774 9.12292 24.6583 8.71436 23.4462 8.71436C21.6969 8.72712 20.3058 9.85069 20.3058 11.3062C20.3058 13.0299 21.7796 13.6555 23.2671 14.1279C24.4517 14.5109 24.9613 14.7535 24.9613 15.4174C24.9613 15.9792 24.5068 16.375 23.5702 16.375C22.7988 16.375 21.8622 16.0048 21.1322 15.2387L19.9614 16.5666C20.9944 17.5496 22.2754 18.0093 23.5288 18.0093Z" fill="white"/>
<path d="M10.7661 28.7144H17.3086V27.1184H12.6806V24.9989H16.1516V23.4285H12.6806V21.2452H17.0194V19.6492H10.7661V28.7144Z" fill="white"/>
<path d="M17.868 28.7144H19.8927L20.5539 26.9013H24.3004L24.9752 28.7144H27L23.3637 19.6492H21.4905L17.868 28.7144ZM21.1048 25.3692L22.4133 21.8198H22.4409L23.7494 25.3692H21.1048Z" fill="white"/>
</svg>
