<svg width="24" height="25" viewBox="0 0 24 25" fill="none" xmlns="http://www.w3.org/2000/svg">
<path d="M14.7661 1.39697C14.8368 1.40426 14.9066 1.41896 14.9741 1.44092L15.0737 1.479L15.1694 1.52783C15.2307 1.56349 15.2879 1.60611 15.3403 1.65381L15.4155 1.72998L15.4819 1.81396C15.523 1.87162 15.5583 1.93356 15.5864 1.99854L15.6235 2.09912L15.6499 2.20264C15.6637 2.27231 15.6706 2.34355 15.6694 2.41455L15.6616 2.521C15.6595 2.5381 15.6569 2.55579 15.6538 2.57275L14.4927 8.92822C14.4817 8.98948 14.529 9.0454 14.5913 9.04541H18.9585C19.3052 9.04544 19.6215 9.24527 19.771 9.55811C19.9203 9.87104 19.8757 10.2426 19.6577 10.5122L10.1216 22.3003L10.1196 22.2983C10.0297 22.4105 9.91834 22.5041 9.78955 22.5688C9.65022 22.6389 9.49626 22.6751 9.34033 22.6753L9.33935 22.6743C9.19334 22.6744 9.04876 22.6429 8.9165 22.5815C8.78377 22.5198 8.66599 22.4299 8.57177 22.3179C8.47749 22.2057 8.40861 22.0737 8.3706 21.9321C8.33277 21.7908 8.32664 21.6426 8.35205 21.4985V21.4937L9.5083 15.1392C9.51922 15.0779 9.47194 15.021 9.40966 15.021H5.0415C4.69465 15.021 4.37839 14.8213 4.229 14.5083C4.07994 14.1954 4.12425 13.8247 4.34228 13.5552L13.8784 1.76904C13.967 1.65817 14.078 1.56738 14.2046 1.50244L14.312 1.45459C14.4226 1.41342 14.5401 1.39161 14.6587 1.39111L14.7661 1.39697Z" fill="white"/>
</svg>
