<svg width="19" height="19" viewBox="0 0 19 19" fill="none" xmlns="http://www.w3.org/2000/svg">
<path d="M10.8972 14.1297C11.1063 14.1297 11.3041 14.2271 11.4319 14.3926C11.5596 14.5582 11.6035 14.774 11.5505 14.9763L11.2759 16.0237C11.0343 16.9455 10.2015 17.5887 9.24852 17.5889C8.2933 17.5888 7.45847 16.9426 7.21898 16.0178L6.94872 14.9741C6.8964 14.7721 6.9404 14.557 7.0681 14.3919C7.1959 14.2268 7.39325 14.1297 7.60204 14.1297H10.8972Z" fill="#007AFF"/>
<path d="M9.24998 1.14601C10.727 1.14601 12.1087 1.71451 13.1399 2.74709C13.6496 3.25716 14.053 3.86357 14.3271 4.53053C14.6013 5.19748 14.7409 5.91223 14.7373 6.63332C14.7372 8.26596 14.1566 9.68509 13.0586 10.7334L12.8901 10.8938C12.2801 11.4711 11.4452 11.8749 11.4451 12.5564V12.6297C11.4451 12.7752 11.3868 12.9149 11.2839 13.0178C11.1811 13.1205 11.0418 13.1782 10.8965 13.1782H10.2109C10.1382 13.1782 10.0683 13.1491 10.0168 13.0977C9.96562 13.0463 9.93708 12.9768 9.937 12.9043V9.27077C9.93703 9.21539 9.95326 9.16115 9.9846 9.11549C10.016 9.06976 10.061 9.03506 10.1128 9.01515C10.4295 8.88624 10.5923 8.72102 10.8716 8.5237C10.9804 8.43591 11.0517 8.30993 11.0708 8.1714C11.0898 8.03283 11.0553 7.89196 10.9741 7.77809C10.8928 7.66419 10.7708 7.58545 10.6335 7.55836C10.4962 7.5313 10.3536 7.55786 10.2351 7.63234C9.98056 7.81135 9.49201 8.07765 9.24998 8.07765C9.00788 8.07757 8.51939 7.81201 8.26561 7.63234C8.20742 7.58599 8.14034 7.55164 8.06859 7.532C7.99676 7.51236 7.92115 7.50778 7.8474 7.51808C7.77377 7.52842 7.70299 7.55354 7.63939 7.59206C7.57578 7.63059 7.52079 7.68171 7.47752 7.7422C7.43423 7.80278 7.4033 7.8716 7.38744 7.94435C7.37157 8.01711 7.3711 8.09243 7.38524 8.16554C7.39938 8.23861 7.42764 8.30832 7.46947 8.36989C7.51131 8.43148 7.56564 8.48362 7.6284 8.5237C7.90768 8.72143 8.08354 8.88662 8.40038 9.01588C8.45215 9.03579 8.49642 9.07123 8.52782 9.11696C8.55919 9.16268 8.57617 9.21678 8.57616 9.27223V12.9043C8.57608 12.977 8.54697 13.0463 8.49559 13.0977C8.44421 13.149 8.37488 13.1782 8.30223 13.1782H7.60423C7.45876 13.1782 7.31894 13.1207 7.21605 13.0178C7.11315 12.9149 7.05565 12.7752 7.05565 12.6297V12.5564C7.05549 11.8583 6.21058 11.4537 5.593 10.8762L5.44359 10.7363C4.37606 9.7278 3.76346 8.23203 3.76341 6.63332C3.76169 5.91227 3.90209 5.19776 4.17723 4.53127C4.45237 3.86479 4.85684 3.25913 5.36668 2.74928C5.8764 2.23963 6.48169 1.83566 7.14793 1.56056C7.81439 1.28544 8.52897 1.14431 9.24998 1.14601Z" fill="#007AFF"/>
</svg>
