<svg width="20" height="21" viewBox="0 0 20 21" fill="none" xmlns="http://www.w3.org/2000/svg">
<path fill-rule="evenodd" clip-rule="evenodd" d="M10.0073 1.19043C15.0699 1.19054 19.174 5.29455 19.174 10.3571C19.174 15.4196 15.0699 19.5237 10.0073 19.5238C4.94472 19.5238 0.840668 15.4197 0.840668 10.3571C0.840668 5.29449 4.94472 1.19043 10.0073 1.19043ZM12.6945 7.17513C12.3279 6.94773 11.8537 7.03921 11.5959 7.3737L11.547 7.44369L8.61329 12.1711L7.6465 10.7738L7.59441 10.7062C7.32018 10.3852 6.84154 10.3176 6.48683 10.563C6.13205 10.8086 6.02713 11.2804 6.23129 11.6502L6.27605 11.7227L7.38771 13.3283C7.47505 13.4545 7.57203 13.5968 7.66521 13.7083C7.74745 13.8067 7.88345 13.9532 8.08758 14.055L8.17872 14.0957C8.49044 14.217 8.8378 14.208 9.14308 14.0713L9.2326 14.0265C9.43124 13.9147 9.55984 13.7619 9.63706 13.6595C9.72457 13.5435 9.81408 13.3961 9.89503 13.2656L12.9631 8.32259L13.0046 8.24772C13.1898 7.86821 13.0611 7.40262 12.6945 7.17513Z" fill="#007AFF"/>
</svg>
