<svg width="19" height="19" viewBox="0 0 19 19" fill="none" xmlns="http://www.w3.org/2000/svg">
<path d="M11.3246 1.37964C11.3776 1.38511 11.4299 1.39613 11.4806 1.4126L11.5553 1.44116L11.6271 1.47778C11.673 1.50452 11.7159 1.53649 11.7553 1.57227L11.8117 1.62939L11.8615 1.69238C11.8923 1.73562 11.9187 1.78208 11.9398 1.83081L11.9677 1.90625L11.9874 1.98389C11.9978 2.03614 12.0029 2.08957 12.0021 2.14282L11.9962 2.22266C11.9946 2.23549 11.9927 2.24875 11.9904 2.26147L11.1195 7.02808C11.1113 7.07402 11.1468 7.11596 11.1935 7.11597H14.4689C14.7289 7.11599 14.9662 7.26586 15.0783 7.50049C15.1902 7.73519 15.1568 8.01385 14.9933 8.21606L7.8412 17.0571L7.83973 17.0557C7.77229 17.1398 7.68877 17.21 7.59218 17.2585C7.48768 17.3111 7.37221 17.3382 7.25526 17.3384L7.25453 17.3376C7.14502 17.3377 7.03658 17.3141 6.93739 17.2681C6.83784 17.2218 6.74951 17.1543 6.67885 17.0703C6.60814 16.9862 6.55647 16.8872 6.52797 16.781C6.49959 16.675 6.495 16.5639 6.51405 16.4558V16.4521L7.38124 11.6863C7.38943 11.6403 7.35397 11.5977 7.30726 11.5977H4.03114C3.771 11.5976 3.53381 11.4479 3.42176 11.2131C3.30997 10.9784 3.34321 10.7004 3.50673 10.4983L10.6588 1.65869C10.7253 1.57554 10.8085 1.50744 10.9035 1.45874L10.984 1.42285C11.067 1.39197 11.1551 1.37561 11.244 1.37524L11.3246 1.37964Z" fill="#007AFF"/>
</svg>
