<svg width="106" height="32" viewBox="0 0 106 32" fill="none" xmlns="http://www.w3.org/2000/svg">
<path d="M12.7061 16.991C13.2304 18.0976 13.7788 19.1909 14.3419 20.27C14.779 21.1077 15.0372 21.6103 15.1681 21.9805C15.181 22.0172 15.1919 22.0499 15.2003 22.0778C15.1751 22.0872 15.1458 22.098 15.1123 22.1089C14.7456 22.2287 14.1987 22.3275 13.2771 22.4891L9.94887 23.0735C9.02757 23.2351 8.47986 23.3278 8.09409 23.34C8.05886 23.3411 8.02719 23.3412 8.00023 23.341C7.99858 23.3118 7.99774 23.2778 7.9973 23.2389C7.99289 22.8464 8.06324 22.2859 8.186 21.3494C8.34585 20.1299 8.4848 18.9021 8.59763 17.6698C9.99729 17.5258 11.3681 17.2976 12.7061 16.991Z" fill="#020203"/>
<path fill-rule="evenodd" clip-rule="evenodd" d="M9.68097 7.16364C11.4168 6.85923 12.2849 6.707 12.9447 7.07807C13.6044 7.44921 13.9377 8.31271 14.6049 10.0391C15.6311 12.6945 16.9435 15.6051 18.2959 18.3631C19.9327 21.7012 20.7509 23.3708 20.1135 24.6148C19.4761 25.8589 17.6958 26.1707 14.1356 26.795L10.6235 27.4115C7.06357 28.0358 5.28324 28.3479 4.25646 27.396C3.22969 26.4438 3.42434 24.5966 3.81452 20.9031C4.13689 17.8514 4.36854 14.6698 4.41974 11.8255C4.45302 9.97603 4.46998 9.05054 4.96239 8.47739C5.45483 7.90447 6.32317 7.75199 8.0589 7.44759L9.68097 7.16364ZM11.0537 9.92242C10.8316 9.79452 10.5477 9.84445 9.98114 9.94382L8.73158 10.1626C8.16527 10.2619 7.88239 10.3121 7.71766 10.5078C7.55293 10.7036 7.55301 10.9953 7.55438 11.5785C7.56037 14.1363 7.37851 16.7037 7.09289 19.2587C7.07814 19.3919 7.0642 19.5252 7.04889 19.6584C7.03134 19.8095 7.01335 19.9605 6.99511 20.1115C6.9525 20.4671 6.90865 20.8224 6.86214 21.1773C6.62745 22.9677 6.51035 23.8632 7.02542 24.3533C7.54073 24.8433 8.42061 24.6891 10.1806 24.3805L13.5088 23.797C15.1591 23.5076 16.0367 23.354 16.4 22.812C16.4242 22.7759 16.4458 22.7378 16.4655 22.6982C16.5049 22.6189 16.5325 22.5369 16.5496 22.4512C16.6697 21.8499 16.2579 21.0611 15.5259 19.6584C15.4877 19.5852 15.4515 19.5109 15.4135 19.4376C15.2074 19.0406 15.0033 18.6424 14.8024 18.2425C14.7763 18.1904 14.7502 18.1382 14.7242 18.086C13.5477 15.7337 12.468 13.3319 11.5749 10.8735C11.3756 10.325 11.2758 10.0504 11.0537 9.92242Z" fill="#020203"/>
<path fill-rule="evenodd" clip-rule="evenodd" d="M70.2472 11.9081C71.6497 11.9082 72.8047 12.4269 73.7114 13.466C74.6181 14.491 75.0714 15.8961 75.0714 17.6795C75.0713 19.4624 74.6178 20.8735 73.7114 21.9125C72.8188 22.9375 71.6704 23.4508 70.2677 23.4508C68.7521 23.4507 67.5906 22.8465 66.7831 21.6392V27.4106H63.446V12.16H66.5494V14.0348C67.3428 12.6168 68.5755 11.9081 70.2472 11.9081ZM69.1844 14.4773C68.391 14.4773 67.7674 14.7724 67.314 15.3622C66.8607 15.9519 66.6345 16.7247 66.6345 17.6795C66.6345 18.634 66.8608 19.4062 67.314 19.9958C67.7674 20.5856 68.391 20.8807 69.1844 20.8807C69.9778 20.8807 70.6015 20.5856 71.0548 19.9958C71.5222 19.4062 71.7558 18.634 71.7559 17.6795C71.7559 16.7247 71.5223 15.9519 71.0548 15.3622C70.6015 14.7724 69.9778 14.4773 69.1844 14.4773Z" fill="#020203"/>
<path d="M31.0818 20.8535L32.7772 20.2759C34.5167 19.6835 36.417 19.7553 38.1059 20.4772V23.305L37.6376 23.1027C36.2605 22.5108 34.6988 22.502 33.315 23.0784C31.7875 23.7147 30.0975 23.8635 28.481 23.5034L27.5903 23.305V8.53574H31.0818V20.8535Z" fill="#020203"/>
<path fill-rule="evenodd" clip-rule="evenodd" d="M44.3996 11.9081C46.0571 11.9081 47.3393 12.3078 48.2461 13.1081C49.167 13.8944 49.6276 15.0952 49.6276 16.71V23.198H46.5243V21.3232C45.6883 22.7412 44.3567 23.4508 42.5292 23.4508C41.325 23.4508 40.3973 23.141 39.7456 22.5231C39.0939 21.9053 38.7678 21.1051 38.7678 20.1222C38.7679 18.0441 40.3688 16.8581 43.5705 16.5631L46.2906 16.3103V16.0147C46.2904 14.8354 45.6604 14.2385 44.3996 14.2244C43.833 14.2244 43.3722 14.3436 43.0181 14.5823C42.6781 14.8209 42.4867 15.1723 42.4441 15.6354H39.3838C39.4264 14.3297 39.9154 13.3818 40.8504 12.7921C41.7855 12.2023 42.9687 11.9081 44.3996 11.9081ZM44.0173 18.5002C42.7139 18.6126 42.0618 19.0974 42.0618 19.954C42.0619 20.333 42.1966 20.6347 42.4656 20.8593C42.7348 21.07 43.1176 21.1754 43.6135 21.1754C44.3926 21.1753 45.0302 20.937 45.526 20.4597C46.036 19.9682 46.2906 19.3779 46.2906 18.6898V18.2688L44.0173 18.5002Z" fill="#020203"/>
<path fill-rule="evenodd" clip-rule="evenodd" d="M54.2514 13.677C55.0447 12.4975 56.1996 11.9082 57.7155 11.9081C59.118 11.9081 60.2729 12.427 61.1796 13.466C62.0864 14.491 62.5397 15.8961 62.5397 17.6795C62.5396 19.4626 62.0863 20.8734 61.1796 21.9125C60.2871 22.9375 59.1396 23.4508 57.737 23.4508C56.0652 23.4508 54.8252 22.7267 54.0177 21.2804V23.198H50.9153V7.69459H54.2514V13.677ZM56.6527 14.4773C55.8595 14.4774 55.2365 14.7726 54.7832 15.3622C54.3299 15.952 54.1027 16.7246 54.1027 17.6795C54.1028 18.6341 54.3299 19.4061 54.7832 19.9958C55.2365 20.5855 55.8595 20.8806 56.6527 20.8807C57.4461 20.8807 58.0697 20.5856 58.5231 19.9958C58.9906 19.4061 59.2241 18.6341 59.2241 17.6795C59.2241 16.7246 58.9907 15.952 58.5231 15.3622C58.0697 14.7724 57.4461 14.4773 56.6527 14.4773Z" fill="#020203"/>
<path d="M86.0583 11.9081C87.5459 11.9081 88.7932 12.2729 89.7991 13.0031C90.8048 13.7332 91.3856 14.7582 91.5415 16.0779L88.311 16.3521C88.1835 15.7483 87.9216 15.2845 87.5249 14.9615C87.1282 14.6386 86.6392 14.4773 86.0583 14.4773C85.3074 14.4773 84.7121 14.7651 84.2729 15.3408C83.8337 15.9025 83.6139 16.6825 83.6139 17.6795C83.614 18.6903 83.8338 19.477 84.2729 20.0386C84.7263 20.6002 85.35 20.8807 86.1433 20.8807C86.7809 20.8807 87.2983 20.7121 87.695 20.3751C88.0915 20.0381 88.3463 19.5538 88.4596 18.9222L91.6901 19.1323C91.5484 20.5084 90.9678 21.5762 89.9477 22.3345C88.9418 23.0787 87.6735 23.4508 86.1433 23.4508C84.3299 23.4508 82.9058 22.9522 81.8716 21.9553C80.8374 20.9443 80.32 19.5188 80.3199 17.6795C80.3199 15.84 80.8301 14.4211 81.8501 13.4241C82.8843 12.4131 84.2873 11.9081 86.0583 11.9081Z" fill="#020203"/>
<path d="M96.9318 11.9081C98.3626 11.9082 99.567 12.2023 100.545 12.7921C101.522 13.3678 102.082 14.2597 102.223 15.4672L99.163 15.615C98.993 14.6883 98.2492 14.2245 96.9318 14.2244C95.9542 14.2244 95.4651 14.5196 95.4651 15.1094C95.4652 15.3621 95.5714 15.5656 95.7839 15.72C96.0105 15.8745 96.3788 16.0221 96.8887 16.1625L99.4182 16.7732C101.472 17.3068 102.5 18.4022 102.5 20.059C102.5 21.2105 102.004 22.0675 101.012 22.6291C100.034 23.1767 98.7521 23.4508 97.1654 23.4508C93.8218 23.4508 92.0434 22.2217 91.8309 19.7644L94.8697 19.638C95.0255 20.635 95.8195 21.1336 97.2505 21.1336C98.5822 21.1335 99.248 20.831 99.248 20.2272C99.2479 19.9887 99.1132 19.7923 98.8442 19.638C98.5892 19.4694 98.1496 19.3082 97.5262 19.1537L95.0193 18.5002C93.1491 18.0087 92.2132 16.9208 92.2132 15.2358C92.2132 14.0843 92.6601 13.242 93.5527 12.7084C94.4453 12.1748 95.5716 11.9081 96.9318 11.9081Z" fill="#020203"/>
<path d="M79.3568 23.198H76.0198V12.16H79.3568V23.198Z" fill="#020203"/>
<path d="M79.4624 10.7286H75.9347V7.821H79.4624V10.7286Z" fill="#020203"/>
<path d="M11.0166 2.00783C11.3592 2.05048 11.6741 2.21702 11.9014 2.47557C12.0408 2.63423 12.1376 2.84859 12.3297 3.27685C12.4795 3.61102 12.5539 3.77835 12.5555 3.92351C12.558 4.16127 12.4392 4.3847 12.2397 4.51572C12.1179 4.59563 11.9362 4.62721 11.5739 4.69076L5.74947 5.71181C5.42097 5.76942 5.25625 5.7989 5.12469 5.7721C4.88652 5.72343 4.68986 5.55548 4.60551 5.32867C4.55903 5.20339 4.56269 5.03693 4.57031 4.70534C4.58097 4.24174 4.58705 4.00988 4.65146 3.81363C4.76776 3.45963 5.02117 3.16558 5.35544 2.99776C5.54074 2.90484 5.7705 2.86433 6.22954 2.78383L10.1092 2.1041C10.5735 2.02267 10.8063 1.98173 11.0166 2.00783Z" fill="#020203"/>
</svg>
