<svg width="24" height="25" viewBox="0 0 24 25" fill="none" xmlns="http://www.w3.org/2000/svg">
<path fill-rule="evenodd" clip-rule="evenodd" d="M20.5625 8.43408C20.9822 8.43408 21.3221 8.77422 21.3223 9.19385V16.3354C21.3221 18.9586 19.1955 21.0854 16.5723 21.0854H7.42676C4.8037 21.0853 2.67697 18.9585 2.67676 16.3354V9.19385C2.67688 8.77445 3.01711 8.43441 3.43652 8.43408H20.5625ZM9.55371 10.2251C8.30859 10.2251 7.50781 10.8013 7.19531 11.4897C7.12208 11.6558 7.08789 11.7974 7.08789 11.9634C7.08799 12.3197 7.29795 12.5591 7.70801 12.5591C8.03972 12.559 8.21102 12.4368 8.37207 12.105C8.60156 11.6069 8.96289 11.3579 9.55859 11.3579C10.2712 11.3581 10.6523 11.734 10.6523 12.3003C10.6522 12.8762 10.1734 13.2767 9.43652 13.2769H9.14844C8.79199 13.2769 8.58691 13.4917 8.58691 13.7993C8.58702 14.1166 8.79209 14.3267 9.14844 14.3267H9.45605C10.3103 14.3268 10.8135 14.7077 10.8086 15.3911C10.8085 15.9768 10.3102 16.3968 9.58789 16.397C8.85566 16.397 8.47461 16.1038 8.22559 15.6108C8.07918 15.3424 7.89327 15.2252 7.60059 15.2251C7.19531 15.2251 6.95117 15.4644 6.95117 15.8452C6.95121 15.9916 6.9854 16.148 7.06348 16.3091C7.39563 17.0023 8.22096 17.5835 9.56348 17.5835C11.1988 17.5833 12.3075 16.7336 12.3076 15.4546C12.3076 14.4831 11.6286 13.8678 10.5791 13.77V13.7407C11.4089 13.5697 12.0487 12.9836 12.0488 12.0903C12.0488 10.9625 11.0427 10.2253 9.55371 10.2251ZM15.6279 10.2739C15.3253 10.2739 15.0907 10.318 14.749 10.5522L13.3525 11.519C13.123 11.6802 13.0352 11.8462 13.0352 12.0708C13.0353 12.3832 13.255 12.5981 13.5527 12.5981C13.7038 12.5981 13.8068 12.5639 13.9434 12.4663L14.9736 11.7485H15.0029V16.7925C15.003 17.2367 15.3009 17.5298 15.7354 17.5298C16.1696 17.5296 16.4628 17.2365 16.4629 16.7925V11.0991C16.4629 10.5915 16.1501 10.2741 15.6279 10.2739Z" fill="#007AFF"/>
<path d="M16.1709 1.03467C16.5849 1.0348 16.9207 1.37073 16.9209 1.78467V2.43799H17.5811C19.6475 2.43824 21.3223 4.11368 21.3223 6.18018C21.3219 6.59812 20.9834 6.93684 20.5654 6.93701H3.43457C3.01672 6.93681 2.67711 6.5982 2.67676 6.18018C2.67676 4.11365 4.35246 2.43819 6.41895 2.43799H7.09863V1.78467C7.09886 1.37073 7.43467 1.0348 7.84863 1.03467C8.26271 1.03467 8.59841 1.37064 8.59863 1.78467V2.43799H15.4209V1.78467C15.4211 1.37064 15.7568 1.03467 16.1709 1.03467Z" fill="#007AFF"/>
</svg>
