<svg width="19" height="19" viewBox="0 0 19 19" fill="none" xmlns="http://www.w3.org/2000/svg">
<path d="M9.75366 4.17822C10.1265 4.17822 10.429 4.48072 10.429 4.85352V8.68481H14.2603L14.3291 8.68848C14.6695 8.72306 14.9355 9.01063 14.9355 9.36011C14.9354 9.70945 14.6694 9.9972 14.3291 10.0317L14.2603 10.0354H10.429V13.8733L10.4253 13.9421C10.3909 14.2827 10.1033 14.5486 9.75366 14.5486C9.40405 14.5486 9.11643 14.2827 9.08203 13.9421L9.07837 13.8733V10.0354H5.24048C4.86781 10.0354 4.56465 9.73273 4.56445 9.36011C4.56445 8.98732 4.86769 8.68481 5.24048 8.68481H9.07837V4.85352C9.07837 4.48072 9.38087 4.17822 9.75366 4.17822Z" fill="#007AFF"/>
</svg>
