<svg width="32" height="33" viewBox="0 0 32 33" fill="none" xmlns="http://www.w3.org/2000/svg">
<path fill-rule="evenodd" clip-rule="evenodd" d="M16.3086 3.78564C16.9411 2.09635 19.232 1.46113 20.6003 2.81429L24.9557 7.12028C25.7883 7.94373 26.079 9.16768 25.681 10.2765L25.2005 11.6138C25.197 11.6237 25.1957 11.6306 25.1953 11.6333C25.1973 11.6379 25.2052 11.6511 25.224 11.6672C25.2465 11.6864 25.273 11.6984 25.2969 11.7023C25.3151 11.7052 25.3434 11.7056 25.3867 11.6854C26.3421 11.2389 27.4904 11.4275 28.2461 12.175L28.7279 12.6515C30.0849 13.9938 30.0586 16.1605 28.6693 17.4692L21.1706 24.5317C21.3966 25.3657 21.1672 26.2933 20.487 26.9341L19.0886 28.2505C17.8483 29.4185 15.878 29.3938 14.6667 28.1958L13.8737 27.4119C13.5298 27.0718 12.7394 27.0761 12.3099 27.6515C11.3773 28.9022 10.1098 30.2253 8.62371 30.869C7.85867 31.2002 7.0001 31.366 6.09897 31.2101C5.19313 31.0534 4.34998 30.5895 3.59115 29.839C2.83388 29.09 2.36098 28.2537 2.21615 27.3468C2.0718 26.4427 2.27432 25.5935 2.64193 24.852C3.35224 23.4199 4.75748 22.229 6.06772 21.3651C6.34305 21.1835 6.51075 20.9034 6.5547 20.6307C6.59662 20.37 6.52593 20.1456 6.35678 19.9783L5.56381 19.1932C4.32924 17.9719 4.35296 15.9985 5.6172 14.8078L7.01563 13.4914C7.69429 12.8523 8.64748 12.6641 9.48829 12.9211L12.5859 10.0031C14.2458 8.43972 15.5264 5.87623 16.3086 3.78564ZM8.7448 15.1984C8.70234 15.198 8.67239 15.2133 8.65365 15.231L7.25522 16.5474C6.97563 16.8109 6.97036 17.2251 7.2435 17.4953L8.03647 18.2804C9.62704 19.8536 8.99976 22.2937 7.38282 23.3599C6.18046 24.1527 5.20636 25.056 4.78126 25.9132C4.58124 26.3167 4.52632 26.6625 4.57553 26.9705C4.62437 27.276 4.79553 27.671 5.27084 28.1411C5.74472 28.6097 6.16139 28.7962 6.50652 28.856C6.8561 28.9164 7.23997 28.8644 7.67449 28.6763C8.58801 28.2806 9.54927 27.3579 10.3945 26.2244C11.5432 24.6841 14.009 24.1853 15.5534 25.7127L16.3464 26.4979C16.6432 26.7913 17.1467 26.7971 17.4505 26.5109L18.849 25.1945C18.8584 25.1855 18.8619 25.1792 18.8633 25.1763L18.8659 25.1698V25.1658C18.8659 25.1624 18.8647 25.1577 18.8633 25.1541C18.862 25.151 18.8582 25.1451 18.849 25.1359L8.83725 15.2323C8.81887 15.2141 8.78753 15.1989 8.7448 15.1984ZM18.7344 4.48226C18.6194 4.50974 18.5627 4.57736 18.5456 4.62288C17.7253 6.81531 16.2879 9.7963 14.2227 11.7414L11.3958 14.4041L19.7096 22.6268L27.0313 15.731C27.4363 15.3494 27.4438 14.7407 27.0482 14.3494L26.5664 13.8729C26.5509 13.8575 26.5259 13.8434 26.4922 13.8377C26.4587 13.8321 26.426 13.8366 26.3984 13.8494C24.4962 14.7389 22.1693 12.9895 22.9531 10.8065L23.4323 9.46923C23.5105 9.25135 23.4601 9.00169 23.2761 8.8195L18.9206 4.5122C18.8984 4.49045 18.8438 4.45626 18.7344 4.48226Z" fill="#007AFF"/>
</svg>
