<svg width="32" height="33" viewBox="0 0 32 33" fill="none" xmlns="http://www.w3.org/2000/svg">
<path d="M12.1451 11.3899C12.9394 9.6644 15.4168 9.66463 16.2113 11.3899L16.2855 11.5676L18.1825 16.7169L23.3176 18.6245C25.2117 19.3284 25.2706 21.9544 23.4947 22.7782L23.3176 22.8527L18.1838 24.7577L16.2855 29.9096C15.5616 31.8718 12.7962 31.8717 12.0722 29.9096L10.1713 24.7564L5.04011 22.8527C3.08448 22.1263 3.08449 19.3509 5.04011 18.6245L10.1713 16.7169L12.0722 11.5676L12.1451 11.3899ZM12.399 17.6197C12.1715 18.2368 11.6859 18.7241 11.071 18.9525L6.26139 20.7373L11.071 22.5247C11.6089 22.7245 12.0477 23.1219 12.3014 23.6314L12.399 23.8561L14.1776 28.6827L15.9587 23.8561L16.055 23.6314C16.3086 23.1218 16.7475 22.7246 17.2854 22.5247L22.095 20.7373L17.2854 18.9525C16.6707 18.7241 16.1862 18.2367 15.9587 17.6197L14.1776 12.7932L12.399 17.6197ZM22.6575 2.31167C23.3204 1.96001 24.1143 1.95982 24.7771 2.31167L24.975 2.43449C25.4088 2.74537 25.6511 3.21106 25.8018 3.53203C25.9978 3.94931 26.2034 4.51195 26.4424 5.16005L26.665 5.76239C26.6905 5.83141 26.7101 5.88512 26.7275 5.93094C26.7346 5.94955 26.743 5.96564 26.7484 5.97928C26.762 5.9847 26.7779 5.99305 26.7965 6.00019C26.8423 6.01767 26.8956 6.03732 26.9645 6.0629L27.5647 6.28633C28.2106 6.52619 28.7712 6.73252 29.187 6.92918C29.5525 7.10202 30.1062 7.39486 30.4031 7.95747L30.519 8.21356C30.7159 8.73366 30.7159 9.30972 30.519 9.82982L30.4031 10.0846L30.2807 10.2832C29.971 10.7186 29.5069 10.9616 29.187 11.1129C28.7712 11.3095 28.2106 11.5172 27.5647 11.757L26.9645 11.9792C26.8957 12.0047 26.8422 12.0257 26.7965 12.0432C26.7776 12.0504 26.7608 12.0573 26.7471 12.0628C26.7417 12.0764 26.7346 12.0926 26.7275 12.1111C26.7101 12.157 26.6905 12.2107 26.665 12.2797L26.4424 12.882C26.2034 13.5301 25.9977 14.0927 25.8018 14.51C25.6511 14.831 25.409 15.2978 24.975 15.6089L24.7771 15.7317L24.5219 15.8467C23.9171 16.0774 23.2374 16.0394 22.6575 15.7317C22.0963 15.4338 21.8051 14.8769 21.6328 14.51C21.4368 14.0926 21.2299 13.5303 20.9909 12.882L20.7696 12.2797C20.744 12.2104 20.7232 12.1571 20.7058 12.1111C20.6986 12.0921 20.693 12.0753 20.6876 12.0615C20.6737 12.056 20.6571 12.0505 20.6381 12.0432C20.5923 12.0257 20.5392 12.0048 20.4701 11.9792L19.8699 11.757C19.2238 11.5171 18.6636 11.3096 18.2476 11.1129C17.882 10.94 17.3271 10.6478 17.0302 10.0846C16.6799 9.41939 16.6796 8.6226 17.0302 7.95747C17.3272 7.3946 17.8822 7.102 18.2476 6.92918C18.6635 6.73255 19.2241 6.52616 19.8699 6.28633L20.4701 6.0629C20.539 6.03735 20.5924 6.01767 20.6381 6.00019C20.6566 5.99307 20.6727 5.98597 20.6863 5.98059C20.6917 5.96678 20.6986 5.94987 20.7058 5.93094C20.7232 5.88511 20.7441 5.83142 20.7696 5.76239L20.9909 5.16005C21.2299 4.51194 21.4369 3.94931 21.6328 3.53203C21.8052 3.16513 22.0968 2.6093 22.6575 2.31167ZM6.21842 2.32343C6.8034 2.01296 7.50314 2.01291 8.0881 2.32343L8.27038 2.43579C8.66577 2.71927 8.87399 3.13424 8.98778 3.37654C9.14154 3.70413 9.30146 4.14123 9.47863 4.62173L9.72862 5.29855C9.733 5.31038 9.73776 5.32201 9.74164 5.33252C9.75216 5.33644 9.76363 5.34118 9.77549 5.34558L10.4499 5.59645C10.9289 5.77429 11.3643 5.93469 11.6907 6.08904C11.967 6.21971 12.4673 6.47428 12.7401 6.99189L12.8417 7.21663C13.0157 7.67586 13.0158 8.18423 12.8417 8.64343L12.7401 8.86817L12.6282 9.05109C12.3457 9.44808 11.9323 9.65679 11.6907 9.77102C11.3642 9.92542 10.929 10.0857 10.4499 10.2636L9.77549 10.5145C9.76363 10.5189 9.75216 10.5223 9.74164 10.5262C9.73761 10.5371 9.73317 10.5492 9.72862 10.5615L9.47863 11.2396C9.3015 11.72 9.14152 12.1561 8.98778 12.4835C8.87394 12.7259 8.66592 13.1409 8.27038 13.4243L8.0881 13.5379L7.86415 13.6399C7.33059 13.8435 6.73007 13.8091 6.21842 13.5379C5.70259 13.2641 5.44897 12.7608 5.31874 12.4835C5.16503 12.1562 5.00497 11.7199 4.82789 11.2396L4.5779 10.5615C4.57344 10.5494 4.5701 10.537 4.56618 10.5262C4.55545 10.5222 4.54318 10.519 4.53103 10.5145L3.85529 10.2636C3.3767 10.0859 2.94207 9.92528 2.61579 9.77102C2.33974 9.64048 1.83821 9.38579 1.56507 8.86817C1.25605 8.28146 1.25611 7.57862 1.56507 6.99189C1.83817 6.47379 2.33965 6.21962 2.61579 6.08904C2.94215 5.9347 3.37643 5.77427 3.85529 5.59645L4.53103 5.34558C4.54348 5.34096 4.5552 5.3366 4.56618 5.33252C4.57004 5.32207 4.57359 5.31031 4.5779 5.29855L4.82789 4.62173C5.0051 4.14112 5.16494 3.70416 5.31874 3.37654C5.44891 3.09937 5.70235 2.59739 6.21842 2.32343ZM23.7173 4.755C23.5944 5.04493 23.4469 5.44069 23.2421 5.99627L23.0194 6.59861C22.9609 6.75725 22.8868 6.97299 22.7734 7.18527L22.6458 7.39433L22.526 7.54981C22.4424 7.64955 22.3506 7.74288 22.2513 7.82681L22.0963 7.94702L21.888 8.07506C21.6763 8.18913 21.4604 8.26325 21.3021 8.32201L20.7019 8.54413C20.1489 8.74948 19.7551 8.8978 19.4663 9.02104C19.7551 9.14431 20.1486 9.2925 20.7019 9.49795L21.3021 9.72137C21.513 9.7997 21.8255 9.9052 22.0963 10.0964L22.2513 10.2166C22.4004 10.3425 22.5333 10.4874 22.6458 10.6477L22.7734 10.8568C22.8871 11.0694 22.9609 11.2859 23.0194 11.4448L23.2421 12.0471C23.4467 12.6022 23.5945 12.9972 23.7173 13.2871C23.8401 12.9972 23.9879 12.602 24.1925 12.0471L24.4139 11.4448C24.4919 11.2331 24.5972 10.9193 24.7876 10.6477C24.9377 10.4336 25.1249 10.247 25.3383 10.0964C25.6089 9.90551 25.9204 9.79964 26.1312 9.72137L26.7314 9.49795C27.2851 9.29234 27.6794 9.14437 27.9683 9.02104C27.6794 8.8977 27.2852 8.74975 26.7314 8.54413L26.1312 8.32201C25.9204 8.24372 25.609 8.13799 25.3383 7.94702C25.1247 7.79625 24.9378 7.60866 24.7876 7.39433C24.5973 7.12267 24.4919 6.81013 24.4139 6.59861L24.1925 5.99627C23.9877 5.44073 23.8402 5.04494 23.7173 4.755ZM7.07774 5.45664L6.82906 6.13346C6.78931 6.2413 6.72626 6.42556 6.62595 6.61298L6.51267 6.79982L6.40721 6.93702C6.33327 7.02525 6.25165 7.10714 6.16374 7.18135L6.02703 7.28718L5.84084 7.40086C5.65375 7.50174 5.47047 7.56479 5.36301 7.60469L4.68857 7.85425C4.61796 7.88047 4.5514 7.90642 4.48806 7.93003C4.55129 7.9536 4.6181 7.97964 4.68857 8.00581L5.36301 8.25537C5.50639 8.30859 5.78482 8.40196 6.02703 8.57288L6.16374 8.67871C6.29546 8.78995 6.41335 8.91853 6.51267 9.06024L6.62595 9.24708C6.72627 9.43462 6.78935 9.6189 6.82906 9.7266L7.07774 10.4034C7.1038 10.4741 7.12979 10.5412 7.15326 10.6046C7.17674 10.5412 7.2027 10.4741 7.22878 10.4034L7.47746 9.7266C7.53045 9.58288 7.62341 9.30353 7.79384 9.06024C7.92639 8.87114 8.09106 8.7059 8.27949 8.57288C8.52193 8.40185 8.8003 8.30855 8.94351 8.25537L9.61795 8.00581C9.68899 7.97943 9.75607 7.95377 9.81976 7.93003C9.75619 7.90633 9.68884 7.88058 9.61795 7.85425L8.94351 7.60469C8.80038 7.55154 8.52184 7.45804 8.27949 7.28718C8.09121 7.15428 7.92634 6.98872 7.79384 6.79982C7.62362 6.55687 7.5305 6.27739 7.47746 6.13346L7.22878 5.45664C7.20257 5.38556 7.17686 5.31786 7.15326 5.25412C7.12964 5.31792 7.10398 5.38549 7.07774 5.45664Z" fill="#007AFF"/>
</svg>
