<svg width="32" height="33" viewBox="0 0 32 33" fill="none" xmlns="http://www.w3.org/2000/svg">
<path fill-rule="evenodd" clip-rule="evenodd" d="M17.487 2.04785C18.593 2.04802 19.6587 2.4702 20.4635 3.22884L26.776 9.18067C27.8822 10.2308 28.5116 11.688 28.5169 13.2132V19.764C28.5169 21.0031 28.5174 21.9956 28.4518 22.7979C28.3845 23.6216 28.242 24.3354 27.9076 24.9919C27.372 26.0426 26.5169 26.8978 25.4661 27.4333C25.1716 27.5833 24.8641 27.6907 24.5417 27.7731C24.4763 27.9637 24.4007 28.1495 24.3086 28.3304C23.7731 29.3814 22.9182 30.2362 21.8672 30.7718C21.2107 31.1063 20.4971 31.2488 19.6732 31.3161C18.8709 31.3816 17.8784 31.3812 16.6393 31.3812H11.7617C10.5226 31.3812 9.53012 31.3816 8.72787 31.3161C7.90397 31.2488 7.19036 31.1063 6.53385 30.7718C5.48284 30.2362 4.62799 29.3815 4.09245 28.3304C3.75818 27.6741 3.61679 26.9612 3.54948 26.1377C3.48392 25.3353 3.48437 24.3419 3.48438 23.1025V13.665C3.48437 12.4259 3.48393 11.4334 3.54948 10.6312C3.6168 9.8073 3.75794 9.09368 4.09245 8.43718C4.62804 7.38615 5.4828 6.53131 6.53385 5.99577C6.82835 5.84573 7.13485 5.73642 7.45703 5.65332C7.52224 5.46334 7.60083 5.27898 7.69271 5.09863C8.2283 4.04761 9.08306 3.19277 10.1341 2.65723C10.7903 2.32304 11.5034 2.18026 12.3268 2.11296C13.1291 2.04745 14.123 2.04784 15.362 2.04785H17.487ZM11.806 7.43978C10.5122 7.43978 9.60344 7.44045 8.89453 7.49837C8.1978 7.55531 7.78509 7.66274 7.46615 7.8252C6.80113 8.16404 6.25941 8.70445 5.92057 9.36947C5.75818 9.68834 5.65199 10.1014 5.59505 10.7979C5.53713 11.5068 5.53646 12.4167 5.53646 13.7106V23.0583C5.53646 24.3519 5.53717 25.2608 5.59505 25.9697C5.65199 26.6666 5.75808 27.0804 5.92057 27.3994C6.25941 28.0644 6.80113 28.6048 7.46615 28.9437C7.78508 29.1061 8.19787 29.2136 8.89453 29.2705C9.60344 29.3284 10.5122 29.3291 11.806 29.3291H16.5951C17.8888 29.3291 18.7976 29.3284 19.5065 29.2705C20.2032 29.2136 20.616 29.1061 20.9349 28.9437C21.5999 28.6048 22.1416 28.0644 22.4805 27.3994C22.643 27.0804 22.7491 26.6666 22.806 25.9697C22.8639 25.2608 22.8646 24.3519 22.8646 23.0583V17.6143H17.4961C16.892 17.6143 16.3767 17.6149 15.9544 17.5804C15.5109 17.5441 15.0791 17.465 14.6667 17.2549C14.0447 16.9379 13.5396 16.4315 13.2227 15.8096C13.0124 15.397 12.9321 14.9654 12.8958 14.5218C12.8613 14.0995 12.862 13.5842 12.862 12.9801V7.43978H11.806ZM24.4219 14.2757C24.7417 14.9847 24.9139 15.7593 24.9167 16.5531V23.1025C24.9167 23.9826 24.9154 24.7388 24.8919 25.3903C25.3925 25.0557 25.804 24.6002 26.0794 24.0596C26.2418 23.7407 26.3493 23.3276 26.4062 22.6312C26.4642 21.9223 26.4648 21.0133 26.4648 19.7197V14.2757H24.4219ZM14.9141 12.9398C14.9141 13.5948 14.9146 14.0252 14.9414 14.3538C14.9672 14.67 15.0126 14.8021 15.0508 14.8773C15.171 15.1133 15.363 15.3052 15.599 15.4255C15.6741 15.4637 15.8057 15.509 16.1224 15.5348C16.4511 15.5617 16.8812 15.5622 17.5365 15.5622H22.7174C22.5425 14.9755 22.2167 14.4383 21.7643 14.0088L15.4557 8.06218C15.2931 7.90891 15.1104 7.78191 14.9141 7.68327V12.9398ZM18.513 8.12337L22.862 12.2236H26.3177C26.1428 11.6368 25.8157 11.0985 25.3633 10.6689L19.056 4.72233C18.8934 4.56906 18.7093 4.44208 18.513 4.34343V8.12337ZM15.4062 4.09994C14.113 4.09994 13.2036 4.1007 12.4948 4.15853C11.7982 4.21544 11.384 4.32296 11.0651 4.48535C10.626 4.7091 10.2419 5.022 9.93359 5.39941C10.4748 5.38855 11.081 5.38769 11.7617 5.3877H13.888C14.8194 5.38772 15.7187 5.69035 16.4609 6.23796V4.09994H15.4062Z" fill="#007AFF"/>
</svg>
