<svg width="32" height="33" viewBox="0 0 32 33" fill="none" xmlns="http://www.w3.org/2000/svg">
<path d="M10.6729 19.5868C12.6545 19.5869 14.592 20.1864 16.1833 21.3055L16.4763 21.5203C17.8228 22.5508 18.8319 23.9267 19.3656 25.4917L19.4724 25.8289L19.501 25.9487C19.6117 26.5465 19.2532 27.1426 18.6573 27.3172C18.0611 27.4915 17.4383 27.1824 17.2093 26.6193L17.169 26.5021L17.0935 26.2664C16.72 25.1716 16.0053 24.1822 15.0179 23.4266L14.8018 23.269C13.6279 22.4435 12.1766 21.988 10.6729 21.9878C9.26317 21.9878 7.89887 22.3879 6.76663 23.118L6.54267 23.269C5.37044 24.0935 4.54756 25.2347 4.17678 26.5021L4.13642 26.6193C3.90754 27.1826 3.28337 27.4914 2.6872 27.3172C2.05145 27.131 1.68618 26.4649 1.8721 25.8289L1.98017 25.4904C2.55209 23.8144 3.66945 22.3555 5.16246 21.3055C6.75386 20.1865 8.6912 19.5868 10.6729 19.5868Z" fill="#007AFF"/>
<path d="M23.2523 20.1479C24.8506 20.1481 26.3901 20.7285 27.6325 21.7743L27.8617 21.9735C28.9809 22.9985 29.7728 24.3663 30.1429 25.881C30.3 26.5246 29.9049 27.1741 29.2614 27.3315C28.6178 27.4888 27.9684 27.0949 27.8109 26.4513C27.5654 25.4465 27.0648 24.5588 26.3877 23.8849L26.0869 23.6102C25.2598 22.914 24.2627 22.5491 23.2523 22.549C22.7478 22.549 22.2477 22.6396 21.7718 22.8159C21.1506 23.046 20.4606 22.7287 20.2302 22.1076C19.9999 21.4862 20.3171 20.7963 20.9385 20.5659C21.6766 20.2924 22.4582 20.148 23.2523 20.1479Z" fill="#007AFF"/>
<path fill-rule="evenodd" clip-rule="evenodd" d="M23.5088 8.85628C26.1416 8.98984 28.2353 11.1668 28.2354 13.8328L28.2289 14.0894C28.0954 16.7222 25.9183 18.8158 23.2523 18.8159L22.9958 18.8094C20.4479 18.6802 18.4049 16.6373 18.2757 14.0894L18.2692 13.8328C18.2693 11.0808 20.5003 8.84982 23.2523 8.84977L23.5088 8.85628ZM23.2523 11.2495C21.8257 11.2496 20.669 12.4063 20.669 13.8328C20.669 15.2595 21.8257 16.4161 23.2523 16.4162C24.6789 16.4161 25.8356 15.2594 25.8356 13.8328C25.8356 12.4063 24.6788 11.2496 23.2523 11.2495Z" fill="#007AFF"/>
<path fill-rule="evenodd" clip-rule="evenodd" d="M11.014 4.10628C14.5319 4.28431 17.33 7.19276 17.3304 10.7547L17.3213 11.0972C17.1433 14.6153 14.234 17.4136 10.6716 17.4136L10.3291 17.4045C6.92471 17.2317 4.19543 14.5017 4.02314 11.0972L4.01402 10.7547C4.01451 7.07821 6.99501 4.09744 10.6716 4.09717L11.014 4.10628ZM10.6716 6.49691C8.32049 6.49718 6.41425 8.40369 6.41376 10.7547C6.41376 13.1062 8.32019 15.0123 10.6716 15.0125C13.0232 15.0125 14.9294 13.1063 14.9294 10.7547C14.9289 8.40352 13.0229 6.49691 10.6716 6.49691Z" fill="#007AFF"/>
</svg>
