<svg width="13" height="13" viewBox="0 0 13 13" fill="none" xmlns="http://www.w3.org/2000/svg">
<g clip-path="url(#clip0_83_530)">
<path d="M5.02421 4.8901C5.21509 4.37429 5.94466 4.37428 6.13553 4.8901L6.85673 6.83932C6.87621 6.89192 6.91791 6.93358 6.9705 6.95309L8.9202 7.67477C9.4197 7.85975 9.43536 8.55001 8.96708 8.76657L8.9202 8.7861L6.9705 9.50729C6.91785 9.52678 6.87623 9.56842 6.85673 9.62106L6.13553 11.5708C5.94467 12.0866 5.21514 12.0865 5.02421 11.5708L4.30253 9.62106C4.28302 9.56849 4.24133 9.52679 4.18876 9.50729L2.23954 8.7861C1.72371 8.59522 1.72371 7.86565 2.23954 7.67477L4.18876 6.95309C4.24139 6.93358 4.28304 6.89197 4.30253 6.83932L5.02421 4.8901Z" fill="#3E87FF"/>
<path d="M8.86649 1.17672C9.04192 1.08402 9.25211 1.08398 9.42753 1.17672C9.55855 1.24608 9.63909 1.38355 9.70292 1.51901C9.77069 1.66287 9.84355 1.86065 9.93485 2.10739L10.0911 2.52975C10.1323 2.6412 10.1421 2.66287 10.1536 2.67916C10.1668 2.69792 10.1832 2.71429 10.2019 2.7275C10.2182 2.73894 10.2401 2.74883 10.3514 2.79L10.7737 2.94625C11.0204 3.03754 11.2183 3.11042 11.3621 3.17819C11.4976 3.24203 11.6351 3.32253 11.7044 3.45358C11.7971 3.629 11.7971 3.83918 11.7044 4.01461C11.6351 4.14565 11.4975 4.22617 11.3621 4.29C11.2183 4.35777 11.0204 4.43065 10.7737 4.52194L10.3514 4.67819C10.2401 4.71934 10.2182 4.72926 10.2019 4.74069C10.1832 4.75389 10.1668 4.77029 10.1536 4.78903C10.1421 4.80532 10.1323 4.82703 10.0911 4.93844L9.93485 5.36081C9.84356 5.60752 9.77068 5.80532 9.70292 5.94918C9.63909 6.08463 9.55853 6.22211 9.42753 6.29147C9.2521 6.38422 9.04193 6.38418 8.86649 6.29147C8.73542 6.22214 8.65494 6.08466 8.5911 5.94918C8.52333 5.80532 8.45047 5.60755 8.35917 5.36081L8.20292 4.93844C8.16171 4.82708 8.15186 4.80532 8.14042 4.78903C8.12721 4.77028 8.11082 4.7539 8.09208 4.74069C8.07579 4.72923 8.05403 4.7194 7.94266 4.67819L7.5203 4.52194C7.2736 4.43065 7.07578 4.35776 6.93192 4.29C6.79644 4.22616 6.65898 4.14567 6.58964 4.01461C6.49687 3.83916 6.49687 3.62904 6.58964 3.45358C6.65899 3.32255 6.79646 3.24202 6.93192 3.17819C7.07578 3.11043 7.27361 3.03754 7.5203 2.94625L7.94266 2.79C8.05402 2.7488 8.07579 2.73896 8.09208 2.7275C8.11081 2.7143 8.12722 2.6979 8.14042 2.67916C8.15185 2.66288 8.16174 2.64102 8.20292 2.52975L8.35917 2.10739C8.45046 1.86067 8.52333 1.66286 8.5911 1.51901C8.65494 1.38354 8.73544 1.24605 8.86649 1.17672Z" fill="#3E87FF"/>
<path d="M2.74882 1.1733C2.89496 1.09609 3.06996 1.09609 3.2161 1.1733C3.33027 1.2337 3.39658 1.35067 3.44462 1.4526C3.49658 1.56289 3.55179 1.71381 3.61991 1.89791L3.79471 2.37008C3.82654 2.45609 3.83175 2.46501 3.83573 2.47067C3.84228 2.47993 3.8504 2.48804 3.85966 2.49459C3.86531 2.49857 3.87427 2.5038 3.96024 2.53561L4.43241 2.71041C4.61649 2.77853 4.76744 2.83375 4.87772 2.88571C4.97965 2.93374 5.09662 3.00005 5.15702 3.11422L5.18241 3.17038C5.23304 3.30372 5.22457 3.45366 5.15702 3.58151C5.0966 3.69552 4.97957 3.76202 4.87772 3.81002C4.76743 3.86197 4.61646 3.9177 4.43241 3.98581L3.96024 4.16012C3.87438 4.1919 3.86531 4.19716 3.85966 4.20114C3.85047 4.20766 3.84224 4.21587 3.83573 4.22506C3.83177 4.23074 3.82613 4.24075 3.79471 4.32565L3.61991 4.79782C3.5518 4.98187 3.49657 5.13287 3.44462 5.24313C3.40259 5.33228 3.34635 5.43284 3.25663 5.49704L3.2161 5.52243L3.15995 5.54782C3.02662 5.5984 2.87663 5.58997 2.74882 5.52243C2.63471 5.46202 2.56832 5.34502 2.5203 5.24313C2.46832 5.13281 2.41268 4.98201 2.34452 4.79782L2.1702 4.32565C2.13839 4.23967 2.13317 4.23072 2.12919 4.22506C2.12263 4.21579 2.11453 4.20769 2.10526 4.20114C2.0996 4.19716 2.09044 4.19186 2.00468 4.16012L1.53251 3.98581C1.34833 3.91765 1.1975 3.862 1.08719 3.81002C0.985298 3.762 0.868287 3.69562 0.807898 3.58151C0.730674 3.43539 0.730728 3.26036 0.807898 3.11422C0.868254 3.00012 0.985313 2.93373 1.08719 2.88571C1.19745 2.83376 1.34846 2.77852 1.53251 2.71041L2.00468 2.53561C2.08954 2.50421 2.09958 2.49856 2.10526 2.49459C2.11446 2.48808 2.12266 2.47986 2.12919 2.47067C2.13317 2.46501 2.13842 2.45596 2.1702 2.37008L2.34452 1.89791C2.41263 1.71385 2.46835 1.56289 2.5203 1.4526C2.5683 1.35076 2.63481 1.23373 2.74882 1.1733Z" fill="#3E87FF"/>
</g>
<defs>
<clipPath id="clip0_83_530">
<rect width="12" height="12" fill="white" transform="translate(0.25 0.607178)"/>
</clipPath>
</defs>
</svg>
