<svg width="488" height="117" viewBox="0 0 488 117" fill="none" xmlns="http://www.w3.org/2000/svg">
<g filter="url(#filter0_ii_0_4449)">
<path d="M369.483 -0.0067646L371.117 0.0043789L371.287 0.00523812L371.447 0.0624006L372.59 0.46896L374.977 1.12812L375.055 1.16514L376.336 1.77078L376.493 1.84565L376.616 1.9683L377.53 2.88171L377.554 2.90682L377.578 2.93392L378.266 3.73006L379.354 4.79862L379.484 4.92578L379.561 5.0919L379.983 6.00469L380.612 7.19992L380.668 7.30459L380.696 7.41947L381.059 8.84187L381.074 8.90075L381.082 8.95998L381.238 10.1644L381.656 12.641L381.671 12.7312L381.67 12.8222L381.65 14.2657L381.646 14.4663L381.145 15.6152L381.215 16.9405L381.134 17.1443L380.623 18.4208L380.592 18.5017L380.545 18.5755L379.786 19.8064L379.385 20.7251L379.368 20.7661L379.346 20.8044L378.681 22.0225L378.289 23.1236L378.257 23.2143L378.207 23.298L377.501 24.489L377.451 24.5738L377.384 24.6477L376.492 25.6381L375.887 26.4071L375.839 26.4693L375.781 26.5232L374.733 27.4925L373.966 28.4411L373.887 28.5392L373.786 28.6139L372.454 29.6069L371.681 30.37L371.587 30.4629L371.472 30.5276L370.94 30.8284L370.944 30.8585L371.749 31.3991L372.733 32.0145L372.77 32.037L372.803 32.0616L374.003 32.96L374.04 32.9874L375.183 34.0169L375.293 34.1148L375.369 34.2409L376.091 35.4283L376.818 36.5383L376.846 36.5809L376.87 36.6256L377.39 37.6281L378.065 38.8199L379.686 40.5099L380.919 40.7327L383.353 40.6893L384.136 40.2454L384.212 40.2179L385.676 39.6737L386.681 39.1918L388.298 38.0333L389.022 36.9559L389.036 36.9346L389.051 36.9142L389.892 35.7886L390.369 34.7955L390.383 34.7654L390.4 34.7362L391.016 33.6458L391.069 33.5511L392.107 32.3985L392.172 32.3472L393.3 31.448L393.728 30.6423L393.798 30.5125L393.901 30.4074L394.906 29.3934L395.002 29.2955L395.122 29.2276L396.189 28.6211L397.249 27.8331L397.309 27.7879L397.377 27.7521L398.779 27.0058L398.808 26.9906L400.12 26.3459L400.2 26.3065L400.285 26.2814L401.439 25.9501L402.485 25.4484L402.635 25.377L402.799 25.3576L404.232 25.1857L405.665 25.0147L405.681 25.013L405.697 25.0111L408.472 24.7698L408.525 24.7651L408.578 24.7663L409.925 24.7915L410.074 24.7945L410.216 24.8408L411.487 25.2553L411.533 25.2695L411.577 25.2887L412.561 25.7183L412.596 25.7341L412.63 25.7518L413.619 26.277L413.648 26.2921L413.675 26.3092L414.967 27.106L415.015 27.1357L415.06 27.1715L415.862 27.8023L415.945 27.8664L416.011 27.947L416.873 28.9785L417.905 29.8221L418.096 29.9794L418.192 30.2061L418.604 31.179L419.322 32.445L419.363 32.5171L419.391 32.5949L419.804 33.7252L419.912 33.9014L419.963 33.7491L419.982 33.6885L420.01 33.6313L420.615 32.3498L420.628 32.3237L420.642 32.2985L421.283 31.1208L421.57 29.9812L421.579 29.9415L421.593 29.9027L422.093 28.4341L422.128 28.3276L422.188 28.2306L422.986 26.939L423.104 26.749L423.291 26.6267L425.058 25.477L425.283 25.3303L426.352 25.2742L427.813 25.0128L427.91 24.996L428.008 24.9977L429.356 25.0229L429.826 25.0325L430.119 25.4005L431.148 26.6922L431.523 27.1624L431.283 27.7148L430.789 28.8438L430.4 30.1491L430.374 30.2385L430.331 30.3209L429.781 31.3853L429.501 32.7134L429.497 32.7322L429.493 32.75L429.175 34.0164L429.161 34.068L429.143 34.1178L428.683 35.3692L428.568 36.5018L428.553 36.658L428.49 36.8012L427.967 37.9982L427.942 39.0546L427.935 39.3376L427.781 39.5755L427.225 40.43L427.205 41.4911L427.202 41.6399L427.156 41.7821L426.741 43.0536L426.328 44.325L426.327 44.3241L425.926 45.6692L425.909 45.7268L425.885 45.7818L425.378 46.9428L425.449 48.3042L425.339 48.5339L424.843 49.5681L424.414 50.8306L424.392 52.0209L424.387 52.2656L424.271 52.481L423.647 53.6226L423.453 54.7231L423.447 54.7567L423.166 56.0838L423.235 57.4111L423.216 57.5236L423.019 58.6389L423.295 60.9577L423.838 61.4016L425.844 61.5273L426.99 61.1768L427.573 60.6905L427.617 60.654L427.665 60.6221L428.745 59.9142L429.877 59.011L430.326 58.344L430.402 58.2305L430.506 58.1409L431.614 57.192L432.278 56.2869L432.741 55.1302L432.816 54.9414L432.959 54.797L433.86 53.8863L434.316 53.0293L434.343 52.978L434.375 52.9303L435.249 51.6622L435.837 50.6202L435.869 50.5637L435.907 50.5128L436.706 49.4432L437.07 48.3299L437.09 48.2672L437.118 48.207L437.638 47.1227L438.326 45.653L438.379 45.5398L438.458 45.4437L438.729 45.1117L438.805 44.6393L438.827 44.4993L438.888 44.3699L439.386 43.3151L439.321 42.0765L439.357 41.9299L439.676 40.6644L439.687 40.6169L439.704 40.572L440.123 39.3961L440.129 39.3782L440.136 39.3612L440.616 38.1567L440.908 36.8897L441.117 35.5781L441.128 35.513L441.146 35.4494L441.548 34.1092L441.853 32.7829L441.862 32.7393L441.876 32.6965L442.27 31.4868L442.478 30.3004L442.5 30.1829L442.547 30.0739L443.088 28.8319L443.202 27.8236L443.212 27.735L443.237 27.6496L443.647 26.2826L443.725 26.0203L443.925 25.8348L445.575 24.3069L445.89 24.0146L446.319 24.042L447.901 24.1449L448.934 24.0908L450.496 23.8231L450.554 23.8132L452.216 23.7261L452.532 24.0518L453.955 25.5155L454.423 25.9965L454.154 26.612L453.652 27.7639L453.194 29.0064L453.074 29.9573L453.065 30.0272L453.046 30.0957L452.641 31.5593L452.626 31.6129L452.606 31.6639L452.097 32.9403L451.709 34.0295L451.441 35.1955L451.507 36.4574L451.4 36.685L450.867 37.8111L450.759 38.8954L450.745 39.036L450.692 39.1669L450.21 40.3705L449.938 41.5543L449.92 42.8911L449.918 43.0193L449.884 43.1433L449.56 44.3142L449.541 44.3827L449.514 44.4477L449.007 45.6086L449.076 46.9144L449.008 47.1028L448.63 48.1631L448.516 49.2995L448.506 49.3939L448.479 49.4853L448.119 50.6864L448.187 51.9796L448.164 52.1001L447.97 53.0931L448.355 55.5529L448.813 56.5782L449.337 57.378L450.244 57.7744L450.335 57.8136L450.417 57.87L451.034 58.3002L453.077 58.1931L454.024 57.7396L454.15 57.6792L454.288 57.6554L455.649 57.4217L456.433 56.7871L457.042 56.2075L457.079 56.1713L457.12 56.1398L458.23 55.2817L459.155 54.1615L459.169 54.1441L459.184 54.1287L459.884 53.3488L460.731 52.217L461.474 51.1111L461.867 50.2104L461.907 50.1174L461.966 50.0341L462.95 48.6369L462.955 48.6298L463.561 47.7845L463.833 46.7043L463.857 46.6062L463.901 46.5149L464.398 45.4758L464.876 44.0728L464.92 43.9415L464.999 43.8278L465.809 42.651L466.164 41.5606L466.385 40.5447L466.395 40.4953L466.411 40.4475L466.826 39.176L466.849 39.1034L466.883 39.0361L467.571 37.6701L468.1 36.5491L468.21 35.4657L468.223 35.3389L468.266 35.2202L468.771 33.8481L468.793 33.7903L468.821 33.735L469.374 32.6617L469.659 31.4214L469.67 31.3778L469.683 31.336L470.087 30.0955L470.378 28.8246L470.591 27.4962L470.594 27.4794L470.824 26.2977L470.847 26.1772L470.9 26.0649L471.591 24.5873L471.695 24.3648L471.89 24.2167L473.646 22.8749L473.893 22.6869L475.32 22.6121L476.818 22.4387L476.939 22.4256L477.06 22.4407L477.97 22.5573L479.345 22.3121L479.954 22.204L480.323 22.699L481.357 24.0872L481.666 24.5023L481.506 24.9947L481.092 26.2662L481.077 26.3119L481.058 26.356L480.498 27.6371L480.22 28.9522L480.101 30.1476L480.085 30.3039L480.023 30.448L479.541 31.5519L479.242 32.7381L479.226 32.8054L479.2 32.8694L478.647 34.2351L478.447 35.4836L478.438 35.5379L478.115 36.7078L477.907 38.0115L477.902 38.0352L477.898 38.0599L477.59 39.5174L477.586 39.5362L477.581 39.5551L477.263 40.8215L477.239 40.9166L477.198 41.0049L476.668 42.1259L476.562 43.301L476.546 43.4779L476.47 43.6383L475.956 44.7253L475.934 45.8589L475.931 46.0243L475.875 46.1808L474.951 48.7287L474.582 49.8599L474.471 51.1008L474.465 51.1598L474.454 51.2181L474.146 52.6757L474.128 52.7607L474.096 52.8406L473.627 54.0123L473.428 55.2608L473.419 55.316L473.066 56.593L473.046 56.645L472.581 57.8046L472.391 59.2316L472.387 59.2611L472.381 59.2908L472.162 60.4112L471.95 61.8618L471.935 61.9653L471.899 62.063L471.433 63.3274L471.311 64.2814L471.302 64.3522L471.283 64.4207L471.265 64.4842L472.134 63.8128L472.149 63.8013L472.165 63.7897L473.184 63.0635L473.215 63.0423L473.246 63.0231L474.391 62.3265L475.387 61.4949L477.138 59.55L478.746 57.5637L478.75 57.5596L479.653 56.4551L479.668 56.4368L479.683 56.4183L480.426 55.5932L480.989 54.5985L481.008 54.5642L481.03 54.5328L481.833 53.3368L482.111 52.9222L484.765 52.7832L485.041 52.9682L486.237 53.7709L486.581 54.0023L486.661 54.4088L487.054 56.4066L487.106 56.6689L487.02 56.9218L486.687 57.9005L486.646 58.019L486.578 58.1233L485.867 59.2177L485.824 59.2835L484.938 60.2678L484.921 60.2853L483.936 61.2786L482.997 62.3214L482.401 63.175L481.609 64.3558L481.569 64.4146L481.521 64.4679L480.704 65.3762L480.617 65.4717L480.51 65.5429L479.444 66.2412L478.382 67.1291L478.36 67.1468L478.338 67.1627L477.285 67.9464L476.424 68.809L476.404 68.8297L476.381 68.8484L474.544 70.4829L474.412 70.6014L474.245 70.6668L473.178 71.0845L471.936 71.7911L470.816 72.4259L470.745 72.4657L470.67 72.4941L469.451 72.9452L468.317 74.5469L467.786 75.4861L467.496 76.5398L467.184 77.7834L466.866 79.0499L466.832 79.1827L466.764 79.3016L466.052 80.5466L465.858 81.5504L465.825 81.7203L465.736 81.8697L465.078 82.9769L464.692 84.0611L464.675 84.108L464.654 84.1521L464.049 85.4336L464.041 85.4497L464.034 85.4647L463.422 86.6497L463.417 86.6607L463.411 86.6708L462.71 87.9573L462.681 88.0116L462.644 88.0615L461.928 89.0603L461.895 89.105L461.858 89.1471L460.785 90.3377L459.99 91.3211L459.973 91.3415L459.956 91.361L459.172 92.2303L458.394 93.2921L458.294 93.4274L458.155 93.5226L456.987 94.3281L456.285 94.9154L456.271 94.9269L456.256 94.9384L455.055 95.8668L454.932 95.9613L454.787 96.0148L453.561 96.4634L453.542 96.4703L452.22 96.9239L452.173 96.94L452.125 96.9513L451.081 97.1987L449.567 97.5655L449.452 97.5931L449.333 97.5935L445.584 97.5973L445.504 97.5976L445.425 97.5851L444.068 97.3677L443.971 97.3523L443.88 97.3189L442.508 96.8138L442.445 96.7908L442.384 96.7587L441.453 96.2638L440.146 95.7837L439.912 95.6972L439.745 95.5104L438.999 94.6713L437.984 93.9256L437.838 93.8188L437.739 93.6675L437.007 92.5529L436.924 92.4253L436.882 92.2798L436.562 91.1622L435.906 90.0055L435.874 89.8458L435.612 88.5139L435.588 88.391L435.594 88.2665L435.738 85.6206L435.674 84.3928L435.702 84.2642L436.009 82.8057L436.02 82.7542L436.037 82.7035L436.451 81.432L436.508 81.2559L436.625 81.1119L437.341 80.2256L437.796 79.0899L437.893 78.8481L438.094 78.684L439.067 77.8957L439.926 77.0371L440.818 76.0477L440.9 75.9563L441.002 75.8874L441.93 75.2618L441.952 75.2479L441.973 75.2351L443.322 74.4212L444.196 73.7398L444.335 73.6308L444.503 73.576L445.891 73.1268L447.276 72.5829L447.287 72.5794L447.298 72.5749L448.489 72.1389L449.681 71.607L450.903 71.0628L451.006 71.0164L451.117 70.9949L452.364 70.7486L453.69 70.2283L453.758 70.2013L453.83 70.1848L455.372 69.8282L456.435 69.4117L456.498 69.3868L456.565 69.3706L458.034 69.014L458.77 68.7505L460.57 67.3281L461.102 64.7108L461.234 63.682L461.25 63.5569L461.297 63.4391L461.726 62.3653L461.675 61.396L461.267 62.1644L461.188 62.3133L461.064 62.4284L459.987 63.4256L459.164 64.2373L459.109 64.292L459.046 64.3384L457.748 65.2708L457.736 65.2803L457.723 65.2888L456.795 65.9144L456.776 65.9271L456.756 65.9389L455.545 66.6752L455.491 66.7084L455.432 66.7349L454.211 67.279L454.156 67.3044L454.097 67.3222L452.961 67.6702L452.898 67.6892L452.831 67.7005L451.116 67.983L451.082 67.9877L451.049 67.9914L448.849 68.2025L448.772 68.2105L448.694 68.2057L446.959 68.104L446.839 68.0976L446.725 68.0625L445.656 67.7352L444.289 67.3267L444.2 67.3001L444.117 67.2575L442.932 66.6468L442.862 66.6104L442.798 66.5639L441.698 65.757L441.569 65.6611L441.476 65.531L440.782 64.5573L439.906 63.5949L439.831 63.5118L439.776 63.4149L439.14 62.2953L439.117 62.2526L439.097 62.2086L438.553 60.9874L438.517 60.91L438.496 60.828L438.141 59.4365L438.082 59.2636L437.803 59.6781L437.217 60.8178L437.171 60.9072L437.108 60.9848L436.429 61.834L435.759 62.9644L435.708 63.0492L435.642 63.1231L434.66 64.2131L433.864 65.1965L433.848 65.2169L432.104 67.1536L432.033 67.2336L431.945 67.2959L430.669 68.2136L429.679 69.0165L429.635 69.053L429.587 69.0839L427.448 70.4458L427.365 70.497L427.276 70.533L426.163 70.9688L424.966 71.5039L424.796 71.5793L421.535 71.7502L421.347 71.6828L420.242 71.2889L419.15 71.0762L419.024 71.0515L418.909 70.996L417.825 70.4768L417.759 70.445L417.7 70.4051L416.504 69.6024L416.336 69.4899L416.225 69.3207L415.494 68.2051L415.476 68.1786L415.46 68.1501L414.843 67.0627L414.227 66.1719L413.513 66.8224L413.08 67.7302L412.95 68L412.693 68.1543L411.361 68.9565L410.316 69.8308L410.258 69.8788L410.194 69.9174L409.007 70.6387L408.093 71.2547L407.945 71.3544L407.77 71.3969L406.317 71.7488L404.854 72.3232L404.731 72.3394L403.491 72.5002L403.452 72.5052L400.749 72.6469L400.673 72.6391L399.417 72.5133L399.404 72.512L397.664 72.3147L397.633 72.3114L397.603 72.3062L396.341 72.0838L396.272 72.0708L396.205 72.0499L394.934 71.6354L394.845 71.6068L394.765 71.5621L393.478 70.8609L393.375 70.8047L392.545 70.058L391.333 69.3099L391.18 69.2152L391.07 69.0743L390.374 68.1837L389.384 67.115L389.359 67.0869L389.336 67.0578L388.307 65.7661L388.204 65.6366L388.147 65.4802L387.855 64.6662L387.006 63.4864L386.9 63.3384L386.853 63.1629L386.499 61.8554L386.061 60.5778L386.058 60.5701L386.055 60.5614L385.595 59.1431L385.566 59.0508L385.554 58.9546L385.383 57.5211L385.375 57.4463L385.377 57.3719L385.411 56.2514L385.26 53.3706L385.097 52.0609L385.075 51.8753L385.12 51.6939L385.409 50.5405L385.428 49.2144L385.43 49.0862L385.465 48.9622L385.771 47.8509L385.821 47.508L385.779 47.5297L385.668 47.559L384.245 47.9221L384.244 47.9212L383.042 48.2667L382.915 48.3027L382.783 48.3057L380.557 48.3422L380.101 48.8991L379.887 49.9136L380.101 50.9458L380.131 51.0909L380.119 51.2392L379.997 52.5912L379.986 52.7101L379.947 52.8236L379.463 54.2464L379.189 55.3345L379.261 56.7125L379.127 56.9611L378.445 58.2085L378.015 59.1952L377.913 60.4777L377.895 60.6977L377.786 60.8892L377.17 61.9796L377.141 62.031L377.106 62.0798L376.382 63.0643L375.926 64.3047L375.841 64.5341L375.66 64.6991L374.753 65.523L374.031 66.6942L373.984 66.7711L373.09 67.7635L373.073 67.781L372.069 68.7949L372.061 68.8032L372.06 68.8023L371.238 69.6149L371.165 69.6882L371.077 69.7447L369.825 70.5486L369.138 71.1234L369.098 71.1568L369.056 71.1854L367.663 72.1238L367.603 72.1642L367.537 72.196L366.411 72.7351L366.359 72.7603L366.303 72.7799L363.66 73.6871L363.644 73.6928L363.628 73.6975L361.357 74.3935L361.305 74.4089L361.252 74.4195L358.492 74.9485L358.413 74.9634L358.332 74.9657L354.492 75.0711L354.398 75.0741L354.306 75.0593L352.956 74.8426L351.834 74.7166L351.756 74.7079L351.681 74.6865L350.217 74.283L350.149 74.2641L350.084 74.2352L348.639 73.6049L348.576 73.5662L347.668 72.9986L346.395 72.5305L346.159 72.444L345.993 72.2572L345.181 71.3443L344.434 70.5894L343.269 69.6286L343.078 69.4704L342.982 69.2417L342.444 67.9527L341.952 66.9252L341.275 65.9759L341.15 65.7997L341.108 65.5886L340.87 64.3788L340.386 63.3705L340.366 63.3285L340.35 63.2853L339.791 61.7764L339.75 61.668L339.736 61.5524L339.569 60.2155L339.569 60.2146L339.415 59.0814L339.404 59.0018L339.405 58.9225L339.435 57.7299L339.194 54.933L339.043 53.8134L339.021 53.6591L339.048 53.5051L339.244 52.3888L339.097 51.2035L339.076 51.0373L339.111 50.8732L339.409 49.4601L339.521 48.3424L339.458 47.1409L339.458 47.1096L339.474 45.5705L339.475 45.4786L339.492 45.3887L339.717 44.2406L339.927 42.9221L340.038 41.5297L340.039 41.513L340.041 41.4972L340.173 40.3364L340.188 40.2006L340.239 40.0747L340.768 38.765L340.798 37.7894L340.801 37.6925L340.823 37.5964L341.136 36.2344L341.141 36.2137L341.147 36.1918L341.551 34.7292L341.557 34.7074L341.564 34.6855L341.95 33.5006L342.281 30.9798L342.289 30.9227L342.302 30.8663L342.621 29.5998L342.637 29.5334L342.663 29.4695L343.259 27.9959L343.271 27.9669L343.284 27.9388L343.773 26.9196L344.137 25.6968L344.339 24.321L344.362 24.1555L344.439 24.0078L344.983 22.9485L345.184 21.9229L345.185 21.915L345.187 21.9081L345.495 20.4495L345.526 20.3061L345.596 20.1773L346.297 18.8908L346.301 18.8847L346.304 18.8777L346.9 17.8236L347.459 16.6403L347.848 15.3448L347.866 15.2871L347.889 15.2321L348.46 13.9231L348.549 13.8148L349.454 12.7161L349.913 11.6652L349.979 11.5161L350.087 11.395L350.872 10.5237L351.783 9.32397L352.173 8.52803L352.272 8.32531L352.449 8.18502L353.674 7.20844L355.346 5.35175L355.417 5.27175L355.505 5.20945L356.802 4.27605L357.598 3.68279L358.604 2.8683L358.68 2.80662L358.767 2.76096L359.983 2.12026L359.999 2.11159L360.017 2.10287L361.142 1.56372L361.241 1.5155L361.35 1.49125L362.855 1.14246L363.882 0.650511L363.992 0.597822L364.111 0.573007L365.347 0.316545L365.391 0.307419L365.437 0.302091L366.965 0.126175L366.996 0.122589L369.453 -0.00620655L369.483 -0.0067646ZM444.225 96.3806L445.583 96.5979L444.226 96.3805L442.853 95.8755L444.225 96.3806ZM170.546 37.1667L172.253 37.4527L173.483 37.577L173.555 37.5839L173.627 37.6017L174.893 37.9197L175.071 37.9651L175.221 38.0697L176.026 38.6309L177.194 39.0967L177.235 39.1132L177.273 39.1327L178.656 39.8299L178.896 39.9503L179.042 40.1744L179.734 41.2304L180.501 42.0918L180.508 42.0983L180.515 42.1058L181.539 43.3019L181.705 43.4966L181.758 43.7491L182.006 44.9399L182.34 46.0303L182.355 46.0804L182.364 46.1307L182.627 47.4626L182.632 47.4936L183.056 50.0667L183.096 50.314L183.016 50.5519L182.516 52.0196L182.443 52.2326L182.287 52.3934L181.01 53.71L180.694 54.0366L180.24 54.0125L178.455 53.9192L177.388 53.9751L175.796 54.1535L175.321 54.2057L174.982 53.8695L173.968 52.8655L173.742 52.6427L173.687 52.3307L173.279 50.0452L173.274 50.0219L173.271 49.9977L173.135 48.9496L172.758 48.2859L171.991 47.4587L170.804 47.0544L169.985 46.8548L167.445 46.8187L166.533 47.2577L166.526 47.26L166.519 47.2633L165.618 47.6792L164.557 48.2815L163.227 49.0826L162.636 49.5762L161.809 50.6825L161.738 50.7761L161.65 50.8512L160.676 51.663L160.056 52.7077L159.476 53.7336L158.982 54.8674L158.483 56.0074L158.116 57.0378L158.006 58.2649L157.996 58.3779L157.961 58.4854L157.593 59.6165L157.571 60.8127L157.568 60.9175L157.545 61.0184L157.27 62.2112L157.421 63.4707L157.43 63.5435L157.428 63.617L157.366 65.8851L157.695 67.1724L157.701 67.1936L157.705 67.2158L157.945 68.3709L158.34 69.3779L158.871 70.5695L159.455 71.6782L160.089 72.4908L160.988 73.4617L161.755 73.9164L161.754 73.9164L162.77 74.49L164.125 75.038L165.196 75.3339L166.351 75.5188L168.985 75.1989L169.055 75.1904L169.125 75.1916L170.346 75.2137L171.267 74.9962L171.298 74.9897L171.329 74.9841L172.827 74.7267L173.868 74.2624L174.645 73.7757L174.757 73.7063L174.883 73.6674L176.308 73.2309L177.259 72.7371L178.616 72.0137L180.648 70.6819L181.257 69.8335L181.368 69.679L181.529 69.5757L182.649 68.855L183.244 67.9398L183.287 67.874L184.248 66.8066L185.052 65.9127L185.916 64.8563L186.672 63.7292L187.361 62.5665L187.389 62.5201L187.421 62.4773L188.267 61.3456L188.788 60.3375L188.805 60.2397L188.898 60.0823L188.927 60.0309L189.415 58.913L189.443 58.848L189.481 58.7883L189.522 58.7217L189.59 57.9612L189.599 57.86L189.628 57.7636L190.037 56.3966L190.408 55.1538L190.44 54.1292L190.444 54.0097L190.475 53.8936L190.88 52.431L190.882 52.4211L190.885 52.4102L191.284 51.0789L191.502 50.072L191.708 48.6628L191.717 48.6007L191.733 48.5412L192.044 47.415L192.251 46.1211L192.275 45.9683L192.345 45.8297L192.992 44.543L193.277 43.4074L193.582 41.9657L193.789 40.9016L193.808 39.5501L193.816 39.0432L194.228 38.7497L196.267 37.2973L196.538 37.1031L196.871 37.1111L199.336 37.1716L201.376 37.0647L201.696 37.5076L202.628 38.8053L202.881 39.1558L202.799 39.5806L202.344 41.9113L202.139 43.3175L202.136 43.3412L202.132 43.3639L201.909 44.4982L201.835 45.0116L202.357 44.3016L202.386 44.262L203.318 43.2264L204.166 42.1884L204.947 41.0268L205.003 40.9437L205.075 40.8734L205.842 40.1145L206.697 38.9724L206.784 38.8564L206.901 38.7701L208.011 37.9423L208.035 37.9244L208.06 37.9084L209.136 37.2017L210.031 36.5035L210.171 36.3945L210.34 36.3407L211.644 35.9173L212.565 35.3508L212.772 35.2236L213.013 35.2051L217.035 34.8985L217.105 34.8928L217.176 34.8979L218.815 35.0037L219.055 35.0195L220.154 35.6718L220.183 35.6889L220.211 35.709L221.507 36.6023L221.588 36.6577L221.658 36.7284L222.369 37.4597L222.427 37.5203L222.474 37.5892L223.307 38.7953L224.113 39.8757L224.245 40.0536L224.29 40.2703L224.535 41.4476L224.967 42.7069L225.024 42.8722L225.021 43.0464L224.981 45.8648L224.998 46.0057L225.691 44.8849L226.295 43.8167L226.338 43.7401L226.394 43.6726L227.325 42.5413L227.801 41.646L227.858 41.5364L227.941 41.445L228.789 40.5039L228.822 40.4728L229.782 39.5825L230.22 38.6706L230.305 38.4941L230.449 38.3633L231.459 37.4449L231.563 37.3495L231.69 37.2871L232.829 36.7257L233.518 35.9621L233.627 35.841L234.888 35.1256L234.95 35.091L235.016 35.0651L236.429 34.5099L236.48 34.4896L236.534 34.4751L237.821 34.1269L239.003 33.6953L239.164 33.636L239.335 33.6339L241.737 33.6049L241.748 33.6043L241.759 33.6047L243.298 33.6199L243.465 33.6219L243.624 33.6781L244.767 34.0847L245.9 34.3979L246.063 34.4431L246.202 34.5385L247.482 35.42L248.455 36.0281L248.571 36.1012L248.664 36.2039L249.583 37.2129L249.636 37.2707L249.679 37.3369L250.41 38.4525L250.415 38.4601L251.252 39.7618L251.337 39.8923L251.377 40.0428L251.735 41.3696L251.741 41.3918L251.746 41.414L251.997 42.5548L252.019 42.6524L252.021 42.752L252.071 45.5374L252.072 45.6263L252.058 45.7141L251.851 47.0021L251.828 48.2785L251.827 48.349L251.816 48.418L251.598 49.775L251.588 49.8401L251.569 49.9037L251.175 51.2171L250.964 52.4192L250.958 52.4547L250.949 52.4894L250.632 53.7559L250.626 53.7777L250.619 53.7986L250.211 55.1665L249.904 56.3893L249.891 56.4409L249.873 56.4907L249.381 57.8279L248.978 59.1721L248.937 59.3101L248.859 59.4306L248.282 60.3165L248.184 61.4218L248.166 61.6124L248.08 61.7822L247.425 63.0829L247.053 64.3238L246.827 65.3635L246.824 65.3753L246.51 66.7384L246.506 66.7591L246.5 66.78L246.154 68.0322L246.503 70.2084L247.038 70.8345L249.166 70.7983L250.099 70.6037L250.903 70.0325L251.783 69.25L251.793 69.2407L252.54 68.5943L253.373 67.4808L253.431 67.4044L253.501 67.3401L255.324 65.6819L255.656 64.6631L255.736 64.4194L255.922 64.2443L256.936 63.2896L257.274 62.3409L257.303 62.2601L257.347 62.1855L257.962 61.0951L257.992 61.0437L258.026 60.995L258.833 59.8965L259.644 58.7177L260.027 57.7462L260.069 57.6383L260.134 57.544L260.963 56.3388L261.432 55.1671L261.455 55.1122L261.483 55.0598L261.873 54.3431L261.883 54.3084L261.907 53.0877L261.908 53.0094L261.921 52.9334L262.144 51.672L262.167 51.5397L262.224 51.4174L262.778 50.2452L262.981 49.2068L262.998 49.115L263.033 49.0271L263.543 47.7506L263.549 47.7366L263.555 47.7216L264.21 46.2204L264.295 46.1152L265.012 45.2289L265.466 44.0932L265.513 43.9753L265.589 43.8726L266.329 42.8627L266.801 41.7838L266.843 41.6867L266.904 41.6004L267.622 40.6016L267.638 40.5782L267.656 40.5557L268.469 39.5519L268.475 39.5447L269.47 38.3387L269.533 38.262L269.611 38.1983L270.59 37.4047L271.592 36.4956L271.641 36.45L271.697 36.4118L272.884 35.5927L273.984 34.7733L274 34.7607L275.02 34.0345L275.096 33.9806L275.181 33.941L276.119 33.5075L277.59 32.7703L277.597 32.766L277.605 32.7627L278.731 32.2225L278.814 32.183L278.902 32.1588L280.229 31.8008L281.446 31.4524L281.525 31.4297L281.607 31.4196L283.136 31.2436L283.185 31.2381L283.235 31.2374L285.828 31.1973L285.915 31.1957L286.002 31.2097L287.352 31.4255L288.393 31.5587L288.446 31.5657L288.499 31.5786L291.128 32.2104L291.184 32.2241L291.239 32.2437L292.611 32.7488L292.724 32.7898L292.823 32.857L294.817 34.1949L294.935 34.2738L295.026 34.3834L295.903 35.4327L297.868 37.2024L297.94 37.315L298.773 38.6101L299.504 39.7247L299.567 39.8212L299.607 39.9296L300.055 41.1558L300.078 41.2182L300.093 41.2839L300.306 42.2497L301.047 43.401L301.211 43.6564L301.206 43.9608L301.183 45.1687L301.503 46.3557L301.509 46.3779L301.515 46.4001L301.767 47.5408L301.795 47.6723L301.789 47.8076L301.654 50.4423L301.972 51.6187L302.03 51.8328L301.991 52.0519L301.776 53.2748L301.652 54.4968L301.648 54.543L301.639 54.5874L301.336 56.1416L301.329 56.1791L301.318 56.2168L301.01 57.3312L300.812 58.5708L300.778 59.6649L300.771 59.8862L300.672 60.0841L299.999 61.4171L299.546 62.6465L299.339 63.823L299.305 64.0145L299.203 64.1793L298.621 65.1095L298.05 66.4204L297.985 66.5695L297.876 66.6897L297.008 67.6534L296.656 68.6419L296.575 68.8731L296.395 69.04L295.462 69.9034L295.121 70.7701L295.045 70.9648L294.897 71.1124L293.984 72.0257L293.95 72.0597L293.913 72.09L291.833 73.8028L290.951 74.6832L290.855 74.7791L290.738 74.8459L289.462 75.5689L288.37 76.2853L288.303 76.3299L288.229 76.3621L287.082 76.874L286.033 77.5617L285.992 77.5893L285.946 77.6122L284.917 78.1473L284.827 78.193L284.731 78.2215L283.5 78.5736L283.455 78.5867L283.409 78.5959L281.981 78.8625L281.956 78.8676L281.932 78.8709L280.786 79.0268L280.727 79.0347L280.667 79.036L278.073 79.076L278.021 79.0768L277.969 79.0718L276.692 78.9568L274.952 79.0479L274.783 78.9962L273.709 78.6681L273.64 78.6464L273.574 78.6156L272.381 78.0513L271.21 77.7577L271.06 77.7195L270.928 77.6385L269.636 76.8407L269.559 76.7939L269.493 76.7328L268.642 75.9668L267.614 75.2989L267.548 75.2564L266.464 74.2796L266.446 74.2629L265.432 73.2589L265.394 73.2199L265.36 73.1777L264.537 72.1637L264.447 72.052L264.391 71.919L263.851 70.6242L263.323 69.5234L263.291 69.4557L263.269 69.3845L262.93 68.2805L262.392 66.9084L262.374 66.8644L262.361 66.8191L262.304 66.6255L261.749 67.7068L261.74 67.7239L261.73 67.741L261.114 68.8304L261.061 68.9261L260.987 69.0082L259.933 70.1773L259.253 71.1283L258.564 72.1882L258.56 72.1943L258.556 72.2004L257.753 73.3964L257.713 73.4552L256.723 74.5554L256.151 75.4724L256.024 75.6755L255.819 75.7988L254.547 76.5646L253.649 77.5632L253.607 77.6104L253.56 77.651L252.732 78.3672L252.708 78.388L251.694 79.2098L251.591 79.2924L251.471 79.3466L250.25 79.8908L250.212 79.9074L250.174 79.9211L248.57 80.4854L248.534 80.498L248.498 80.5077L247.172 80.8657L247.068 80.8936L244.289 81.0392L244.117 80.9847L242.553 80.4897L242.535 80.4838L242.518 80.4778L241.343 80.0593L241.29 80.0405L241.239 80.0158L240.352 79.5812L240.225 79.5194L238.93 78.3531L237.947 77.5578L237.776 77.4191L237.679 77.2218L237.033 75.91L237.006 75.8528L236.985 75.7932L236.531 74.4704L236.497 74.3705L236.483 74.2647L236.316 72.8623L235.8 70.2422L235.764 70.0592L235.797 69.8756L236.011 68.6596L236.135 67.4307L236.145 67.3285L236.176 67.2301L236.64 65.7624L236.756 64.6112L236.768 64.4893L236.809 64.3747L237.228 63.1997L237.234 63.1818L237.241 63.1648L237.699 62.0183L237.811 60.9024L237.829 60.7314L237.903 60.5749L238.452 59.4118L238.65 58.2866L238.664 58.2037L238.692 58.124L239.112 56.9481L239.128 56.9013L239.149 56.8571L239.74 55.6087L240.259 54.3229L240.286 53.2536L240.292 53.0118L240.408 52.7994L241.043 51.6347L241.326 50.4053L241.331 50.3854L241.612 49.2667L241.428 45.752L241.014 44.7615L240.278 43.9659L239.287 43.6023L237.249 43.5516L236.667 43.9176L236.579 43.973L236.48 44.0085L235.425 44.3943L234.763 44.9669L233.963 45.7589L233.906 45.8147L233.84 45.8611L232.872 46.5505L232.014 47.3298L231.385 48.3925L231.366 48.4238L231.345 48.4542L230.758 49.2957L230.177 50.4233L230.135 50.5038L230.08 50.5761L229.073 51.8825L228.61 52.9483L228.573 53.0314L228.523 53.1064L227.781 54.2092L227.397 55.1896L227.367 55.2646L227.327 55.3341L226.658 56.4595L226.107 57.8233L225.701 59.0689L225.692 59.0948L225.273 60.2707L225.237 60.3703L225.182 60.4603L224.447 61.6488L224.076 62.783L224.077 62.7839L223.674 64.1302L223.27 65.5947L223.237 65.7128L223.177 65.8196L222.616 66.8103L222.239 68.072L221.865 69.4283L221.746 70.6051L221.729 70.7743L221.657 70.9286L221.037 72.2519L220.928 73.3392L220.903 73.5889L220.763 73.7967L220.044 74.8661L219.708 75.9936L219.597 77.2433L219.591 77.3033L219.578 77.3607L219.27 78.8192L219.19 79.2009L218.872 79.4268L216.834 80.8792L216.63 81.0249L216.383 81.0564L215.141 81.2183L215.01 81.2349L214.879 81.2174L213.536 81.0374L212.508 81.3328L212.363 81.3746L212.213 81.3718L210.866 81.3465L210.445 81.3383L210.156 81.0317L209.036 79.8406L208.661 79.4417L208.795 78.9115L209.113 77.6451L209.126 77.5936L209.145 77.5437L209.579 76.3621L209.521 75.2562L209.563 75.1005L209.968 73.6369L209.992 73.5515L210.03 73.4713L210.512 72.4632L210.881 71.1237L211.093 69.9205L211.099 69.885L211.108 69.8503L211.426 68.5839L211.428 68.573L211.755 67.3912L211.768 67.3475L212.145 66.1905L212.253 64.8578L212.261 64.7517L212.292 64.6514L212.677 63.3599L212.803 62.3783L212.819 62.2503L212.868 62.1305L213.395 60.8257L213.422 59.7564L213.423 59.6722L213.44 59.5892L213.667 58.4244L213.682 58.3453L213.71 58.2705L214.157 57.056L214.174 55.7858L214.177 55.6008L214.245 55.4291L214.688 54.3204L214.715 53.2482L214.717 53.1473L214.74 53.0484L215.049 51.7032L215.238 50.6234L215.091 49.4352L215.091 49.4342L214.778 47.0332L214.526 46.1487L213.831 45.5241L213.83 45.5241L213.041 44.879L211.487 44.89L210.686 45.2303L209.721 45.7776L209.256 46.2088L209.229 46.2347L209.2 46.2577L207.999 47.2125L207.463 47.8948L206.848 48.7768L206.8 48.8458L206.741 48.9056L205.801 49.8614L205.456 50.831L205.405 50.9735L205.314 51.0937L204.465 52.2276L203.893 53.3391L203.283 54.525L203.256 54.5763L203.224 54.6239L202.481 55.7297L202.128 56.6264L201.837 58.0068L201.788 58.2421L201.636 58.429L200.975 59.244L200.717 60.4692L200.696 60.569L200.655 60.6621L200.135 61.8551L200.129 61.8661L199.448 63.3198L199.449 63.3207L198.998 64.3516L198.891 65.5434L198.875 65.7231L198.797 65.8857L198.331 66.8567L198.054 68.2843L198.016 68.4819L197.903 68.6501L197.167 69.7449L196.734 70.9205L196.528 72.095L196.32 73.5199L196.296 73.6845L196.219 73.8332L195.665 74.9057L195.381 76.1469L195.376 76.1667L195.058 77.4331L194.753 78.7575L194.445 80.2161L194.355 80.6462L193.977 80.8694L192.019 82.0301L191.808 82.1556L190.669 82.2153L189.306 82.4696L189.241 82.4818L187.87 82.5536L187.811 82.5499L186.172 82.4441L185.85 82.4229L185.6 82.2179L184.394 81.223L183.794 80.7283L184.127 80.0244L184.7 78.8111L185.047 77.6517L185.06 76.7259L184.435 77.4999L184.337 77.6215L184.206 77.7065L183.199 78.3656L182.286 79.3806L182.212 79.4627L182.123 79.5261L181.104 80.2523L180.011 81.0674L179.948 81.1137L179.879 81.1506L178.663 81.7903L178.629 81.8077L177.524 82.336L176.682 82.7654L176.647 82.7839L176.611 82.7985L175.023 83.4538L174.11 83.8762L173.965 83.9434L173.805 83.9616L172.433 84.1196L171.642 84.4866L171.468 84.5672L169.809 84.6541L168.445 84.9094L168.38 84.9216L164.029 85.1497L163.873 85.106L163.013 84.8685L161.477 84.4756L160.038 84.1707L159.985 84.1597L159.934 84.1438L158.663 83.7293L158.637 83.7209L157.461 83.3014L157.362 83.2656L157.272 83.2106L155.98 82.4129L155.97 82.4065L155.961 82.4002L154.865 81.689L154.747 81.612L154.654 81.5044L154.022 80.7739L152.83 79.9532L152.752 79.8996L152.686 79.8317L151.874 79.0098L151.812 78.9465L151.763 78.8748L150.931 77.6687L150.885 77.6036L150.851 77.533L150.329 76.4417L149.689 75.2254L149.674 75.1959L149.661 75.1663L149.115 73.9451L149.107 73.925L149.098 73.904L148.654 72.7733L148.1 71.3599L148.071 71.2872L148.054 71.2108L147.805 70.0875L147.455 68.7876L147.454 68.7867L147.106 67.5718L147.075 67.4619L146.917 64.4543L146.937 64.3428L147.149 63.1347L147.263 61.7264L147.268 61.6705L147.279 61.6151L147.489 60.5343L147.512 59.3401L146.4 59.7777L146.288 59.8217L146.17 59.8377L145.024 59.9936L144.967 60.0015L144.909 60.0026L142.271 60.0558L141.557 60.6232L141.412 61.7133L141.388 63.0074L141.385 63.1327L141.352 63.2547L141.053 64.3324L140.939 65.5999L140.824 67.0395L140.808 67.2389L140.715 67.4168L140.192 68.4329L140.084 69.5005L140.067 69.6726L139.994 69.828L139.42 71.0423L139.033 72.3358L138.968 72.5514L138.817 72.7187L138.068 73.5501L137.807 74.4957L137.784 74.578L137.747 74.6563L137.142 75.9378L137.078 76.0702L136.98 76.1799L135.935 77.3388L135.342 78.1913L135.292 78.2614L135.232 78.3232L134.345 79.2175L133.899 80.1504L133.792 80.3721L133.594 80.5193L132.522 81.3177L131.569 82.1853L130.758 82.9866L130.702 83.0414L130.639 83.0867L129.342 84.0201L129.298 84.0518L129.251 84.0787L127.956 84.8125L127.144 85.3225L127.081 85.361L127.013 85.391L125.509 86.0467L125.492 86.0545L125.475 86.0613L124.369 86.4947L123.46 86.9149L123.34 86.9711L123.209 86.9936L121.59 87.2702L121.573 87.273L121.556 87.2759L120.411 87.4317L120.387 87.4349L120.365 87.437L117.781 87.6683L117.696 87.6757L117.612 87.6693L116.164 87.5525L116.1 87.5481L116.037 87.5347L114.612 87.232L113.351 87.0106L113.233 86.9903L113.124 86.9422L112.039 86.4681L110.679 86.1815L110.417 86.1258L109.501 85.3015L108.126 84.5717L108.044 84.5281L107.971 84.4693L107.068 83.748L106.989 83.6846L106.925 83.6078L106.022 82.5266L105.205 81.6072L105.146 81.5418L105.1 81.467L104.505 80.4978L103.51 79.2493L103.371 79.0747L103.319 78.8564L103.115 77.9948L102.39 76.9444L102.288 76.7962L102.244 76.6235L101.881 75.2001L101.857 75.1045L101.799 73.9869L101.38 72.6926L101.352 72.6051L101.339 72.5139L101.178 71.2725L101.173 71.2346L101.013 68.1802L101.044 68.0437L101.318 66.8568L101.18 65.7923L101.17 65.7195L101.171 65.6451L101.197 64.2981L101.198 64.2198L101.212 64.1429L101.425 62.9249L101.52 61.7582L100.824 62.1252L100.712 62.1849L100.588 62.2139L99.5441 62.4612L99.4185 62.4903L99.2893 62.4873L96.7866 62.4268L96.767 62.4259L96.7464 62.425L95.6375 62.352L95.1386 63.0011L95.2386 63.7332L95.253 63.84L95.2449 63.948L95.1282 65.3965L95.1156 65.5488L95.0585 65.6906L94.5183 67.0264L94.4103 68.231L94.3996 68.344L94.3652 68.4514L93.9969 69.5797L93.9747 70.7787L93.9705 70.9775L93.3148 72.4807L93.0018 73.5043L92.9642 73.6275L92.8966 73.7377L92.1619 74.9262L91.7846 76.0852L91.7652 76.1449L91.7379 76.2021L91.1323 77.4836L91.0891 77.5748L91.0288 77.6552L90.166 78.8074L89.4831 79.958L89.4733 79.9762L89.4615 79.9924L88.7502 81.0878L88.7077 81.1536L88.6551 81.2121L87.8603 82.0938L86.9651 83.188L86.9338 83.2248L86.152 84.0931L86.0872 84.1444L84.7946 85.1735L84.759 85.2027L84.7202 85.2282L83.6292 85.9435L82.4676 86.8425L82.4356 86.8656L81.4165 87.5918L81.3062 87.67L81.1796 87.7167L80.0166 88.1415L78.6771 88.8551L78.602 88.8952L78.5203 88.922L77.4811 89.2649L77.4619 89.2718L77.4436 89.2767L76.2123 89.6297L76.1767 89.6404L76.1399 89.6472L74.9036 89.9046L74.7963 89.9269L74.6857 89.9258L71.7997 89.8844L71.7996 89.8835L70.1729 89.8738L70.08 89.8738L69.9881 89.8552L68.8222 89.6278L67.2681 89.3249L67.1604 89.3042L65.7313 88.6808L64.7224 87.7724L63.6896 87.322L63.4985 87.2381L63.3565 87.0852L62.3375 85.9846L62.3313 85.9781L61.413 84.9691L61.3279 84.8748L61.2681 84.7616L60.6676 83.6215L60.6445 83.5915L60.6247 83.6424L60.1578 84.81L59.9628 86.1453L59.9476 86.2478L59.9117 86.3455L59.441 87.6268L59.2492 88.8191L59.2205 90.0058L59.216 90.2016L59.1374 90.3808L58.6389 91.5237L58.177 92.8788L57.9886 93.9497L58.0645 95.3979L57.9851 95.5996L57.5647 96.6651L57.5658 96.666L56.9992 98.1704L56.7148 99.4047L56.5946 100.601L56.5934 100.616L56.5913 100.632L56.2481 103.245L56.2353 103.337L56.2067 103.424L55.8039 104.659L55.1837 107.249L54.9649 108.372L54.9556 108.419L54.9415 108.467L54.533 109.834L54.149 111.221L53.9407 112.526L53.9341 112.569L53.9236 112.612L53.6047 113.877L53.5319 114.169L53.3108 114.372L51.7506 115.799L51.4865 116.042L49.8267 116.129L49.7708 116.125L48.1729 116.032L47.1695 116.255L47.0274 116.285L46.8811 116.276L45.338 116.164L44.804 116.125L43.7988 114.353L43.5876 113.982L43.7099 113.573L44.0694 112.371L44.0075 111.189L44.0785 110.996L44.5836 109.624L44.9526 108.587L45.0548 107.178L45.0705 106.954L45.1814 106.758L45.6861 105.863L45.7823 104.544L45.7831 104.524L45.786 104.504L45.9169 103.343L45.9222 103.296L45.9324 103.249L46.2404 101.791L46.2466 101.761L46.2548 101.732L46.5778 100.561L46.5912 100.517L46.981 99.3164L47.186 98.0402L47.2058 97.915L47.8038 96.5439L47.9967 95.2234L48.0141 95.1071L48.0572 94.9973L48.5024 93.8826L48.5323 92.9051L48.5328 92.8758L48.5362 92.8472L48.6569 91.4943L48.6626 91.4353L48.6742 91.377L48.9831 89.9194L48.9916 89.8759L49.0051 89.8342L49.333 88.7589L49.3497 88.7042L49.3724 88.6512L49.9939 87.2251L50.1017 86.0352L50.1027 86.0166L50.1056 85.9979L50.2415 84.9336L50.2472 84.8933L50.2559 84.8537L50.2706 84.7796L50.0815 85.3136L49.9766 85.6076L49.7231 85.7901L48.5131 86.6593L47.8588 87.3869L47.8118 87.4402L47.7565 87.4861L46.6519 88.4085L46.6162 88.4377L46.5785 88.4642L45.3724 89.297L45.3629 89.3034L45.3525 89.3098L44.2379 90.041L43.1223 90.7722L42.9512 90.8849L42.7497 90.9209L41.3254 91.1745L40.2849 91.583L40.1345 91.6427L37.0859 91.8025L36.9814 91.7855L35.6244 91.5681L35.5179 91.5512L35.417 91.5115L34.3367 91.087L34.2788 91.0646L34.2234 91.0342L32.9369 90.333L32.8744 90.2982L32.8174 90.2552L31.6164 89.3569L31.4078 89.2015L31.3024 88.9636L30.8349 87.9163L29.8554 86.9535L29.5781 86.6806L29.4975 85.1426L29.1591 83.8177L29.1345 83.7222L28.849 78.2736L28.898 78.1077L29.3074 76.7397L29.7051 75.297L30.0092 74.0841L30.2178 72.7823L30.2346 72.6749L30.2743 72.574L30.6979 71.4947L30.7048 71.4777L30.7128 71.4607L31.3012 70.1116L31.7722 68.9301L31.9775 67.7713L31.9946 67.6696L32.0336 67.5737L32.5427 66.2983L32.9447 65.2729L33.3361 63.8598L33.3632 63.7597L33.4112 63.6681L33.9481 62.624L34.1405 61.4248L34.142 61.4168L34.1426 61.41L34.365 60.1486L34.5607 59.0323L34.2733 56.7199L33.6168 55.6307L32.8265 54.9192L32.0832 54.5631L29.8534 54.5968L29.1623 54.7895L28.1222 55.1696L27.3238 55.7953L27.242 55.8582L27.1496 55.9042L26.0094 56.4646L25.4725 57.0619L24.8969 57.9829L24.8499 58.0577L23.778 59.2483L23.7622 59.2638L22.7976 60.2453L22.3558 61.2581L22.3009 61.3852L22.2135 61.4914L21.334 62.5663L20.6366 63.5142L20.2772 64.7173L20.2447 64.8246L20.1901 64.9223L19.5967 65.9705L19.0189 67.2974L18.9805 67.3855L18.9259 67.4646L18.0752 68.6974L17.5915 69.7104L16.9876 70.9879L16.4192 72.29L16.02 73.5186L16.0048 73.5644L15.9856 73.6084L15.4094 74.9285L15.0175 76.2398L14.9949 76.3124L14.9633 76.3805L14.4307 77.5066L14.3223 78.591L14.306 78.7473L14.2431 78.8914L13.6747 80.1925L13.2957 81.6753L13.2723 81.7684L13.2308 81.8547L12.6665 83.047L12.3866 84.1638L12.1808 85.5729L12.1635 85.6902L12.1193 85.7991L11.6308 87.0207L11.2414 88.4346L10.9174 89.6046L10.8427 89.8764L10.6376 90.0691L8.89632 91.6986L8.62967 91.9472L4.17973 92.1804L2.77641 92.3479L2.20112 92.4171L1.85605 91.9531L0.822018 90.5649L0.563305 90.2186L0.63885 89.7941L0.861223 88.5327L0.876179 88.4449L0.906994 88.3611L1.36834 87.1068L1.48223 85.9772L1.49756 85.8219L2.13399 84.3627L2.43721 83.2633L2.83077 81.723L2.83643 81.7002L2.8431 81.6784L3.14117 80.7044L3.25365 79.4546L3.26651 79.3082L3.321 79.1724L3.78603 78.0068L3.98193 76.6695L3.98409 76.6547L3.98728 76.6409L4.20256 75.4121L4.32561 74.196L4.33065 74.1429L4.34154 74.0896L4.65045 72.6319L4.684 72.4698L4.76851 72.3285L5.3399 71.3636L5.36046 70.282L5.36487 70.0676L5.45638 69.8731L5.95459 68.8182L5.89163 67.6167L5.96543 67.4202L6.49841 66.0027L6.53357 65.1061L6.53677 64.9993L6.56364 64.8962L6.96208 63.3371L6.98741 63.2419L7.02967 63.1526L7.46954 62.2348L7.57058 60.9719L7.575 60.9257L7.58333 60.8793L7.80472 59.618L7.8334 59.4561L7.91191 59.3121L8.49533 58.2411L8.51775 57.1388L8.52077 56.9538L8.59004 56.7829L9.13451 55.4352L9.251 54.4111L9.2583 54.3452L9.27443 54.2798L9.59238 53.0134L9.60532 52.9619L9.62422 52.912L10.0691 51.6986L10.0876 50.4283L10.0908 50.2081L10.186 50.0095L10.7061 48.9251L10.8022 48.7255L10.9728 48.5845L12.7242 47.1471L12.9145 46.9905L13.1554 46.9407L14.3917 46.6832L14.4972 46.6621L14.6047 46.6623L16.0616 46.6769L16.9367 46.543L17.4043 46.4716L17.7573 46.7885L19.2701 48.1516L19.6909 48.5305L19.5822 49.0858L19.3557 50.2516L19.3426 50.3178L19.3206 50.3825L18.8382 51.7954L18.6294 52.7559L18.5179 53.8766L18.5962 55.3706L18.7144 55.2001L18.7181 55.195L19.3438 54.2968L20.1366 53.116L20.1756 53.0572L20.2236 53.0039L21.0377 52.0987L21.4105 51.3369L21.4724 51.2114L22.6894 49.8598L22.7258 49.8266L23.7358 48.9082L23.83 48.8221L23.9424 48.7634L25.0509 48.1782L25.8788 47.4425L25.9106 47.4144L25.9454 47.3881L27.056 46.5613L27.0936 46.5329L27.1334 46.5083L28.3446 45.7721L28.3712 45.757L29.3047 45.2269L29.45 45.145L29.6146 45.1139L31.0061 44.8522L32.2925 44.5061L32.3764 44.4841L32.462 44.4757L34.9497 44.2495L35.1453 44.2314L35.3332 44.289L36.3657 44.6036L37.7798 44.903L37.8648 44.9211L37.9447 44.9531L39.2212 45.4631L39.3011 45.4951L39.3749 45.5402L40.6665 46.3379L40.7725 46.4028L40.8584 46.4922L41.5695 47.2235L41.615 47.271L41.6549 47.3237L42.4344 48.3703L43.3978 49.325L43.5071 49.4328L43.5788 49.5688L44.2195 50.785L44.3032 50.9449L44.3262 51.1227L44.4827 52.3359L44.7458 53.7371L44.7487 53.7546L45.167 56.2322L45.1924 56.3804L45.1719 56.5311L44.9646 58.0802L44.9505 58.1837L44.9156 58.2833L44.5634 59.2689L44.6349 60.6342L44.5519 60.84L44.0089 62.1798L43.8982 63.2946L43.8885 63.3899L43.861 63.4813L43.464 64.8057L43.145 66.0722L43.1289 66.1366L43.1048 66.1994L42.6127 67.4281L42.3063 68.5413L41.9028 70.0039L41.8839 70.0724L41.8551 70.1384L41.3661 71.2573L40.9725 72.5727L40.9376 72.6909L40.8747 72.7969L40.2474 73.8517L39.9696 75.0632L39.9592 75.1058L39.9458 75.1485L39.5313 76.42L39.5211 76.4509L39.509 76.4808L39.1088 77.4826L39.314 78.5261L39.3341 78.6287L39.3327 78.7334L39.2991 81.1144L39.959 81.6157L41.8109 81.7406L42.6818 81.3224L43.6357 80.8274L44.4889 80.2195L45.2144 79.3228L45.2631 79.2636L45.3191 79.2117L46.2562 78.3578L47.0028 77.3418L47.075 77.2441L47.1677 77.1659L48.217 76.2895L48.9702 75.453L49.5072 74.225L49.5272 74.177L49.5522 74.1326L50.1689 73.0432L50.1975 72.9909L50.2331 72.943L51.0162 71.8762L51.7887 70.6251L52.3892 69.5619L52.4312 69.4873L52.4855 69.4209L53.2472 68.4872L53.512 67.4387L53.5427 67.3158L53.6034 67.2041L54.3056 65.9175L54.3135 65.9015L54.3234 65.8853L55.0297 64.6954L55.2193 64.3754L55.3953 63.6103L55.409 63.5538L55.4276 63.4991L55.8377 62.3491L56.186 61.084L56.1138 59.706L56.1812 59.5176L56.5656 58.4365L56.7644 57.0805L56.7701 57.0401L56.7798 57.0004L57.0927 55.6384L57.0999 55.6068L57.109 55.576L57.5068 54.2467L57.7314 53.214L57.7527 53.1171L57.7919 53.026L58.3715 51.695L58.7145 50.6454L58.6348 49.126L58.7544 48.8889L59.3816 47.6444L59.5747 46.4413L59.627 46.1139L59.8652 45.8823L61.3279 44.4601L61.6294 44.1665L62.0495 44.1768L63.2313 44.2058L64.6913 44.0374L64.7224 44.0338L66.666 43.9319L66.9858 44.2858L68.3125 45.7545L68.68 46.1616L68.5336 46.6905L68.1638 48.031L68.1536 48.7132L68.4388 48.3335L68.4836 48.2734L68.5376 48.2207L69.3418 47.4256L70.2281 46.4423L70.2798 46.3838L70.3407 46.3347L71.3557 45.5119L71.3623 45.5067L71.3698 45.5014L72.2933 44.7802L72.3412 44.7425L72.3924 44.7114L73.7906 43.8685L73.8134 43.8556L74.747 43.3265L74.8087 43.291L74.8748 43.2651L76.2526 42.7235L77.1721 42.2998L77.2886 42.2457L77.4155 42.2234L78.9395 41.9509L79.0373 41.9331L79.1372 41.9357L81.7355 41.9921L81.7815 41.9927L81.8268 41.9981L82.9866 42.129L83.0653 42.1386L83.1407 42.1591L84.5735 42.5544L86.0025 42.8569L86.2081 42.8999L86.3788 43.022L87.3583 43.7247L88.3178 44.3247L88.342 44.3391L88.3644 44.3545L89.7616 45.3394L89.9453 45.4686L90.0553 45.6633L90.5477 46.5313L91.41 47.6469L92.3958 48.712L92.515 48.8407L92.5831 49.0014L93.0216 50.0356L93.0628 50.1312L93.0828 50.2328L93.3124 51.406L94.0806 52.7583L95.0342 54.4411L96.183 54.7359L96.1821 54.736L97.02 54.9395L99.5796 54.8904L100.682 54.4307L101.675 53.9151L104.038 52.5738L105.041 51.9159L105.858 51.1016L105.944 51.0061L106.497 50.1556L107.294 48.8681L107.327 48.8135L107.366 48.7635L108.179 47.7597L108.28 47.6351L108.415 47.5478L109.605 46.7824L110.28 46.0321L110.949 45.0045L111.067 44.8242L111.247 44.7082L112.488 43.9087L113.263 43.2393L113.375 43.1425L113.51 43.0827L114.664 42.5665L115.9 41.7722L116.001 41.7072L116.116 41.6679L117.41 41.2236L118.502 40.7939L119.586 40.2745L119.662 40.2382L119.742 40.2154L120.974 39.8624L121.113 39.8218L121.259 39.823L122.767 39.8388L125.592 39.6908L125.669 39.6985L126.905 39.8215L127.923 39.861L128.021 39.8647L128.116 39.8871L129.751 40.2767L130.821 40.5091L131.03 40.5549L131.201 40.6809L132.168 41.39L133.575 41.8355L133.732 41.885L133.864 41.9827L134.965 42.7905L134.983 42.8042L135.001 42.8189L136.005 43.6317L136.167 43.763L136.264 43.9477L136.726 44.8387L137.532 45.6454L137.627 45.7411L137.694 45.8588L138.329 46.9785L138.336 46.9908L138.342 47.0023L139.089 48.4055L139.09 48.4094L139.699 49.5657L140.387 50.53L140.392 50.5366L141.674 52.3684L142.778 52.4407L145.423 52.302L146.527 52.0721L147.653 51.6845L148.724 50.9468L149.749 50.1831L150.409 49.4502L150.457 49.3969L150.512 49.352L151.54 48.4913L151.611 48.4054L152.149 47.6018L152.639 46.5816L152.691 46.4762L152.764 46.3843L153.577 45.3805L153.593 45.36L154.566 44.2793L154.622 44.2334L155.655 43.3686L156.403 42.4453L156.454 42.381L156.516 42.327L157.434 41.5092L157.501 41.45L157.579 41.4019L158.781 40.671L159.68 40.0655L159.778 39.9987L159.89 39.9576L161.23 39.4601L161.92 38.8626L162.086 38.72L162.296 38.6591L163.905 38.1904L163.963 38.1727L164.022 38.1638L164.808 38.0336L166.153 37.5984L166.277 37.5586L167.898 37.4736L170.249 37.1607L170.398 37.1412L170.546 37.1667ZM44.6677 113.86L45.4099 115.166L46.953 115.278L46.953 115.277L45.4099 115.166L44.6686 113.86L45.0771 112.492L44.6677 113.86ZM436.988 83.0125L436.68 84.4711L436.74 85.6209L436.594 88.3207L436.855 89.6526L436.856 89.6526L436.594 88.3207L436.741 85.6208L436.681 84.4711L436.988 83.0125L437.403 81.741L437.402 81.7411L436.988 83.0125ZM45.9404 108.794L45.5219 109.97L45.9414 108.794L46.0522 107.25L45.9404 108.794ZM456.626 76.6254L455.869 77.0552L455.768 77.1124L455.656 77.1447L454.054 77.611L452.789 78.0459L451.68 78.4825L451.668 78.4871L451.658 78.4905L450.431 78.9391L450.42 78.9436L448.887 79.4816L447.862 80.0223L447.147 80.7297L447.043 80.8319L446.914 80.9003L445.668 81.5631L444.917 82.3965L444.58 83.3412L444.298 84.464L444.178 86.8348L444.608 87.4919L445.608 88.1094L446.609 88.4354L448.961 88.3952L449.932 88.0402L450.647 87.592L451.643 86.8494L452.537 85.858L453.197 84.9383L453.707 84.0804L453.746 84.0138L453.795 83.9545L454.699 82.8588L455.146 81.8331L455.553 80.693L455.576 80.6302L455.606 80.5709L456.217 79.386L456.264 79.2945L456.329 79.2148L456.978 78.4102L457.156 77.4044L457.182 77.2593L457.247 77.1278L457.554 76.5181L456.626 76.6254ZM456.076 82.2048L455.561 83.3848L454.567 84.5908L454.037 85.484L453.32 86.4828L452.32 87.5924L452.321 87.5923L453.32 86.4828L454.038 85.484L454.567 84.5908L455.562 83.3847L456.077 82.2048L456.495 81.0289L456.076 82.2048ZM49.4962 94.0916L48.9861 95.3681L48.7738 96.8217L48.1732 98.1987L47.9558 99.5557L47.5423 100.827L47.2183 101.998L46.9104 103.456L46.9114 103.456L47.2193 101.998L47.5423 100.827L47.9568 99.5557L48.1732 98.1987L48.7748 96.8216L48.9871 95.3681L49.4962 94.0916L49.5324 92.9358L49.5314 92.9359L49.4962 94.0916ZM458.14 77.5787L457.919 78.8391L457.106 79.844L457.919 78.8401L458.141 77.5787L458.837 76.1956L458.14 77.5787ZM441.561 76.7167L440.652 77.7256L439.739 78.6389L438.725 79.4607L439.74 78.6389L440.653 77.7256L441.562 76.7167L442.49 76.0911L442.489 76.0911L441.561 76.7167ZM459.262 69.637L458.319 69.975L456.8 70.3421L456.801 70.342L458.32 69.9749L459.263 69.637L461.478 67.8859L459.262 69.637ZM70.1792 88.8741L71.8138 88.8843L74.7008 88.9256L71.8148 88.8842L70.1801 88.8741L69.0143 88.6467L70.1792 88.8741ZM108.595 83.6885L110.079 84.4762L110.886 85.2025L112.344 85.5104L113.524 86.0255L114.785 86.2479L116.244 86.5558L117.692 86.6726L117.692 86.6716L116.244 86.5558L114.786 86.2479L113.525 86.0255L112.344 85.5104L110.887 85.2025L110.079 84.4762L108.596 83.6884L107.793 83.047L108.595 83.6885ZM418.257 69.575L419.342 70.0941L420.507 70.3216L421.683 70.7411L420.508 70.3215L419.342 70.0941L418.258 69.575L417.062 68.7722L418.257 69.575ZM33.416 89.4552L34.7025 90.1564L35.7819 90.581L37.1399 90.7983L35.7829 90.5809L34.7025 90.1564L33.417 89.4551L32.216 88.5568L33.416 89.4552ZM351.946 73.723L353.107 73.8538L354.464 74.0712L358.304 73.9668L358.304 73.9658L354.465 74.0712L353.107 73.8538L351.947 73.723L350.484 73.3185L351.946 73.723ZM393.956 69.9831L395.243 70.6843L396.514 71.0988L397.776 71.3212L398.732 71.4295L397.777 71.3211L396.515 71.0987L395.244 70.6843L393.957 69.983L393.15 69.2558L393.956 69.9831ZM160.244 83.1928L161.327 83.4215L160.245 83.1927L158.973 82.7782L160.244 83.1928ZM52.6695 79.8553L52.3648 80.9636L52.0569 82.4221L51.5418 83.6021L51.2339 85.0606L51.097 86.1249L50.9762 87.4768L50.2891 89.0511L50.2901 89.051L50.9762 87.4768L51.098 86.1248L51.2339 85.0606L51.5427 83.602L52.0569 82.4221L52.3657 80.9635L52.6713 79.8523L52.6695 79.8553ZM269.253 75.1729L270.162 75.9898L271.453 76.7875L271.454 76.7875L270.163 75.9897L269.254 75.1729L268.159 74.4607L269.253 75.1729ZM469.753 66.2024L469.753 66.2034L470.708 66.0566L470.707 66.0566L469.753 66.2024ZM186.066 76.3603L186.046 77.8028L185.636 79.1698L185.031 80.4513L185.031 80.4513L185.637 79.1698L186.046 77.8028L186.067 76.3602L186.581 75.1794L186.066 76.3603ZM237.93 75.4679L238.576 76.7807L239.58 77.5925L239.581 77.5925L238.577 76.7806L237.931 75.4679L237.477 74.1461L237.477 74.1461L237.93 75.4679ZM441.563 63.9315L442.29 64.9505L443.39 65.7583L444.575 66.369L445.464 66.6344L444.576 66.369L443.39 65.7583L442.291 64.9505L441.564 63.9314L440.646 62.9215L441.563 63.9315ZM343.355 67.5401L343.905 68.8569L345.11 69.8509L345.923 70.6737L346.74 71.5922L346.741 71.5921L345.923 70.6737L345.111 69.8508L343.905 68.8569L343.356 67.5401L342.816 66.4145L343.355 67.5401ZM474.976 63.1417L473.765 63.878L472.746 64.6042L473.766 63.8779L474.977 63.1416L476.082 62.2183L474.976 63.1417ZM153.397 79.1295L154.694 80.0228L155.411 80.8506L154.695 80.0227L153.398 79.1294L152.586 78.3066L153.397 79.1295ZM2.35033 87.334L1.84528 88.7061L1.84625 88.706L2.35131 87.3339L2.47713 86.0776L2.35033 87.334ZM414.862 65.3309L415.695 66.537L414.863 65.3308L414.893 64.0795L414.862 65.3309ZM103.213 76.3762L104.046 77.5823L104.292 78.6265L105.321 79.9182L105.952 80.9432L106.77 81.8616L105.953 80.9431L105.322 79.9181L104.293 78.6264L104.046 77.5823L103.214 76.3761L102.851 74.9527L103.213 76.3762ZM210.931 73.9032L210.528 75.3658L210.528 75.3668L210.932 73.9032L211.451 72.8188L210.931 73.9032ZM481.244 56.1801L480.426 57.0874L479.523 58.1928L477.898 60.2005L479.524 58.1928L480.427 57.0873L481.244 56.1801L481.861 55.0897L481.86 55.0897L481.244 56.1801ZM174.338 75.1482L173.117 75.6923L171.497 75.9699L170.453 76.2172L171.498 75.9698L173.118 75.6923L174.339 75.1481L175.176 74.6231L174.338 75.1482ZM45.9916 79.952L45.1797 80.9558L44.1597 81.6821L43.1306 82.2161L42.0049 82.7553L42.0059 82.7562L43.1306 82.2161L44.1607 81.682L45.1797 80.9558L45.9925 79.9519L47.0015 79.0336L45.9916 79.952ZM406.86 63.0581L405.921 63.4916L404.685 63.749L404.686 63.749L405.922 63.4915L406.861 63.058L408.365 62.4022L408.364 62.4023L406.86 63.0581ZM438.684 56.485L438.649 57.8355L439.102 59.1573L439.465 60.5807L440.01 61.8018L439.466 60.5806L439.103 59.1572L438.65 57.8354L438.686 56.483L438.684 56.485ZM284.68 68.6926L283.666 69.5144L284.681 68.6926L285.79 67.8648L284.68 68.6926ZM358.268 36.7878L356.943 37.1262L355.798 37.637L355.767 37.6514L355.735 37.6628L354.771 38.0145L354.224 38.7003L354.116 38.8361L353.967 38.927L353.023 39.5074L352.082 40.3635L352.033 40.4091L351.977 40.4473L350.971 41.1405L350.582 41.8738L349.612 44.2012L349.33 45.5332L349.115 46.7532L348.998 48.0629L348.993 48.1081L348.986 48.1515L348.695 49.7637L348.572 50.9798L348.459 52.3802L348.43 53.5659L348.639 57.5438L349.092 58.4902L349.147 58.6056L349.172 58.7295L349.422 60.0014L349.83 61.2659L350.326 62.1386L351.389 63.0158L351.483 63.093L351.555 63.19L352.068 63.8789L352.919 64.4318L354.186 64.8984L354.244 64.9198L354.299 64.9482L355.275 65.4506L356.483 65.4684L356.493 65.4688L358.77 65.5236L359.785 65.0714L359.849 65.0426L359.918 65.0234L361.128 64.6754L362.642 64.1687L363.433 63.5523L363.491 63.5071L363.554 63.4706L364.664 62.8413L365.16 62.1298L365.184 62.0963L365.21 62.0646L366.166 60.9036L366.848 59.8557L366.861 59.8365L366.875 59.8182L367.591 58.8184L368.291 57.7735L368.657 56.5524L368.679 56.4799L368.711 56.4117L369.298 55.1703L369.772 53.9808L370.03 52.8662L369.886 51.7051L369.866 51.5536L369.894 51.4035L370.183 49.7973L370.292 48.58L370.064 45.9877L370.06 45.9352L370.061 45.8813L370.083 44.6725L369.777 43.5395L369.238 42.0842L368.696 40.7856L368.673 40.7321L368.658 40.6762L368.396 39.7638L367.36 38.9761L367.247 38.8901L366.628 38.06L365.676 37.3482L364.57 36.9876L363.116 36.5279L361.755 36.43L359.31 36.5582L358.268 36.7878ZM429.329 60.7266L428.214 61.4588L427.723 61.8689L428.215 61.4588L429.329 60.7266L430.622 59.6976L430.621 59.6976L429.329 60.7266ZM365.355 63.5992L364.048 64.3405L363.124 65.0617L363.125 65.0616L364.049 64.3404L365.356 63.5991L365.981 62.7009L365.355 63.5992ZM281.48 41.4419L280.484 41.8637L278.976 42.6723L277.964 43.3355L277.013 44.2019L276.992 44.2216L276.969 44.2394L276.114 44.9326L275.684 45.7423L275.626 45.851L275.544 45.9423L274.551 47.0436L274.009 48.1927L273.993 48.2258L273.975 48.2571L273.431 49.2205L273.15 50.4409L273.12 50.5755L273.054 50.6963L272.412 51.8702L272.126 53.0137L272.113 53.0652L272.094 53.1151L271.649 54.3266L271.636 55.6915L271.635 55.7365L271.631 55.7817L271.505 57.038L271.504 57.0371L271.399 58.3422L271.802 60.7971L271.806 60.8165L271.808 60.836L271.966 62.1078L272.307 63.4433L272.637 64.5966L273.099 65.5581L273.867 66.5886L273.925 66.6668L273.967 66.7536L274.367 67.5882L275.37 68.1351L275.473 68.1914L276.283 68.9205L277.296 69.1754L278.493 69.451L280.566 69.2554L282.089 68.9037L283.2 68.6039L284.05 67.9159L284.066 67.9024L284.082 67.8908L285.134 67.1051L285.997 66.2444L286.01 66.231L286.024 66.2185L287.051 65.2669L287.708 64.3514L287.725 64.328L287.743 64.3046L288.491 63.3814L289.051 62.293L289.634 61.0566L290.131 59.8161L290.141 59.7891L290.153 59.7631L290.775 58.4328L290.889 57.4352L290.904 57.2995L290.955 57.1736L291.468 55.9048L291.4 54.6116L291.45 54.4457L291.81 53.2426L291.745 52.0178L291.523 49.569L291.362 48.3277L291.361 48.3199L291.36 48.3131L291.198 46.9017L290.817 45.8626L290.329 45.0031L290.315 44.9775L290.302 44.9518L289.753 43.8354L288.816 43.069L288.798 43.0533L287.872 42.2198L287.182 41.5997L286.117 41.4296L286.101 41.4266L286.084 41.4235L284.993 41.2099L282.383 41.0865L281.48 41.4419ZM404.857 34.9134L403.614 35.4019L402.692 36.0067L401.963 36.8174L401.874 36.917L401.761 36.9894L400.617 37.7241L400.014 38.5674L399.998 38.5887L399.983 38.6091L399.31 39.4501L398.556 40.7707L398.527 40.8211L398.494 40.8669L397.712 41.9297L397.097 42.8744L396.82 43.9792L396.81 44.0189L396.797 44.0577L396.316 45.4706L396.02 46.8688L396.014 46.8985L395.726 47.9403L395.798 49.3174L395.784 49.4149L395.59 50.7355L395.74 51.9373L395.747 51.9897L395.748 52.0435L395.796 54.78L395.945 56.022L396.442 57.2115L396.508 57.3713L396.576 58.6791L397.047 59.6363L398.033 60.5243L398.052 60.5429L398.883 61.3746L400.064 62.1038L400.829 62.5576L402.1 62.8831L404.558 62.7543L405.607 62.535L406.441 62.15L406.45 62.1456L406.461 62.1412L407.737 61.5834L408.304 60.875L408.413 60.7392L408.561 60.6483L409.482 60.0808L410.337 59.2195L411.06 58.1401L411.662 57.0778L411.703 57.0053L411.755 56.9409L412.521 55.9933L413.175 54.8931L413.74 53.6959L414.137 52.6835L414.483 51.5241L414.408 50.0759L414.465 49.8989L414.844 48.7339L414.958 47.4615L414.963 47.427L415.151 46.2446L414.925 45.0889L414.911 45.0192L414.766 42.2427L414.529 41.1119L414.189 39.924L414.168 39.8518L414.159 39.777L414.024 38.7445L413.449 37.8007L412.5 36.7747L412.483 36.756L412.466 36.7364L411.675 35.7892L410.478 35.1869L410.478 35.186L409.697 34.8045L408.675 34.548L405.841 34.6965L404.857 34.9134ZM75.4471 52.0763L74.5361 52.5132L73.6121 53.2618L72.5981 54.0846L72.5456 54.1274L72.4877 54.1618L71.4234 54.8092L70.6661 55.7339L69.9901 56.7736L69.3969 57.8256L69.3432 57.9213L69.2693 58.0025L68.4699 58.8902L67.9208 60.1492L67.9066 60.1773L67.3233 61.3071L66.8569 62.5764L66.542 63.7145L66.5231 63.783L66.4952 63.848L65.9704 65.049L65.9417 66.0118L65.941 66.0363L65.9384 66.0609L65.8226 67.5094L65.8222 67.5192L65.8207 67.529L65.6939 68.7854L65.6856 68.8699L65.6635 68.9513L65.3165 70.2036L65.7049 72.5595L65.7146 72.6138L65.7851 73.9586L66.1503 74.9555L66.9417 76.2675L66.9729 76.3206L66.9982 76.376L67.4692 77.4329L68.1538 78.1245L68.1529 78.1246L69.0554 79.018L70.3359 79.6981L71.1533 79.976L72.3999 80.158L74.9414 79.9329L75.8367 79.8117L76.7622 79.2048L76.8492 79.1474L76.945 79.1101L78.2002 78.616L79.1773 77.7796L79.8244 76.8802L79.8718 76.8142L79.9294 76.7554L80.7806 75.905L81.6203 74.6865L81.6421 74.6541L81.6659 74.6245L82.3657 73.7586L82.8091 72.4592L82.8142 72.4452L83.2328 71.2703L83.2499 71.2235L83.271 71.1784L83.8555 69.941L84.3049 68.7195L84.4234 67.6787L84.4306 67.6108L84.4486 67.5434L84.8177 66.0973L84.8413 64.8668L84.8444 64.7405L84.8772 64.6195L85.2577 63.2412L85.3575 62.1222L84.8615 59.5988L84.8414 59.4962L84.8428 59.3915L84.8613 58.0273L84.752 57.2673L83.9237 55.9603L83.8725 55.8788L83.4188 54.7233L83.0051 53.9949L81.9254 53.0227L81.0115 52.2844L80.1972 51.8244L78.8451 51.7378L76.487 51.8614L75.4471 52.0763ZM150.573 74.7596L151.214 75.9758L150.574 74.7595L150.029 73.5383L150.573 74.7596ZM121.311 49.7402L120.207 50.4111L120.134 50.456L120.054 50.4876L118.721 51.0102L117.666 51.6523L116.809 52.4326L116.249 53.2364L116.187 53.3247L116.109 53.3983L115.093 54.3375L114.427 55.3317L114.049 56.3901L114.019 56.4738L113.975 56.5504L113.183 57.9375L113.182 57.9366L112.63 58.915L112.249 60.2963L112.237 60.3301L111.832 61.4652L111.455 62.721L111.347 64.0654L111.341 64.1381L111.326 64.2093L111.064 65.3408L111.377 66.6308L111.408 66.7593L111.405 66.8914L111.346 69.3168L111.488 70.5181L111.957 71.4949L112.014 71.6141L112.038 71.7439L112.269 72.9757L112.89 73.922L112.953 74.0184L112.992 74.1269L113.356 75.1199L114.054 75.7483L115.202 76.6964L116.204 77.3489L116.838 77.658L118.027 77.6749L120.343 77.5535L121.49 77.4103L123.943 76.2412L124.669 75.6145L124.714 75.575L124.764 75.5411L126.055 74.6715L126.692 73.9644L127.235 72.8162L127.31 72.6587L127.433 72.536L128.251 71.7176L128.977 70.4464L128.987 70.4293L128.998 70.4131L129.579 69.482L130.144 68.187L130.606 67.0293L130.807 65.7798L130.817 65.7147L130.836 65.6511L131.205 64.4143L131.229 63.2044L131.231 63.0791L131.265 62.957L131.635 61.6155L131.652 60.3414L131.426 57.8234L131.424 57.8049L131.372 56.8082L130.889 55.6513L130.88 55.6312L130.873 55.6101L130.45 54.4568L129.887 53.4663L129.098 52.4075L129.061 52.3577L129.03 52.3035L128.489 51.3491L127.737 50.7489L127.736 50.749L126.67 49.9512L125.877 49.6387L124.895 49.609L124.887 49.6085L124.879 49.6089L122.159 49.4796L121.311 49.7402ZM125.323 76.3714L124.496 77.0875L125.324 76.3713L126.716 75.4329L125.323 76.3714ZM179.122 72.8781L177.719 73.6254L176.69 74.1595L177.72 73.6253L179.122 72.8781L181.353 71.4156L181.352 71.4156L179.122 72.8781ZM387.818 62.9021L387.819 62.902L387.461 61.5752L387.46 61.5753L387.818 62.9021ZM463.709 57.2917L463.297 58.5621L463.711 57.2906L463.709 57.2917ZM82.4431 75.2536L81.5498 76.5502L80.6364 77.4635L79.9201 78.4623L80.6373 77.4635L81.5507 76.5502L82.4441 75.2536L83.2559 74.2498L82.4431 75.2536ZM413.345 56.5662L412.532 57.5701L411.917 58.6594L411.114 59.8554L410.11 60.8693L411.115 59.8554L411.918 58.6594L412.533 57.57L413.345 56.5662L414.053 55.3752L414.052 55.3753L413.345 56.5662ZM456.076 58.3635L456.077 58.3635L457.091 57.5417L457.09 57.5418L456.076 58.3635ZM341.287 62.938L341.827 64.0636L341.288 62.9379L340.728 61.429L341.287 62.938ZM213.133 66.3861L212.719 67.6565L212.396 68.8274L212.077 70.0939L212.078 70.0938L212.396 68.8274L212.719 67.6575L213.134 66.386L213.249 64.9376L213.133 66.3861ZM56.7888 62.6591L56.3703 63.834L56.0628 65.1703L55.8896 65.2057L55.1834 66.3957L54.4812 67.6823L54.1632 68.9487L53.2599 70.0541L52.6442 71.1435L51.8464 72.4351L51.0396 73.5345L50.4229 74.6249L49.8223 76.0019L48.9139 77.0108L47.8094 77.9342L48.9149 77.0108L49.8233 76.0019L50.4239 74.6248L51.0396 73.5345L51.8474 72.435L52.6442 71.1435L53.2609 70.0541L54.1642 68.9486L54.4822 67.6822L55.1834 66.3957L55.8906 65.2057L56.0628 65.1703L56.3703 63.8349L56.7898 62.659L57.1933 61.1955L56.7888 62.6591ZM30.2652 77.0269L29.8567 78.3939L30.2661 77.0268L30.6696 75.5633L30.2652 77.0269ZM4.97133 76.8142L4.75903 78.2678L4.24994 79.5442L4.76 78.2677L4.97231 76.8142L5.19468 75.5528L5.19371 75.5528L4.97133 76.8142ZM433.669 55.5011L433.16 56.7775L433.67 55.501L434.674 54.4871L433.669 55.5011ZM262.703 64.2713L262.969 65.3115L262.97 65.3115L262.704 64.2703L262.703 64.2713ZM148.778 69.8546L148.947 70.6164L148.779 69.8546L148.421 68.5277L148.778 69.8546ZM184.991 67.4756L184.083 68.4845L184.084 68.4845L185.809 66.5683L184.991 67.4756ZM461.552 52.79L460.653 53.9901L460.654 53.99L461.553 52.79L462.355 51.594L462.354 51.594L461.552 52.79ZM85.8417 64.8858L85.8154 66.2327L85.417 67.7919L85.2851 68.9517L84.7801 70.3248L84.1745 71.6063L83.7559 72.7811L84.1755 71.6062L84.7811 70.3247L85.2861 68.9517L85.417 67.7919L85.8164 66.2327L85.8417 64.8858L86.2461 63.4222L86.2451 63.4222L85.8417 64.8858ZM340.436 57.695L340.405 58.9464L340.406 58.9464L340.436 57.695L340.19 54.8241L340.189 54.8241L340.436 57.695ZM259.64 60.488L258.833 61.5874L259.641 60.4879L260.534 59.1913L259.64 60.488ZM371.06 45.9003L371.297 48.5791L371.176 49.9321L370.878 51.5817L371.044 52.9186L370.731 54.2806L370.221 55.5571L370.222 55.5571L370.731 54.2806L371.045 52.9186L370.878 51.5817L371.177 49.932L371.297 48.5791L371.061 45.9003L371.086 44.5534L371.06 45.9003ZM32.9616 67.9456L32.7392 69.207L32.2301 70.4834L31.6285 71.8606L31.2049 72.9399L31.6295 71.8605L32.2301 70.4834L32.7402 69.2069L32.9625 67.9455L33.4716 66.6691L32.9616 67.9456ZM189.746 60.653L189.73 60.691L189.12 61.8759L188.221 63.0769L187.515 64.2679L188.222 63.0769L189.121 61.8759L189.731 60.6909L189.747 60.6529L189.758 60.5927L189.757 60.5927L189.746 60.653ZM214.39 61.0327L213.795 62.5053L213.796 62.5052L214.391 61.0326L214.422 59.7813L214.39 61.0327ZM102.197 64.3171L102.171 65.664L102.332 66.9054L102.019 68.2674L102.333 66.9053L102.171 65.664L102.198 64.3171L102.419 63.0557L102.197 64.3171ZM466.716 43.0983L465.822 44.3949L465.322 45.8625L464.803 46.9478L464.484 48.2143L463.768 49.2131L464.485 48.2142L464.803 46.9478L465.323 45.8625L465.823 44.3948L466.717 43.0982L467.13 41.8268L466.716 43.0983ZM6.33465 71.6479L5.62844 72.8389L6.33563 71.6479L6.36087 70.3009L6.33465 71.6479ZM438.02 48.6399L437.606 49.9114L438.021 48.6399L438.541 47.5545L438.54 47.5546L438.02 48.6399ZM415.829 48.9374L415.416 50.2089L415.83 48.9374L415.951 47.5855L415.829 48.9374ZM132.633 61.7608L132.228 63.2234L132.229 63.2233L132.633 61.7608L132.654 60.3172L132.653 60.3173L132.633 61.7608ZM215.174 55.7999L215.153 57.2434L214.649 58.6154L215.154 57.2434L215.174 55.7999L215.684 54.5234L215.683 54.5235L215.174 55.7999ZM262.808 54.7166L262.361 55.538L262.809 54.7165L262.881 54.4536L262.808 54.7166ZM241.255 54.5299L240.659 56.0025L240.66 56.0025L241.256 54.5298L241.286 53.2785L241.255 54.5299ZM387.096 45.6877L386.964 46.6051L386.751 48.0577L386.752 48.0576L386.965 46.6051L387.098 45.6867L387.096 45.6877ZM340.458 47.1198L340.523 48.3662L340.398 49.6225L340.524 48.3661L340.459 47.1198L340.474 45.5807L340.458 47.1198ZM35.1276 61.5833L34.9103 62.9403L34.2996 64.1262L33.8961 65.5888L34.3006 64.1261L34.9113 62.9402L35.1286 61.5832L35.35 60.3219L35.1276 61.5833ZM7.53207 65.1447L7.49175 66.2039L7.53305 65.1446L7.93149 63.5855L7.53207 65.1447ZM440.645 40.908L440.327 42.1744L440.646 40.9079L441.065 39.732L440.645 40.908ZM467.776 39.4861L467.363 40.7575L467.777 39.486L468.473 38.103L467.776 39.4861ZM242.618 49.3636L242.3 50.63L241.987 51.992L242.301 50.6299L242.619 49.3635L242.418 45.5279L242.417 45.528L242.618 49.3636ZM191.843 52.6974L191.44 54.1599L191.844 52.6973L192.253 51.3293L191.843 52.6974ZM131.363 54.0403L131.811 55.2665L132.362 56.5833L131.812 55.2665L131.364 54.0402L130.728 52.9196L130.727 52.9197L131.363 54.0403ZM224.202 50.1361L223.596 51.4176L224.203 50.136L224.722 49.0517L224.202 50.1361ZM8.78975 59.7913L8.56738 61.0527L8.45157 62.5002L8.56836 61.0526L8.79073 59.7912L9.49194 58.5047L8.78975 59.7913ZM370.168 41.7177L370.728 43.2256L370.169 41.7176L369.619 40.3999L370.168 41.7177ZM414.989 38.4074L415.151 39.6477L415.503 40.879L415.504 40.879L415.151 39.6477L414.99 38.4074L414.253 37.1963L414.989 38.4074ZM58.0667 55.8632L57.7538 57.2252L57.5415 58.6777L57.5424 58.6777L57.7548 57.2251L58.0677 55.8631L58.4762 54.4951L58.0667 55.8632ZM205.777 41.5847L204.975 42.7807L204.071 43.8852L203.162 44.8941L202.355 45.9935L201.936 47.1694L201.138 48.461L200.815 49.6318L200.21 50.9103L200.21 50.9123L200.816 49.6317L201.139 48.4609L201.937 47.1693L202.355 45.9935L203.163 44.894L204.072 43.8851L204.975 42.7807L205.778 41.5847L206.6 40.772L205.777 41.5847ZM472.498 25.0111L471.805 26.4888L471.578 27.6547L471.361 29.0117L471.048 30.3737L470.634 31.6451L470.32 33.0081L469.71 34.1931L469.205 35.5661L469.079 36.8215L469.206 35.5661L469.711 34.193L470.321 33.0081L470.634 31.6451L471.049 30.3736L471.362 29.0116L471.579 27.6546L471.806 26.4888L472.498 25.0111L474.254 23.6693L474.253 23.6694L472.498 25.0111ZM173.572 47.6946L174.102 48.6281L174.263 49.8694L174.671 52.1549L174.672 52.1548L174.264 49.8694L174.102 48.6281L173.573 47.6945L172.554 46.594L172.553 46.5941L173.572 47.6946ZM16.6971 60.2403L16.6972 60.2423L17.4135 59.2435L16.6971 60.2403ZM153.021 48.0988L152.414 49.0019L152.258 49.1959L151.152 50.1193L150.426 50.926L149.316 51.7538L148.109 52.5857L148.11 52.5856L149.317 51.7538L150.426 50.926L151.153 50.1193L152.258 49.1959L152.415 49.0009L153.022 48.0988L153.542 47.0134L153.541 47.0135L153.021 48.0988ZM389.046 38.7265L389.047 38.7265L389.05 38.7087L389.049 38.7088L389.046 38.7265ZM81.5804 51.4586L82.5852 52.2704L83.7953 53.3609L84.3253 54.2944L83.7962 53.3608L82.5852 52.2704L81.5813 51.4585L80.4919 50.8418L80.4909 50.8419L81.5804 51.4586ZM269.246 40.181L268.434 41.1849L267.717 42.1837L267.202 43.3646L266.394 44.4641L266.395 44.464L267.203 43.3646L267.717 42.1837L268.435 41.1848L269.247 40.1809L270.241 38.9749L269.246 40.181ZM420.5 35.3306L420.172 36.4049L420.501 35.3306L420.914 34.0591L420.5 35.3306ZM110.258 47.5519L108.956 48.3888L108.143 49.3927L107.347 50.6842L106.738 51.6187L106.593 51.7818L105.678 52.6942L105.679 52.6941L106.593 51.7818L106.741 51.6156L107.347 50.6842L108.144 49.3926L108.957 48.3887L110.259 47.5519L111.077 46.6436L111.076 46.6436L110.258 47.5519ZM442.514 34.3686L442.515 34.3685L442.828 33.0065L442.827 33.0066L442.514 34.3686ZM127.161 49.0698L128.361 49.9681L129.265 50.6894L128.362 49.9681L127.161 49.0698L126.082 48.6452L126.081 48.6452L127.161 49.0698ZM226.549 45.3983L226.55 45.3983L227.165 44.3089L227.164 44.309L226.549 45.3983ZM341.797 37.8212L341.762 38.976L341.798 37.8211L342.111 36.4581L342.11 36.4582L341.797 37.8212ZM285.11 40.2151L286.276 40.4425L287.633 40.6598L288.541 41.4767L287.634 40.6598L286.276 40.4425L285.111 40.215L282.22 40.0781L282.219 40.0781L285.11 40.2151ZM367.344 37.3468L367.345 37.3467L366.144 36.4484L366.143 36.4485L367.344 37.3468ZM59.7228 50.7773L59.3092 52.0488L59.7237 50.7773L59.6484 49.3388L59.6474 49.3389L59.7228 50.7773ZM193.934 44.8966L193.935 44.8965L194.253 43.6301L194.252 43.6302L193.934 44.8966ZM422.539 30.2247L422.221 31.4911L421.52 32.7776L422.222 31.4911L422.54 30.2247L423.04 28.7561L423.039 28.7561L422.539 30.2247ZM25.6244 49.0068L24.4082 49.6475L23.3992 50.5658L22.3088 51.7768L21.8751 52.664L20.9667 53.6729L20.9668 53.6739L21.8751 52.664L22.3097 51.7768L23.3992 50.5658L24.4092 49.6474L25.6254 49.0077L26.5438 48.1899L26.5429 48.19L25.6244 49.0068ZM296.191 37.039L297.099 37.8558L297.936 39.1585L297.936 39.1576L297.099 37.8558L295.182 36.1296L296.191 37.039ZM229.501 41.2068L228.685 42.1141L229.502 41.2068L230.602 40.1879L229.501 41.2068ZM394.611 31.1114L394.086 32.1002L394.087 32.1001L394.611 31.1114L395.616 30.0974L395.615 30.0975L394.611 31.1114ZM162.575 39.6194L161.747 40.3356L160.238 40.8948L159.309 41.5205L158.098 42.2567L157.18 43.0745L156.368 44.0783L157.181 43.0744L158.099 42.2567L159.31 41.5204L160.239 40.8948L161.748 40.3356L162.575 39.6194L164.185 39.1497L164.184 39.1498L162.575 39.6194ZM276.539 34.4155L275.6 34.849L274.581 35.5752L273.47 36.403L272.264 37.2348L272.265 37.2348L273.471 36.4029L274.581 35.5752L275.601 34.8489L276.54 34.4154L278.037 33.6641L276.539 34.4155ZM444.604 26.5688L444.196 27.9358L444.605 26.5687L446.255 25.0399L444.604 26.5688ZM236.794 35.4413L235.381 35.9955L234.261 36.6312L233.443 37.5395L232.131 38.1842L232.132 38.1851L233.444 37.5394L234.262 36.6311L235.381 35.9955L236.795 35.4412L238.121 35.0832L236.794 35.4413ZM354.403 30.7191L353.187 31.3598L351.769 31.8184L353.188 31.3597L354.404 30.719L356.019 30.3459L356.018 30.346L354.403 30.7191ZM401.792 26.8899L400.561 27.2429L399.249 27.8887L397.847 28.6349L399.25 27.8886L400.562 27.2429L401.793 26.8899L402.918 26.3498L401.792 26.8899ZM365.651 9.76381L364.515 10.1803L363.428 10.6646L362.486 11.3662L361.826 12.1L361.812 12.1164L361.797 12.1318L360.701 13.2464L360.695 13.2536L359.841 14.1051L359.17 15.0409L359.15 15.0693L359.127 15.0969L358.1 16.3331L357.528 17.3458L357.486 17.4214L357.43 17.4868L356.605 18.4963L356.079 19.6083L355.685 20.822L355.664 20.8848L355.635 20.9439L355.115 22.0293L355.092 22.0764L355.064 22.1219L354.348 23.2821L353.986 24.6956L353.953 24.8234L353.888 24.9393L353.356 25.8786L353.164 26.9721L353.148 27.06L353.117 27.1438L352.612 28.5158L352.607 28.5308L352.601 28.5458L352.022 29.9765L351.829 30.6222L351.948 30.7099L352.792 30.4368L353.937 29.834L354.052 29.7742L354.178 29.7452L355.751 29.3811L357.088 28.9492L359.385 27.9829L360.706 27.3729L361.762 26.6809L361.789 26.6629L363.124 25.9055L363.15 25.8914L363.176 25.8783L364.38 25.2852L365.394 24.439L365.438 24.4024L365.486 24.3706L366.492 23.7106L367.216 22.9069L368.166 21.7551L368.867 20.7796L368.912 20.7156L368.968 20.6589L369.83 19.7883L370.265 18.7016L370.297 18.6207L370.342 18.547L371.127 17.2726L371.675 16.3042L371.982 15.1938L371.774 14.1955L371.758 14.121L371.58 10.7185L370.908 10.1132L370.114 9.47121L369.221 9.31462L367.119 9.42476L365.651 9.76381ZM344.706 27.2863L344.186 28.3707L343.59 29.8443L343.273 31.1107L343.591 29.8443L344.187 28.3706L344.707 27.2863L345.116 25.9183L344.706 27.2863ZM213.089 36.2025L212.065 36.8331L210.647 37.2918L209.723 38.0129L209.724 38.0129L210.648 37.2917L212.065 36.8331L213.09 36.2024L217.111 35.8959L213.089 36.2025ZM77.5913 43.2078L76.6528 43.6413L76.6537 43.6412L77.5923 43.2077L79.1153 42.9353L77.5913 43.2078ZM405.784 26.008L404.351 26.1789L405.785 26.0079L408.559 25.7657L405.784 26.008ZM372.606 16.6915L371.99 17.7809L371.192 19.0725L370.683 20.3489L369.678 21.3629L368.962 22.3617L367.967 23.5677L367.15 24.476L367.968 23.5677L368.962 22.3617L369.679 21.3628L370.683 20.3489L371.193 19.0724L371.99 17.7809L372.607 16.6915L373.01 15.2279L372.606 16.6915ZM347.791 18.2805L347.175 19.3699L347.176 19.3698L347.792 18.2805L348.397 16.999L347.791 18.2805ZM352.637 9.85519L351.648 11.1568L352.638 9.85514L353.071 8.96697L352.637 9.85519ZM365.55 1.29555L364.314 1.55299L363.189 2.09208L364.315 1.55294L365.551 1.2955L367.08 1.11953L367.079 1.11958L365.55 1.29555Z" fill="url(#paint0_linear_0_4449)"/>
</g>
<defs>
<filter id="filter0_ii_0_4449" x="0.563293" y="-4.00676" width="486.543" height="120.292" filterUnits="userSpaceOnUse" color-interpolation-filters="sRGB">
<feFlood flood-opacity="0" result="BackgroundImageFix"/>
<feBlend mode="normal" in="SourceGraphic" in2="BackgroundImageFix" result="shape"/>
<feColorMatrix in="SourceAlpha" type="matrix" values="0 0 0 0 0 0 0 0 0 0 0 0 0 0 0 0 0 0 127 0" result="hardAlpha"/>
<feOffset dy="-1"/>
<feGaussianBlur stdDeviation="0.5"/>
<feComposite in2="hardAlpha" operator="arithmetic" k2="-1" k3="1"/>
<feColorMatrix type="matrix" values="0 0 0 0 0.00784314 0 0 0 0 0.00784314 0 0 0 0 0.0117647 0 0 0 0.5 0"/>
<feBlend mode="overlay" in2="shape" result="effect1_innerShadow_0_4449"/>
<feColorMatrix in="SourceAlpha" type="matrix" values="0 0 0 0 0 0 0 0 0 0 0 0 0 0 0 0 0 0 127 0" result="hardAlpha"/>
<feOffset dy="-4"/>
<feGaussianBlur stdDeviation="2"/>
<feComposite in2="hardAlpha" operator="arithmetic" k2="-1" k3="1"/>
<feColorMatrix type="matrix" values="0 0 0 0 0.00784314 0 0 0 0 0.00784314 0 0 0 0 0.0117647 0 0 0 0.2 0"/>
<feBlend mode="overlay" in2="effect1_innerShadow_0_4449" result="effect2_innerShadow_0_4449"/>
</filter>
<linearGradient id="paint0_linear_0_4449" x1="240.827" y1="14.8436" x2="245.203" y2="98.354" gradientUnits="userSpaceOnUse">
<stop stop-color="#7EBCFF"/>
<stop offset="0.542694" stop-color="#007AFF"/>
<stop offset="1" stop-color="#0057B6"/>
</linearGradient>
</defs>
</svg>
